<svg width="168" height="45" viewBox="0 0 168 45" fill="none" xmlns="http://www.w3.org/2000/svg">
<path d="M168 9.14973C166.942 11.3793 165.874 13.6054 164.831 15.842C163.44 18.8236 162.131 21.8436 160.671 24.7919C159.002 28.1617 156.193 29.9122 152.424 30.1045C151.266 30.164 151.069 29.9681 151.08 28.8507C151.087 28.0673 150.864 27.0967 151.243 26.5581C151.568 26.0965 152.599 26.1122 153.325 25.9478C155.71 25.404 157.068 23.8057 157.81 21.6006C157.894 21.3505 157.764 20.985 157.637 20.7175C155.902 17.0294 154.152 13.3466 152.401 9.6656C151.83 8.46423 151.979 8.42926 153.311 8.22816C155.638 7.87667 156.905 8.71955 157.581 10.9701C158.087 12.6559 158.995 14.2227 159.726 15.8403C159.842 16.0974 159.972 16.3474 160.16 16.7339C161.291 14.1633 162.389 11.7571 163.403 9.31586C163.733 8.52019 164.158 8.15821 165.033 8.25089C165.671 8.31909 166.324 8.22466 166.962 8.28062C167.315 8.3121 167.654 8.50446 167.998 8.62512C168 8.79999 168 8.97486 168 9.14973Z" fill="#DEDFE4"/>
<path d="M111.437 44.9983C111.734 44.0995 111.962 43.1709 112.347 42.3123C112.682 41.5656 112.705 40.936 112.378 40.1684C111.553 38.2221 110.829 36.2338 110.051 34.2297C110.803 33.8783 111.24 33.95 111.511 34.7544C112.085 36.4541 112.733 38.1311 113.418 39.997C114.218 38.1311 114.961 36.4629 115.64 34.7701C115.915 34.0864 116.282 33.8433 117.053 34.1895C116.993 34.3924 116.953 34.6092 116.867 34.8068C115.493 37.9545 114.116 41.0987 112.731 44.2429C112.616 44.5052 112.454 44.7482 112.312 45C112.024 44.9983 111.73 44.9983 111.437 44.9983Z" fill="#DEDFE4"/>
<path d="M80.244 10.5206C83.1987 7.25573 87.485 7.02315 90.0427 9.82808C91.39 9.22128 92.6197 8.43436 93.9618 8.1091C97.6367 7.21901 100.818 9.38741 101.194 13.1384C101.473 15.9381 101.357 18.7762 101.401 21.5986C101.41 22.167 101.078 22.4345 100.504 22.4275C99.7728 22.4188 99.0385 22.3961 98.3095 22.4345C97.5207 22.4765 97.1993 22.1617 97.2116 21.3643C97.2414 19.3848 97.2221 17.4035 97.2204 15.4222C97.2204 15.1599 97.2256 14.8976 97.2151 14.6353C97.1642 13.4462 96.9165 12.313 95.6552 11.8531C94.3096 11.3634 93.043 11.6502 92.0242 12.6715C91.7747 12.9215 91.6113 13.371 91.6061 13.7312C91.5745 16.2651 91.5762 18.799 91.6061 21.3328C91.6149 22.111 91.3373 22.473 90.5345 22.431C89.9214 22.3996 89.3049 22.3996 88.6918 22.431C87.9259 22.4695 87.6501 22.1058 87.6554 21.3801C87.6712 19.3708 87.6641 17.3615 87.6571 15.3505C87.6553 14.9448 87.636 14.5356 87.5851 14.1334C87.376 12.4599 86.4327 11.6817 84.7305 11.7604C83.2303 11.8286 82.0007 13.0457 81.9901 14.5129C81.9743 16.7547 81.9919 18.9983 81.9831 21.2402C81.9796 22.2649 81.8197 22.4153 80.8219 22.424C80.1491 22.4293 79.4746 22.4048 78.8035 22.431C78.0552 22.459 77.7495 22.1233 77.7513 21.3853C77.7583 19.2309 77.7724 17.0747 77.7127 14.9203C77.674 13.5179 76.9907 12.4197 75.7751 11.694C75.4553 11.5033 75.0847 11.3669 74.7193 11.2865C73.4879 11.012 73.4844 11.0242 73.4844 9.73715C73.4844 9.41714 73.4844 9.09712 73.4844 8.77536C73.4861 7.45159 73.7022 7.26098 75.039 7.45508C77.1874 7.7681 78.9248 8.79809 80.244 10.5206Z" fill="#DEDFE4"/>
<path d="M19.5761 9.05517C20.9498 8.22278 22.2673 7.84506 23.7148 7.929C26.0881 8.06715 27.8921 9.13211 28.8319 11.3005C29.3308 12.4512 29.6383 13.7452 29.7226 14.9955C29.8649 17.1132 29.7489 19.2467 29.77 21.3731C29.777 22.1075 29.4942 22.4555 28.7371 22.4311C28.0063 22.4066 27.272 22.4013 26.543 22.4328C25.7701 22.466 25.5119 22.0953 25.5189 21.3731C25.5365 19.1872 25.5452 17.0031 25.5154 14.8172C25.4996 13.6158 25.1061 12.5386 23.9238 12.0175C22.7715 11.5086 21.6244 11.645 20.6284 12.4582C19.9187 13.0387 19.5392 13.7977 19.5445 14.742C19.5568 16.9558 19.5304 19.1715 19.5585 21.3853C19.5673 22.1268 19.3038 22.4643 18.5379 22.4346C17.7492 22.4031 16.9569 22.4171 16.1682 22.4311C15.5253 22.4433 15.181 22.1915 15.181 21.5112C15.1862 14.7804 15.1862 8.04966 15.1792 1.32062C15.1792 0.638626 15.513 0.385063 16.1559 0.395555C16.9464 0.409545 17.7369 0.416539 18.5256 0.393806C19.2705 0.371073 19.5831 0.698082 19.5779 1.43954C19.5603 3.5957 19.5726 5.75186 19.5726 7.90802C19.5761 8.22278 19.5761 8.5428 19.5761 9.05517Z" fill="#DEDFE4"/>
<path d="M63.1893 16.1027C63.1893 17.7552 63.1929 19.4077 63.1876 21.062C63.1841 22.3158 63.0752 22.4243 61.849 22.426C61.1463 22.4278 60.4437 22.4103 59.7428 22.4295C59.1086 22.447 58.8434 22.1042 58.7907 21.5324C58.7713 21.3296 58.7836 21.125 58.7836 20.9204C58.7836 14.5691 58.7836 8.21948 58.7836 1.86817C58.7836 0.484936 58.8767 0.395751 60.2926 0.394003C60.8776 0.394003 61.4661 0.42548 62.0475 0.387008C62.8907 0.331049 63.1981 0.719263 63.1929 1.52542C63.1753 4.52621 63.1858 7.52699 63.1876 10.5278C63.1876 10.8338 63.1876 11.1398 63.1876 11.4773C64.21 10.505 65.1006 9.55375 66.1019 8.7371C67.1682 7.86624 68.4751 7.53574 69.8506 7.43431C70.627 7.3766 70.9327 7.71061 70.9169 8.43807C70.9099 8.73011 70.9169 9.02039 70.9169 9.31243C70.9169 10.9492 70.9063 10.9177 69.3447 11.4371C68.8071 11.6155 68.2731 11.9267 67.848 12.301C66.7536 13.2645 66.7431 13.7646 67.6249 14.9205C69.1831 16.9613 70.7482 18.995 72.28 21.055C72.4803 21.3226 72.6296 21.765 72.5471 22.0553C72.4961 22.2371 71.9726 22.3648 71.6547 22.3788C70.75 22.4208 69.84 22.3683 68.9336 22.4033C68.2187 22.4313 67.7338 22.1742 67.3245 21.5761C66.0439 19.705 64.7141 17.8671 63.4037 16.017C63.3334 16.0432 63.2614 16.0729 63.1893 16.1027Z" fill="#DEDFE4"/>
<path d="M44.1593 9.9471C45.6823 8.57086 47.3634 7.87313 49.3274 7.91859C52.7283 7.99728 55.0963 10.1185 55.3492 13.6194C55.5407 16.2564 55.4353 18.9127 55.4529 21.562C55.4564 22.1811 55.1103 22.4416 54.5025 22.4311C53.7419 22.4172 52.9812 22.4102 52.2224 22.4329C51.5127 22.4539 51.2246 22.1409 51.2263 21.4379C51.2334 19.1383 51.2457 16.8388 51.1894 14.5392C51.1438 12.6856 50.146 11.7273 48.4297 11.7605C46.6327 11.7955 45.2748 13.1 45.273 14.7945C45.2713 16.9192 45.2783 19.0456 45.2695 21.1703C45.266 22.342 45.1782 22.4224 44.0363 22.4276C43.4215 22.4311 42.8067 22.3979 42.1936 22.4346C41.3539 22.4871 41.0307 22.0989 41.0377 21.2962C41.0535 19.3464 41.043 17.3949 41.043 15.445C41.043 13.4358 41.0395 11.4265 41.0465 9.41899C41.0482 8.9206 41.0377 8.40299 41.7175 8.27708C42.8857 8.06024 43.5023 8.26309 43.7869 8.98356C43.8993 9.27035 44.01 9.56063 44.1593 9.9471Z" fill="#DEDFE4"/>
<path d="M118.148 15.4259C118.056 19.5616 114.71 22.7862 110.618 22.683C106.362 22.5746 103.265 19.2451 103.369 14.8873C103.46 11.0296 106.949 7.8155 110.933 7.91868C114.986 8.02185 118.237 11.4056 118.148 15.4259ZM107.558 15.2318C107.55 17.318 109.03 18.9425 110.94 18.9391C112.828 18.9356 114.355 17.2655 114.343 15.2195C114.33 13.2872 112.879 11.7746 111.019 11.7519C109.023 11.7274 107.567 13.1928 107.558 15.2318Z" fill="#DEDFE4"/>
<path d="M123.816 9.9523C125.093 8.75968 126.555 8.07594 128.245 7.94828C131.828 7.67548 134.507 9.73371 134.904 13.413C135.198 16.1217 135.059 18.8795 135.092 21.6144C135.099 22.188 134.739 22.4346 134.175 22.4276C133.385 22.4189 132.594 22.4101 131.804 22.4311C131.126 22.4486 130.864 22.1338 130.869 21.4763C130.885 19.5824 130.88 17.6886 130.869 15.7947C130.866 15.2421 130.843 14.6878 130.78 14.1387C130.59 12.4967 129.343 11.5559 127.704 11.7919C125.958 12.0438 124.848 13.3116 124.848 15.0585C124.848 17.185 124.826 19.3131 124.858 21.4396C124.87 22.202 124.577 22.501 123.825 22.4556C123.212 22.4189 122.595 22.4503 121.982 22.4486C120.823 22.4433 120.69 22.3139 120.688 21.1213C120.684 17.2759 120.686 13.4287 120.686 9.58333C120.686 9.40845 120.69 9.23358 120.7 9.05871C120.733 8.53235 121.006 8.30502 121.549 8.28054C122.978 8.21583 122.977 8.19835 123.816 9.9523Z" fill="#DEDFE4"/>
<path d="M141.354 16.1306C141.289 17.7709 142.664 19.28 144.37 19.2538C145.29 19.2398 146.258 18.932 147.107 18.5455C147.797 18.229 148.233 18.2028 148.661 18.8358C148.791 19.0282 148.969 19.1856 149.123 19.3622C150.161 20.5461 150.147 20.6667 148.87 21.5428C146.227 23.3562 142.562 23.2601 140.006 21.312C137.543 19.4339 136.56 15.9505 137.621 12.8727C138.647 9.90167 141.501 7.92387 144.691 7.97459C148.512 8.03579 151.47 11.4755 150.994 15.2615C150.901 16.0029 150.488 16.1411 149.854 16.1376C147.337 16.1236 144.821 16.1323 142.304 16.1323C141.988 16.1306 141.668 16.1306 141.354 16.1306ZM146.892 13.525C146.581 11.9424 145.487 11.0383 144.148 11.1555C142.789 11.2744 141.756 12.2694 141.717 13.525C143.425 13.525 145.132 13.525 146.892 13.525Z" fill="#DEDFE4"/>
<path d="M3.24004 12.0035C2.36873 12.0035 1.61337 11.9982 0.858007 12.0052C0.278309 12.0105 -0.0150532 11.7412 0.00602673 11.1553C0.00778338 11.1256 0.00251341 11.0976 0.00427007 11.0679C0.0991297 10.1673 -0.123966 8.90475 0.378439 8.46582C0.928273 7.98492 2.15091 8.26297 3.23828 8.20176C3.23828 7.10707 3.23652 5.98615 3.23828 4.86697C3.24179 3.79676 3.428 3.61315 4.52064 3.60265C5.16534 3.59741 5.80827 3.59916 6.45297 3.6044C7.09766 3.60965 7.40859 3.91567 7.39805 4.58018C7.37873 5.74133 7.39278 6.90422 7.39278 8.21575C8.52583 8.21575 9.59739 8.24898 10.6654 8.20526C11.4753 8.17204 11.744 8.4973 11.73 9.28596C11.6738 12.3392 12.0813 11.9003 9.06161 11.9335C8.54164 11.9388 8.02166 11.9335 7.47886 11.9335C7.47886 13.5178 7.35062 15.034 7.51223 16.5204C7.69492 18.2079 8.78054 18.9109 10.56 18.7692C10.8499 18.7465 11.1432 18.6958 11.4208 18.6118C12.1656 18.3863 12.4432 18.6451 12.3799 19.4075C12.3325 19.9863 12.3149 20.5791 12.3834 21.1527C12.4994 22.1145 11.9812 22.431 11.152 22.5902C6.80606 23.4173 3.3349 20.5739 3.24355 16.078C3.2172 14.7699 3.24004 13.4601 3.24004 12.0035Z" fill="#DEDFE4"/>
<path d="M37.3151 15.347C37.3151 17.3283 37.3221 19.3096 37.3133 21.2909C37.3081 22.2964 37.1535 22.4398 36.1223 22.4485C35.4495 22.4537 34.775 22.4188 34.1039 22.4572C33.2502 22.5045 32.9533 22.0795 32.9586 21.2978C32.9691 19.6663 32.9621 18.0348 32.9621 16.4032C32.9621 14.1019 32.9568 11.8006 32.9656 9.49754C32.9691 8.43783 33.1448 8.26995 34.1724 8.2647C34.8751 8.25946 35.5777 8.28044 36.2787 8.25946C37.0252 8.23847 37.3309 8.57947 37.3221 9.31568C37.3028 11.3267 37.3151 13.3377 37.3151 15.347Z" fill="#DEDFE4"/>
<path d="M46.0798 34.4622C46.468 34.3363 46.7737 34.2384 47.0776 34.1405C47.1619 34.457 47.313 34.7735 47.3165 35.0918C47.3411 37.1885 47.3376 39.2869 47.3376 41.3836C47.3376 42.7389 46.8984 43.8598 45.5545 44.4159C44.2529 44.9545 42.6157 44.568 41.5564 43.4786C41.7215 43.2408 41.8937 42.9907 42.0939 42.7022C43.1023 43.4454 44.1194 44.0102 45.2911 43.3579C46.2151 42.8438 46.2115 41.8908 46.2414 40.873C44.23 41.7491 42.4734 41.6617 41.2999 39.6332C40.4427 38.1503 40.7114 36.0711 41.8287 34.9029C42.9143 33.7698 44.3284 33.6421 46.0798 34.4622ZM46.2045 37.7638C46.2045 37.3861 46.1624 37.0049 46.2133 36.6341C46.3468 35.6584 45.7302 35.2719 44.9608 35.0428C43.6328 34.6476 42.4136 35.4013 42.0465 36.8055C41.6407 38.3601 42.4716 39.9882 43.8278 40.2977C45.3227 40.6387 46.2045 39.9567 46.2045 38.4598C46.2045 38.2272 46.2045 37.9964 46.2045 37.7638Z" fill="#DEDFE4"/>
<path d="M52.7465 34.6127C54.4135 33.5425 55.6994 33.6194 56.8483 34.8925C57.5421 34.5882 58.1991 34.1773 58.9141 34.0129C60.6778 33.6089 61.839 34.3889 61.9971 36.1603C62.1323 37.6642 62.0638 39.1873 62.0339 40.7017C62.0304 40.8713 61.6896 41.1704 61.5122 41.1651C61.326 41.1599 61.0028 40.8713 60.9905 40.6895C60.9325 39.8483 60.9624 39.0002 60.9589 38.1556C60.9571 37.7184 60.9799 37.2795 60.9483 36.8441C60.8095 34.9869 59.5641 34.3784 57.969 35.3629C57.5053 35.6479 57.2927 35.9907 57.3243 36.5747C57.3946 37.8828 57.377 39.1961 57.3893 40.5058C57.3928 40.9046 57.3665 41.2823 56.8044 41.2753C56.2229 41.2683 56.2668 40.8643 56.2668 40.4796C56.2651 39.2555 56.2984 38.0297 56.251 36.8073C56.2247 36.1061 56.114 35.2492 55.32 35.0953C54.6718 34.9694 53.8971 35.1565 53.2664 35.4154C52.959 35.5413 52.7008 36.1411 52.678 36.5398C52.6042 37.8478 52.6498 39.1611 52.6498 40.4726C52.6498 40.8678 52.6516 41.2648 52.093 41.2665C51.5361 41.2665 51.5449 40.8836 51.5467 40.4796C51.5537 38.6137 51.5379 36.7496 51.5625 34.8837C51.566 34.6092 51.7504 34.3382 51.8523 34.0671C52.1123 34.2262 52.3723 34.3854 52.7465 34.6127Z" fill="#DEDFE4"/>
<path d="M1.30083 40.7314C0.896796 40.9115 0.59992 41.0444 0.303045 41.1773C0.202915 40.901 0.0184656 40.6247 0.016709 40.3467C-0.00437097 37.2899 -0.00964095 34.2314 0.0254923 31.1747C0.0290056 30.8896 0.276695 30.4384 0.51033 30.3615C0.991655 30.2024 1.14097 30.5766 1.13394 31.0295C1.11813 32.0752 1.12867 33.121 1.12867 34.2489C3.19099 33.7138 5.11629 33.5756 6.18259 35.835C6.94322 37.4473 6.53568 39.5125 5.33588 40.6037C4.21688 41.6215 2.96087 41.6337 1.30083 40.7314ZM5.36398 37.6449C5.36574 35.5097 3.66002 34.3556 1.66446 35.1757C1.43609 35.2701 1.16908 35.5971 1.15502 35.8315C1.09881 36.8143 1.10935 37.804 1.14624 38.7903C1.15678 39.0509 1.2938 39.3481 1.46595 39.5527C2.0597 40.2592 3.06803 40.5425 3.83042 40.268C4.72807 39.9427 5.36223 38.8585 5.36398 37.6449Z" fill="#DEDFE4"/>
<path d="M75.4076 40.6737C73.8565 41.6215 72.5671 41.6267 71.4358 40.6527C70.1675 39.5615 69.7582 37.4596 70.4995 35.8437C71.2777 34.1475 72.3738 33.775 75.5429 34.1877C75.5429 33.1682 75.5393 32.1592 75.5446 31.1519C75.5464 30.7375 75.5253 30.2951 76.1524 30.3283C76.7444 30.3598 76.6408 30.7987 76.6408 31.1607C76.6443 34.2139 76.6513 37.2672 76.6285 40.3187C76.6267 40.6072 76.4194 40.8958 76.307 41.1843C76.0365 41.0304 75.7677 40.8783 75.4076 40.6737ZM75.5393 37.3232C75.5393 36.9175 75.4972 36.5065 75.5481 36.106C75.6342 35.4433 75.3233 35.1548 74.7137 35.0411C73.6334 34.8417 72.5899 34.8242 71.8662 35.8175C71.095 36.879 71.0915 38.0384 71.6571 39.1873C72.1226 40.1316 73.015 40.5355 73.9689 40.3065C75.0932 40.0354 75.5376 39.4636 75.5393 38.278C75.5411 37.9614 75.5411 37.6432 75.5393 37.3232Z" fill="#DEDFE4"/>
<path d="M28.9935 34.2647C27.7937 35.2738 26.6676 36.2181 25.4766 37.2201C26.7168 38.4756 27.9272 39.7015 29.2394 41.0288C28.3804 41.2998 27.7954 41.3191 27.2596 40.7297C26.3444 39.7277 25.3888 38.7624 24.2909 37.6153C24.2909 38.717 24.3295 39.6071 24.2663 40.4902C24.2487 40.7367 23.9764 41.1022 23.7481 41.1704C23.272 41.3138 23.1895 40.9308 23.1895 40.5391C23.193 37.3652 23.1789 34.1931 23.214 31.0191C23.2158 30.7866 23.5215 30.4001 23.7393 30.3564C24.2891 30.248 24.2926 30.6974 24.2909 31.0978C24.2874 32.927 24.2891 34.7544 24.2891 36.8056C25.3133 35.947 26.2039 35.2213 27.0717 34.4693C27.6127 34.0042 28.1731 33.8748 28.9935 34.2647Z" fill="#DEDFE4"/>
<path d="M35.1383 5.31123C33.6328 5.32871 32.4418 4.17456 32.4365 2.6934C32.4313 1.19476 33.5819 0.0248724 35.0856 0.000390459C36.5945 -0.0240915 37.8031 1.10558 37.8383 2.57799C37.8751 4.07314 36.6701 5.29374 35.1383 5.31123Z" fill="#DEDFE4"/>
<path d="M84.3302 40.3729C82.7264 41.6197 80.6483 41.7002 79.3431 40.6055C77.9869 39.4671 77.6479 37.2217 78.5824 35.5622C79.3308 34.2332 80.8661 33.6159 82.4383 34.0111C83.7927 34.3504 84.7378 35.6077 84.7711 37.0416C84.7852 37.6344 84.6043 37.867 83.9754 37.8513C82.4295 37.8128 80.8819 37.839 79.3431 37.839C79.1446 39.5633 80.8485 40.7699 82.6052 40.2225C82.8265 40.1526 83.0566 40.0669 83.2411 39.934C83.8243 39.5108 84.1352 39.7311 84.3302 40.3729ZM83.6082 36.9454C83.4554 35.6252 82.5841 34.847 81.4019 34.9222C80.2232 34.9974 79.3343 35.8647 79.3466 36.9454C80.7642 36.9454 82.1836 36.9454 83.6082 36.9454Z" fill="#DEDFE4"/>
<path d="M90.2328 37.9266C90.1836 40.0932 92.0597 40.819 94.8475 39.6578C94.9968 39.8694 95.1567 40.0932 95.3095 40.3101C93.6864 41.7755 91.148 41.7073 89.8973 40.2174C88.5201 38.5789 88.7519 35.7879 90.4067 34.5603C91.5134 33.7384 92.7518 33.6842 93.9744 34.2648C95.1373 34.8174 95.6591 35.8106 95.696 37.089C95.7118 37.6415 95.5501 37.8654 94.9546 37.8531C93.4334 37.8217 91.9121 37.8531 90.3909 37.8619C90.3364 37.8601 90.2837 37.9039 90.2328 37.9266ZM90.2135 36.9403C91.6978 36.9403 93.1137 36.9403 94.5366 36.9403C94.3837 35.6795 93.6055 34.9328 92.4883 34.9188C91.3149 34.9048 90.3979 35.6987 90.2135 36.9403Z" fill="#DEDFE4"/>
<path d="M8.96923 35.3226C8.49142 34.7385 8.62493 34.3678 9.29422 34.2297C9.94945 34.095 10.6135 33.9551 11.2792 33.9359C12.804 33.8922 13.4259 34.3835 13.5243 35.8682C13.6297 37.4648 13.577 39.0701 13.5611 40.6719C13.5594 40.8415 13.2695 41.1685 13.2239 41.1511C12.9375 41.0356 12.6811 40.8433 12.3649 40.6439C10.9068 41.5095 9.72284 41.5952 8.83397 40.8415C8.11725 40.2347 7.86605 39.0229 8.26657 38.1118C8.79181 36.9227 9.91256 36.5764 12.3719 36.8405C12.6898 35.4013 12.1453 34.7683 10.7241 34.9624C10.148 35.0446 9.58231 35.1949 8.96923 35.3226ZM11.0983 37.6396C9.89148 37.6257 9.19233 38.1468 9.18706 39.0666C9.18355 39.85 9.70703 40.3781 10.4975 40.3851C11.6183 40.3939 12.465 39.7031 12.4755 38.7728C12.4861 37.7865 12.328 37.6554 11.0983 37.6396Z" fill="#DEDFE4"/>
<path d="M101.515 36.8545C101.688 35.2544 101.217 34.7648 99.743 34.9799C99.1984 35.0585 98.6626 35.2002 98.0899 35.3209C97.5682 34.7543 97.6947 34.387 98.4501 34.1999C98.5923 34.165 98.7311 34.1212 98.8752 34.0933C102.29 33.4462 102.687 34.5025 102.666 36.9856C102.656 38.0926 102.687 39.1995 102.648 40.3029C102.638 40.5967 102.436 40.8835 102.32 41.172C102.048 41.0216 101.775 40.8713 101.414 40.6719C100.347 41.3504 99.1106 41.8208 97.8545 40.7716C97.122 40.1578 96.9095 38.8952 97.4031 38.0384C98.3605 36.3788 99.9432 36.6953 101.515 36.8545ZM101.614 38.7291C101.616 37.7953 101.428 37.6501 100.212 37.6396C99.028 37.6309 98.3007 38.1678 98.2849 39.0648C98.2726 39.7958 98.8523 40.3711 99.613 40.3851C100.751 40.4044 101.61 39.6926 101.614 38.7291Z" fill="#DEDFE4"/>
<path d="M67.6289 36.8581C67.8063 35.2546 67.3373 34.7649 65.8617 34.9765C65.3171 35.0552 64.7831 35.1951 64.1577 35.3245C64.0559 35.1007 63.9434 34.8541 63.7976 34.5341C65.0466 33.9063 66.2974 33.7577 67.5745 34.0532C68.3175 34.2246 68.6548 34.8838 68.6829 35.5763C68.7532 37.2901 68.7444 39.0055 68.7409 40.721C68.7409 40.8697 68.4897 41.1582 68.4422 41.1425C68.1542 41.0393 67.8907 40.8662 67.5253 40.6651C66.4274 41.3646 65.1643 41.835 63.9013 40.714C63.2214 40.1107 63.037 38.8796 63.5218 38.0438C64.4792 36.3912 66.0567 36.6833 67.6289 36.8581ZM67.7097 38.6995C67.7097 37.8147 67.4866 37.6503 66.2763 37.6415C65.1116 37.6328 64.3721 38.1994 64.3756 39.0965C64.3791 39.8327 64.9623 40.387 65.7317 40.387C66.8876 40.3853 67.7097 39.684 67.7097 38.6995Z" fill="#DEDFE4"/>
<path d="M34.5059 34.513C35.3789 34.3102 36.2063 33.9972 37.0495 33.9517C38.3846 33.88 39.2559 34.6162 39.3648 35.9452C39.493 37.5086 39.4631 39.0877 39.4421 40.6597C39.4403 40.8434 39.0837 41.1092 38.8501 41.1634C38.7306 41.1914 38.381 40.8381 38.3758 40.6493C38.3319 39.3972 38.3635 38.1434 38.3459 36.8913C38.3336 36.1201 38.2721 35.3419 37.3868 35.0132C36.6718 34.7474 35.2683 35.1391 34.8133 35.7581C34.6745 35.9452 34.6376 36.239 34.6341 36.4856C34.6165 37.7376 34.6288 38.9915 34.6236 40.2453C34.6218 40.7035 34.7202 41.263 34.0052 41.2613C33.3131 41.2613 33.4624 40.7122 33.4607 40.2995C33.4536 38.5228 33.4413 36.7444 33.4729 34.9677C33.4782 34.6669 33.6785 34.3714 33.7874 34.0724C34.0439 34.2297 34.3038 34.3889 34.5059 34.513Z" fill="#DEDFE4"/>
<path d="M16.4022 34.5198C17.2612 34.3135 18.0605 33.9969 18.8756 33.9497C20.2985 33.8675 21.1751 34.6317 21.2805 36.0464C21.3929 37.5538 21.3753 39.0717 21.3472 40.5843C21.3437 40.7942 20.9537 40.9953 20.7412 41.1999C20.5796 40.9813 20.2862 40.7662 20.2774 40.5424C20.2317 39.32 20.2792 38.0959 20.2458 36.8736C20.2247 36.1129 20.1632 35.3225 19.2656 35.0077C18.5102 34.7436 17.0504 35.1861 16.6359 35.8296C16.5059 36.0307 16.4742 36.321 16.4707 36.5711C16.4549 37.8231 16.469 39.0752 16.4602 40.329C16.4567 40.747 16.5779 41.2821 15.8805 41.2628C15.2498 41.2454 15.364 40.7557 15.364 40.3623C15.3605 38.5558 15.3465 36.7494 15.3781 34.9448C15.3834 34.6492 15.5871 34.3554 15.6995 34.0617C15.956 34.2295 16.2143 34.3974 16.4022 34.5198Z" fill="#DEDFE4"/>
<path d="M104.366 39.7696C105.077 39.9899 105.705 40.3152 106.344 40.3379C106.771 40.3537 107.387 40.0477 107.607 39.6927C107.93 39.168 107.47 38.7221 106.985 38.4458C106.377 38.0996 105.736 37.811 105.141 37.4456C104.245 36.8965 103.906 36.1428 104.12 35.3314C104.34 34.4972 105.077 33.9254 106.114 33.9429C106.739 33.9534 107.377 34.1108 107.976 34.3049C108.159 34.3643 108.229 34.763 108.352 35.0061C108.092 35.0796 107.827 35.2282 107.574 35.2072C107.059 35.1652 106.55 34.9502 106.044 34.9676C105.77 34.9781 105.334 35.2877 105.286 35.5255C105.227 35.8175 105.408 36.2757 105.645 36.482C106.007 36.7968 106.506 36.9542 106.945 37.185C107.254 37.3476 107.567 37.5068 107.865 37.6921C108.631 38.166 109.033 38.8305 108.835 39.7486C108.64 40.6527 108.004 41.2473 107.142 41.2735C106.277 41.2997 105.381 41.0724 104.538 40.8258C103.951 40.6562 103.909 40.1998 104.366 39.7696Z" fill="#DEDFE4"/>
<path d="M30.4682 37.5678C30.4682 36.6357 30.4296 35.7019 30.4928 34.7751C30.5104 34.518 30.8248 34.2819 31.0023 34.0371C31.2131 34.2819 31.6013 34.5215 31.6083 34.7698C31.6593 36.6899 31.6557 38.6117 31.6101 40.5318C31.6048 40.7609 31.2464 40.9795 31.0514 41.2033C30.8565 40.9812 30.5104 40.7679 30.4946 40.5353C30.4331 39.5491 30.4682 38.5575 30.4682 37.5678Z" fill="#DEDFE4"/>
<path d="M31.2022 30.3684C31.4218 30.6797 31.8399 31.0137 31.8082 31.297C31.7731 31.6047 31.3199 31.8671 31.0494 32.1486C30.7771 31.874 30.3274 31.6257 30.2817 31.3197C30.2413 31.0347 30.633 30.6884 30.8351 30.3702C30.958 30.3702 31.081 30.3702 31.2022 30.3684Z" fill="#DEDFE4"/>
</svg>
