<svg width="168" height="45" viewBox="0 0 168 45" fill="none" xmlns="http://www.w3.org/2000/svg">
<g clip-path="url(#clip0)">
<path d="M37.8965 44.9999C37.5396 44.9237 37.1808 44.8624 36.8294 44.7714C35.0154 44.2959 33.8233 43.1237 33.253 41.3533C32.6514 39.4845 32.6458 37.5841 33.2916 35.7209C34.0109 33.6477 35.5361 32.5647 37.6555 32.2898C38.728 32.1505 39.7914 32.2359 40.8456 32.5016C41.1915 32.5889 41.311 32.7523 41.2246 33.0923C41.1675 33.3189 41.1197 33.5474 41.0811 33.722C40.2532 33.618 39.4731 33.4471 38.6931 33.436C36.2094 33.3988 34.6383 34.74 34.2133 37.2367C33.9668 38.682 34.0625 40.1087 34.7192 41.4462C35.4257 42.884 36.6142 43.6271 38.1816 43.7646C39.1898 43.8537 40.1686 43.7033 41.1841 43.2909C41.1105 43.7218 41.0737 44.0897 40.9762 44.4407C40.9431 44.5559 40.7665 44.6767 40.634 44.7101C40.1686 44.8271 39.6921 44.9089 39.2211 45.0036C38.7796 44.9999 38.338 44.9999 37.8965 44.9999Z" fill="#DEDFE4"/>
<path d="M7.8088 11.9856C7.72969 13.7003 8.47295 15.0694 9.27508 16.4329C10.4985 18.5097 11.6888 20.6052 12.8681 22.7062C13.1827 23.2672 13.4016 23.884 13.6776 24.5026C14.1099 23.884 14.3657 23.1762 14.5036 22.4276C14.7778 20.9396 14.5165 19.5407 13.7659 18.233C12.6124 16.2174 11.4257 14.2223 10.3164 12.1825C9.23829 10.2023 9.27876 8.18672 10.3532 6.19716C10.3881 6.134 10.4323 6.07455 10.4433 6.05784C12.1984 9.79359 14.476 13.2451 16.4427 16.8731C16.715 17.3747 16.8953 17.9283 17.1308 18.4837C17.657 17.6979 17.944 16.8267 18.0359 15.8904C18.1702 14.5343 17.863 13.2786 17.1786 12.1008C16.0288 10.1187 14.8734 8.13842 13.7696 6.13214C12.7485 4.27819 12.7522 2.37038 13.6463 0.458842C13.7236 0.293511 13.8303 0.139325 13.9112 0C15.3168 3.16731 17.2338 6.01697 18.8786 9.01523C19.3256 9.83075 19.6678 10.6723 19.7543 11.5992C19.7819 11.9002 19.8886 12.0172 20.1756 12.1008C22.0981 12.6544 23.9231 13.4253 25.4612 14.7517C26.6331 15.7623 27.5106 16.9567 27.5989 18.5915C27.6597 19.7079 27.2991 20.6925 26.6515 21.573C25.6047 22.996 24.1752 23.9155 22.5948 24.6177C19.5077 25.9943 16.2551 26.429 12.9104 26.3231C10.1085 26.2339 7.39486 25.7193 4.83026 24.5341C3.54979 23.9434 2.37788 23.191 1.41569 22.1378C-0.455332 20.0943 -0.479248 17.5642 1.37521 15.5022C2.73663 13.9882 4.49174 13.1039 6.36644 12.4352C6.82086 12.2754 7.28632 12.1472 7.8088 11.9856Z" fill="#DEDFE4"/>
<path d="M122.821 11.8296C122.821 10.5441 122.843 9.28642 122.808 8.03064C122.797 7.61638 122.933 7.43804 123.316 7.3916C124.067 7.30058 124.817 7.20212 125.608 7.10181C125.608 13.2692 125.608 19.3252 125.608 25.4406C124.806 25.4406 124.019 25.4499 123.231 25.4276C123.15 25.4258 123.02 25.253 123.003 25.1453C122.941 24.757 122.917 24.3613 122.876 23.9675C122.821 23.9749 122.779 23.9675 122.768 23.9824C121.393 25.9032 119.491 26.0592 117.442 25.5205C115.628 25.0431 114.511 23.7557 113.935 22.0114C113.265 19.9884 113.247 17.9264 113.884 15.8923C114.632 13.4977 116.373 12.2438 118.757 11.8147C119.966 11.5973 121.182 11.5881 122.396 11.7943C122.523 11.8147 122.652 11.8147 122.821 11.8296ZM122.821 14.3727C121.745 14.1665 120.72 14.0142 119.668 14.1739C117.99 14.4284 116.978 15.4167 116.562 17.0384C116.257 18.2348 116.259 19.4497 116.548 20.6497C116.89 22.0727 117.685 23.0907 119.188 23.3545C120.378 23.5644 121.491 23.3118 122.514 22.6486C122.753 22.4925 122.832 22.3142 122.828 22.03C122.814 20.6813 122.821 19.3308 122.821 17.9821C122.821 16.7951 122.821 15.6099 122.821 14.3727Z" fill="#DEDFE4"/>
<path d="M43.532 10.3286C41.9406 9.79726 40.4283 9.49075 38.8719 9.58363C38.2813 9.61892 37.6632 9.72853 37.1241 9.96259C35.8713 10.505 35.4904 12.0506 36.3422 13.1299C36.6881 13.5683 37.1665 13.9454 37.6577 14.2129C38.5352 14.6866 39.4698 15.0544 40.3786 15.4668C41.5211 15.987 42.6103 16.5796 43.5356 17.4638C45.3625 19.21 45.4471 23.3749 42.395 24.9669C40.9251 25.7341 39.3484 25.8995 37.7294 25.8716C36.1748 25.8437 34.657 25.632 33.1981 25.0598C32.9185 24.9502 32.8026 24.8053 32.8596 24.4988C32.9939 23.7632 33.1117 23.0257 33.2312 22.3198C34.2265 22.5891 35.1059 22.8733 36.0056 23.0573C37.3394 23.3303 38.6898 23.4009 40.0236 23.0275C40.8883 22.7842 41.6076 22.3402 41.7842 21.3668C41.97 20.3506 41.6499 19.4682 40.776 18.9444C39.72 18.3109 38.5867 17.8094 37.4921 17.2446C36.7102 16.8397 35.8915 16.4867 35.1611 16.0019C33.3085 14.7665 32.7124 12.9516 33.0804 10.8153C33.4354 8.74397 34.8502 7.66281 36.7709 7.22626C39.1019 6.69497 41.4163 6.9086 43.6847 7.6238C43.8024 7.66095 43.9643 7.86529 43.9478 7.96746C43.8355 8.73282 43.6828 9.49818 43.532 10.3286Z" fill="#DEDFE4"/>
<path d="M139.712 22.3309C139.561 23.2133 139.434 23.9991 139.285 24.7812C139.267 24.8741 139.153 24.9874 139.059 25.0227C136.391 26.0184 133.722 26.1503 131.098 24.9056C129.864 24.3205 129.021 23.3043 128.556 22.017C127.757 19.8101 127.746 17.5642 128.512 15.3573C129.257 13.2098 130.857 12.0562 133.063 11.7348C134.075 11.5881 135.087 11.6085 136.086 11.85C138.231 12.3664 139.736 13.977 139.995 16.1988C140.12 17.2762 140.017 18.3815 140.032 19.4738C140.038 19.8194 139.881 19.8807 139.574 19.8807C136.87 19.8695 134.163 19.8751 131.457 19.8751C131.284 19.8751 131.113 19.8751 130.942 19.8751C130.925 21.4931 132.197 22.9235 133.885 23.2022C135.703 23.5031 137.453 23.191 139.158 22.552C139.309 22.4944 139.456 22.4331 139.712 22.3309ZM130.863 17.4304C130.929 17.4471 130.971 17.4676 131.014 17.4676C132.071 17.4713 133.127 17.4731 134.185 17.475C135.096 17.475 136.007 17.4843 136.916 17.462C137.033 17.4583 137.239 17.3004 137.247 17.2019C137.344 15.9721 136.544 14.7034 135.429 14.2761C133.12 13.3881 130.912 14.8966 130.863 17.4304Z" fill="#DEDFE4"/>
<path d="M96.5386 25.4203C95.6721 25.4203 94.8405 25.4203 93.9593 25.4203C93.9004 24.954 93.8416 24.497 93.7698 23.9342C92.9493 25.1416 91.8657 25.6915 90.5466 25.7602C87.6343 25.9126 85.5646 24.4172 84.7753 21.5861C84.2878 19.838 84.2804 18.0658 84.7293 16.314C85.3861 13.7412 87.1063 12.2829 89.6506 11.8334C91.8528 11.4451 94.0421 11.6309 96.1909 12.2588C96.4135 12.3238 96.5754 12.3814 96.5754 12.6916C96.5625 16.8583 96.5662 21.0251 96.5644 25.1918C96.5644 25.2494 96.5515 25.307 96.5386 25.4203ZM93.7109 18.3983C93.7109 17.1518 93.6999 15.9072 93.7183 14.6607C93.7238 14.3319 93.6079 14.2075 93.297 14.1982C92.6218 14.1777 91.9448 14.0997 91.2733 14.1239C89.2257 14.1982 87.9047 15.3425 87.4761 17.3636C87.2461 18.4541 87.2608 19.5482 87.5165 20.6275C87.8569 22.0691 88.6609 23.0964 90.1842 23.3564C91.2917 23.5459 92.344 23.3434 93.3172 22.7527C93.5969 22.5818 93.7257 22.3942 93.7201 22.0468C93.6962 20.83 93.7109 19.6132 93.7109 18.3983Z" fill="#DEDFE4"/>
<path d="M58.7058 25.4424C57.8964 25.4424 57.1329 25.4536 56.3712 25.4294C56.2755 25.4257 56.1228 25.2548 56.1026 25.1396C56.0345 24.7829 56.0161 24.417 55.9757 24.0287C55.9021 24.0677 55.8524 24.077 55.834 24.1068C54.5885 25.9644 52.0717 26.061 50.324 25.4424C48.3242 24.7346 47.2902 23.1742 46.8561 21.1828C46.4366 19.2545 46.466 17.3207 47.1927 15.4556C48.0243 13.3249 49.6819 12.2029 51.8473 11.8295C54.0513 11.4486 56.2369 11.6363 58.3876 12.2567C58.6304 12.3273 58.739 12.4295 58.739 12.71C58.7298 16.8452 58.7316 20.9822 58.7316 25.1173C58.7279 25.2046 58.7169 25.2919 58.7058 25.4424ZM55.9021 18.3852C55.9021 17.1405 55.8947 15.8959 55.9076 14.6513C55.9113 14.3577 55.8285 14.211 55.5231 14.2017C54.8185 14.1794 54.1138 14.0977 53.4129 14.1255C51.5382 14.2017 50.2265 15.216 49.75 16.964C49.3967 18.2588 49.4078 19.5759 49.7629 20.8707C50.129 22.2064 50.9476 23.1129 52.3477 23.3544C53.4883 23.5513 54.5627 23.3358 55.5562 22.7154C55.8082 22.5575 55.915 22.3847 55.9113 22.0745C55.891 20.8466 55.9021 19.6168 55.9021 18.3852Z" fill="#DEDFE4"/>
<path d="M64.6925 14.2278C64.6925 18.0416 64.6925 21.7142 64.6925 25.4128C63.7321 25.4128 62.8141 25.4128 61.8666 25.4128C61.8593 25.2401 61.8464 25.0952 61.8464 24.9503C61.8446 20.9173 61.8501 16.8824 61.8372 12.8495C61.8354 12.5132 61.9089 12.3498 62.2603 12.2773C64.3098 11.8538 66.3667 11.4841 68.4676 11.7293C69.2054 11.8147 69.9542 11.9596 70.6551 12.2049C72.2796 12.7752 73.1222 14.0086 73.2804 15.7084C73.3522 16.4738 73.3485 17.2465 73.3503 18.0175C73.3595 20.3005 73.354 22.5855 73.354 24.8685C73.354 25.0413 73.354 25.2159 73.354 25.411C72.3808 25.411 71.4628 25.411 70.4969 25.411C70.4969 25.2048 70.4969 25.032 70.4969 24.8574C70.4969 22.3217 70.5079 19.786 70.4932 17.2503C70.4822 15.0972 69.8272 14.3114 67.7814 14.1517C66.7824 14.0737 65.7669 14.1944 64.6925 14.2278Z" fill="#DEDFE4"/>
<path d="M111.13 25.4146C110.182 25.4146 109.277 25.4146 108.313 25.4146C108.313 25.214 108.313 25.0412 108.313 24.8685C108.313 22.2882 108.313 19.7097 108.313 17.1295C108.313 16.9808 108.318 16.8322 108.304 16.6855C108.146 14.9504 107.386 14.2296 105.487 14.1349C104.67 14.094 103.846 14.2055 103.026 14.2352C102.628 14.2501 102.499 14.4098 102.501 14.8315C102.521 17.9301 102.512 21.0287 102.512 24.1254C102.512 24.5378 102.512 24.9521 102.512 25.4016C101.565 25.4016 100.652 25.4016 99.7122 25.4016C99.7122 21.064 99.7122 16.7412 99.7122 12.3423C100.608 12.1788 101.51 11.9912 102.418 11.8537C104.232 11.5788 106.046 11.5212 107.844 11.9837C109.925 12.5187 111.104 13.9268 111.139 16.0929C111.188 19.1302 111.157 22.1711 111.159 25.2084C111.157 25.2697 111.142 25.3255 111.13 25.4146Z" fill="#DEDFE4"/>
<path d="M79.0445 12.1009C80.5825 12.1009 82.0341 12.1009 83.5721 12.1009C83.4912 12.9331 83.4157 13.717 83.3348 14.5418C81.8961 14.5418 80.5071 14.5418 79.0758 14.5418C79.0666 14.7425 79.0537 14.9022 79.0537 15.0601C79.0518 17.0311 79.0518 19.0039 79.0555 20.9749C79.0555 21.196 79.0776 21.4189 79.1089 21.6381C79.2487 22.6022 79.8834 23.2598 80.8456 23.2728C81.7011 23.284 82.5584 23.1521 83.482 23.0778C83.3881 23.7317 83.2906 24.4729 83.16 25.2085C83.1416 25.3107 82.9705 25.424 82.8491 25.4612C81.4619 25.8717 80.0655 25.9182 78.6857 25.4593C77.1459 24.9485 76.2609 23.6444 76.2242 21.7811C76.1837 19.7804 76.2058 17.7779 76.2058 15.7772C76.2039 13.182 76.2131 10.5887 76.1966 7.99357C76.1947 7.64248 76.2996 7.48643 76.6399 7.44185C77.4181 7.33782 78.1945 7.21336 79.0445 7.08704C79.0445 8.81838 79.0445 10.4253 79.0445 12.1009Z" fill="#DEDFE4"/>
<path d="M145.468 25.4129C144.497 25.4129 143.577 25.4129 142.593 25.4129C142.593 25.255 142.593 25.097 142.593 24.9391C142.593 20.9062 142.598 16.8732 142.584 12.8402C142.582 12.4687 142.696 12.3331 143.038 12.242C145.224 11.6587 147.442 11.551 149.683 11.7349C149.786 11.7442 149.961 11.9244 149.955 12.0154C149.915 12.7343 149.84 13.4514 149.771 14.1944C149.253 14.1647 148.815 14.1164 148.379 14.122C147.586 14.1294 146.795 14.1833 146.002 14.1889C145.593 14.1926 145.455 14.3282 145.459 14.7629C145.477 18.129 145.47 21.495 145.47 24.8593C145.468 25.0357 145.468 25.2085 145.468 25.4129Z" fill="#DEDFE4"/>
<path d="M80.7315 44.6991C80.3046 44.6991 79.9293 44.6991 79.5264 44.6991C79.5172 44.5579 79.5007 44.4279 79.5007 44.2997C79.4988 41.6302 79.5062 38.9626 79.4915 36.295C79.4896 35.9588 79.6 35.8288 79.9091 35.7638C81.4563 35.4312 83.0054 35.199 84.5784 35.5706C84.7918 35.6207 85.0291 35.669 85.1947 35.7972C85.581 36.0963 85.9232 36.0535 86.3537 35.8659C87.3398 35.4349 88.3922 35.3235 89.4629 35.4052C91.3928 35.5538 92.3954 36.4901 92.4838 38.4741C92.5739 40.5287 92.504 42.5925 92.504 44.688C92.1029 44.688 91.7184 44.688 91.2806 44.688C91.2806 44.5059 91.2806 44.3331 91.2806 44.1585C91.2806 42.4532 91.2898 40.7479 91.2732 39.0444C91.2695 38.6487 91.2162 38.2437 91.1113 37.8629C90.9586 37.3056 90.5815 36.9099 90.0351 36.7093C88.784 36.2467 87.5882 36.5068 86.374 36.9805C86.7695 38.1267 86.6334 39.2729 86.6462 40.406C86.6628 41.8272 86.6499 43.2464 86.6499 44.6954C86.2323 44.6954 85.857 44.6954 85.4173 44.6954C85.4173 44.5393 85.4173 44.3814 85.4173 44.2235C85.4173 42.4736 85.4173 40.7256 85.4155 38.9756C85.4155 38.7676 85.4118 38.5595 85.3934 38.3533C85.3087 37.3669 84.7955 36.7632 83.8425 36.5644C82.8895 36.3656 81.942 36.4994 80.9982 36.6629C80.7002 36.7149 80.7333 36.9192 80.7333 37.1273C80.7333 39.4698 80.7333 41.8123 80.7333 44.1548C80.7315 44.3276 80.7315 44.5003 80.7315 44.6991Z" fill="#DEDFE4"/>
<path d="M101.978 40.5843C99.7984 40.5843 97.6735 40.5843 95.5504 40.5843C95.532 42.7057 96.8695 43.785 98.5106 43.8407C99.5261 43.876 100.497 43.6903 101.412 43.2314C101.487 43.1924 101.572 43.1701 101.662 43.1348C101.669 43.1998 101.677 43.2444 101.68 43.2872C101.721 44.1472 101.25 44.5466 100.468 44.7268C99.4047 44.972 98.3431 45.0296 97.2835 44.7696C95.8852 44.4259 94.9562 43.5398 94.5349 42.1558C94.1007 40.731 94.1081 39.2857 94.5901 37.8758C95.0997 36.3841 96.1796 35.5519 97.7305 35.4107C99.2851 35.2695 100.681 35.5946 101.511 37.1011C102.098 38.1656 102.142 39.3285 101.978 40.5843ZM100.842 39.4548C100.79 38.3569 100.608 37.3649 99.6199 36.8058C98.6688 36.2671 97.6588 36.2875 96.7352 36.8764C95.8227 37.456 95.5762 38.4052 95.5063 39.4548C97.2945 39.4548 99.0331 39.4548 100.842 39.4548Z" fill="#DEDFE4"/>
<path d="M161.496 40.5751C161.39 42.403 162.703 43.8167 164.49 43.8334C165.029 43.839 165.577 43.7814 166.103 43.6699C166.613 43.5622 167.102 43.3486 167.595 43.1832C167.691 44.0303 167.516 44.3498 166.73 44.6173C165.485 45.0409 164.216 45.0706 162.961 44.6898C161.737 44.3183 160.909 43.4786 160.527 42.2563C160.058 40.7627 160.056 39.2468 160.595 37.7663C161.119 36.3303 162.19 35.5594 163.678 35.4201C164.239 35.368 164.832 35.4015 165.384 35.5222C166.905 35.8566 167.867 37.1384 167.989 38.9087C168.016 39.3211 167.985 39.7373 167.998 40.1534C168.007 40.4766 167.882 40.5862 167.555 40.5844C165.719 40.5714 163.881 40.5788 162.043 40.5788C161.868 40.5751 161.693 40.5751 161.496 40.5751ZM161.452 39.4493C163.27 39.4493 165.008 39.4493 166.741 39.4493C166.867 38.3979 166.447 37.3316 165.673 36.8597C164.731 36.2857 163.728 36.2802 162.784 36.8189C161.802 37.378 161.553 38.3682 161.452 39.4493Z" fill="#DEDFE4"/>
<path d="M141.173 44.701C140.777 44.701 140.43 44.701 140.054 44.701C140.036 44.5115 140.017 44.3295 139.995 44.1121C139.911 44.1493 139.857 44.1641 139.813 44.1939C137.273 45.8695 134.357 44.6936 133.72 41.7194C133.481 40.6049 133.503 39.4791 133.795 38.3738C134.219 36.7706 135.271 35.8102 136.875 35.5074C138.207 35.2566 139.535 35.3439 140.836 35.7508C141.018 35.8084 141.18 35.8455 141.18 36.1167C141.169 38.9608 141.173 41.8049 141.173 44.701ZM139.946 39.9082C139.946 38.946 139.938 37.9837 139.951 37.0214C139.955 36.7688 139.885 36.6369 139.622 36.6109C139.199 36.57 138.779 36.4827 138.356 36.4641C136.504 36.3861 135.273 37.3056 134.925 39.0296C134.75 39.8952 134.778 40.7609 134.967 41.6284C135.554 44.3127 138.327 44.3518 139.651 43.2464C139.804 43.1183 139.927 42.8638 139.933 42.6631C139.962 41.7455 139.946 40.8259 139.946 39.9082Z" fill="#DEDFE4"/>
<path d="M46.4421 44.935C44.0467 44.9369 42.4314 43.4303 42.2328 40.9968C42.1536 40.0308 42.1904 39.0723 42.5014 38.1416C43.0367 36.5384 44.3301 35.5018 46.0061 35.409C46.5874 35.3774 47.1927 35.3978 47.7557 35.5278C49.2955 35.8864 50.197 36.9341 50.5834 38.4444C50.8924 39.6611 50.8556 40.8853 50.4969 42.0872C49.9542 43.9096 48.4842 44.9332 46.4421 44.935ZM43.4139 40.1423C43.4562 40.538 43.4783 40.9392 43.5463 41.3312C43.8131 42.8619 44.7569 43.7071 46.3096 43.8316C47.6766 43.9412 48.8264 43.2186 49.2606 41.9238C49.6598 40.7386 49.6653 39.5292 49.2477 38.3496C48.5468 36.3749 45.8295 35.8028 44.3724 37.3075C43.6089 38.097 43.4488 39.0946 43.4139 40.1423Z" fill="#DEDFE4"/>
<path d="M112.31 32.4849C114.61 32.4849 116.882 32.4849 119.145 32.4849C119.158 32.522 119.167 32.535 119.167 32.548C119.162 33.6682 119.162 33.6682 118.072 33.6682C116.733 33.6682 115.396 33.6682 114.056 33.6682C113.896 33.6682 113.738 33.6682 113.547 33.6682C113.547 35.106 113.547 36.5048 113.547 37.9557C115.243 37.9557 116.926 37.9557 118.68 37.9557C118.643 38.3699 118.611 38.7303 118.576 39.1427C116.889 39.1427 115.234 39.1427 113.536 39.1427C113.536 41.0152 113.536 42.832 113.536 44.686C113.107 44.686 112.722 44.686 112.31 44.686C112.31 40.6196 112.31 36.5643 112.31 32.4849Z" fill="#DEDFE4"/>
<path d="M69.8715 35.6132C70.2762 35.6132 70.6405 35.6132 71.0544 35.6132C71.0618 35.7729 71.0747 35.929 71.0747 36.0831C71.0765 37.8479 71.071 39.6108 71.0802 41.3756C71.082 41.6988 71.117 42.0277 71.1869 42.3435C71.3874 43.237 72.0148 43.7646 72.9218 43.8519C73.8969 43.9466 74.7855 43.7348 75.5784 43.1311C75.7992 42.9621 75.8875 42.78 75.8856 42.4976C75.8746 40.3781 75.8948 38.2585 75.8672 36.1389C75.8617 35.6689 76.0052 35.5314 76.4376 35.589C76.6363 35.615 76.8423 35.5927 77.0778 35.5927C77.0778 38.6523 77.0778 41.6636 77.0778 44.699C76.708 44.699 76.3603 44.699 75.9758 44.699C75.9555 44.4872 75.9353 44.2736 75.9114 44.0209C75.8304 44.0618 75.7642 44.0822 75.7109 44.1212C74.4911 45.0371 73.1242 45.1207 71.7241 44.7417C70.4694 44.4017 69.9322 43.3856 69.8917 42.1911C69.8181 40.0177 69.8715 37.8386 69.8715 35.6132Z" fill="#DEDFE4"/>
<path d="M53.8655 44.7048C53.424 44.7048 53.0597 44.7048 52.666 44.7048C52.666 41.7585 52.666 38.8309 52.666 35.866C54.3236 35.4276 55.996 35.1638 57.7014 35.5781C59.0371 35.9013 59.8263 36.8023 59.8557 38.1547C59.9017 40.3189 59.8686 42.483 59.8686 44.6862C59.486 44.6862 59.1125 44.6862 58.6691 44.6862C58.6691 44.5302 58.6691 44.3593 58.6691 44.1865C58.6636 42.3326 58.6838 40.4786 58.6452 38.6265C58.6176 37.3355 57.9663 36.6908 56.7061 36.5255C55.7568 36.401 54.8332 36.5162 53.8692 36.7243C53.8655 39.3826 53.8655 42.0298 53.8655 44.7048Z" fill="#DEDFE4"/>
<path d="M124.527 35.864C126.19 35.4331 127.864 35.1674 129.571 35.5817C130.91 35.9068 131.689 36.8133 131.716 38.2066C131.76 40.354 131.727 42.5033 131.727 44.6879C131.337 44.6879 130.951 44.6879 130.519 44.6879C130.519 44.517 130.519 44.3573 130.519 44.1975C130.519 42.5368 130.519 40.876 130.519 39.2153C130.519 37.2034 129.915 36.5365 127.919 36.4771C127.196 36.4548 126.468 36.596 125.721 36.6647C125.721 39.388 125.721 42.0241 125.721 44.6917C125.316 44.6917 124.942 44.6917 124.527 44.6917C124.527 41.7658 124.527 38.827 124.527 35.864Z" fill="#DEDFE4"/>
<path d="M144.806 44.7009C144.366 44.7009 143.991 44.7009 143.59 44.7009C143.59 41.7565 143.59 38.8288 143.59 35.8696C145.255 35.4311 146.926 35.1692 148.631 35.576C149.957 35.8918 150.745 36.7724 150.782 38.1471C150.839 40.2796 150.804 42.416 150.806 44.5504C150.806 44.5913 150.784 44.6321 150.763 44.6972C150.405 44.6972 150.044 44.6972 149.619 44.6972C149.619 44.4984 149.621 44.3108 149.619 44.125C149.606 42.2581 149.626 40.3892 149.569 38.5242C149.532 37.3074 148.878 36.6944 147.671 36.529C146.707 36.3971 145.77 36.5104 144.804 36.7259C144.806 39.3787 144.806 42.0147 144.806 44.7009Z" fill="#DEDFE4"/>
<path d="M61.8944 43.1757C62.9431 43.6902 63.9715 43.9076 65.0459 43.8463C65.4083 43.8258 65.7836 43.7683 66.1203 43.6419C67.0383 43.2964 67.2812 42.1354 66.5508 41.4703C66.2252 41.175 65.7873 40.9836 65.3715 40.8127C64.7203 40.5452 64.0212 40.3892 63.3883 40.0901C62.1943 39.5253 61.7123 38.4591 61.9864 37.194C62.1483 36.4453 62.6156 35.9456 63.3 35.6967C64.7571 35.1654 66.2215 35.3345 67.6675 35.7747C67.7485 35.7989 67.8423 35.9661 67.8368 36.0627C67.8221 36.3246 67.7595 36.5847 67.7319 36.75C66.7642 36.6478 65.837 36.5271 64.9079 36.4621C64.5952 36.4398 64.2658 36.5271 63.9586 36.6181C63.4895 36.7574 63.1675 37.0639 63.1105 37.5878C63.0516 38.134 63.1896 38.6225 63.6845 38.8807C64.2272 39.165 64.8196 39.3563 65.3862 39.5978C65.94 39.8337 66.5159 40.0306 67.0291 40.3371C67.8809 40.8424 68.2287 41.6524 68.1422 42.6388C68.0557 43.6419 67.5148 44.3386 66.5802 44.6451C65.0257 45.1559 63.4803 45.0408 61.9864 44.372C61.8742 44.3218 61.7693 44.1156 61.7675 43.9782C61.7638 43.7311 61.8392 43.4859 61.8944 43.1757Z" fill="#DEDFE4"/>
<path d="M159.171 36.8672C158.297 36.5495 157.445 36.3842 156.543 36.5198C155.23 36.7186 154.367 37.4319 154.006 38.7211C153.721 39.7428 153.74 40.7757 154.058 41.7881C154.522 43.2668 155.912 44.0916 157.498 43.7962C158.092 43.6848 158.665 43.4507 159.233 43.278C159.171 44.465 159.263 44.4427 158.19 44.7455C156.198 45.3084 153.714 44.7529 152.884 42.2154C152.428 40.8221 152.454 39.4159 152.928 38.0264C153.162 37.3409 153.546 36.7334 154.135 36.3099C155.658 35.2157 157.323 35.1544 159.049 35.7098C159.15 35.7414 159.255 35.9402 159.259 36.0628C159.264 36.3266 159.204 36.5885 159.171 36.8672Z" fill="#DEDFE4"/>
<path d="M108.434 35.4999C108.392 35.8622 108.355 36.1687 108.313 36.5235C107.98 36.5068 107.663 36.4696 107.349 36.4808C106.793 36.4994 106.238 36.5607 105.682 36.5829C105.309 36.5978 105.206 36.7594 105.209 37.1365C105.228 39.479 105.218 41.8215 105.218 44.1641C105.218 44.3257 105.218 44.4873 105.218 44.6861C104.808 44.6861 104.424 44.6861 104.01 44.6861C104.002 44.5319 103.988 44.387 103.988 44.2421C103.986 41.6023 103.995 38.9626 103.977 36.3247C103.975 35.9532 104.096 35.8176 104.44 35.734C105.739 35.42 107.043 35.3272 108.434 35.4999Z" fill="#DEDFE4"/>
<path d="M122.076 35.6281C122.076 38.6542 122.076 41.658 122.076 44.6916C121.695 44.6916 121.32 44.6916 120.906 44.6916C120.906 41.6896 120.906 38.6746 120.906 35.6281C121.272 35.6281 121.647 35.6281 122.076 35.6281Z" fill="#DEDFE4"/>
<path d="M121.471 34.142C120.982 34.1383 120.671 33.8244 120.671 33.3376C120.671 32.8379 121.011 32.5036 121.508 32.5184C121.984 32.5314 122.291 32.8621 122.282 33.3507C122.273 33.8466 121.964 34.1476 121.471 34.142Z" fill="#DEDFE4"/>
</g>
<defs>
<clipPath id="clip0">
<rect width="168" height="45" fill="white"/>
</clipPath>
</defs>
</svg>
