<svg width="145" height="45" viewBox="0 0 145 45" fill="none" xmlns="http://www.w3.org/2000/svg">
<g clip-path="url(#clip0)">
<path d="M69.6318 41.2235H72.1844V41.5787H70.0339V42.4948H72.1003V42.8407H70.0339V44.1026H69.6318V41.2235Z" fill="#DEDFE4"/>
<path d="M73.1748 41.2235H75.8209V41.5787H73.5769V42.4387H75.7648V42.7752H73.5769V43.7474H75.9238V44.1026H73.1748V41.2235Z" fill="#DEDFE4"/>
<path d="M77.3826 41.5693V43.7566H78.2241C78.4282 43.7824 78.6354 43.7594 78.8289 43.6896C79.0223 43.6197 79.1964 43.5049 79.3368 43.3547C79.4904 43.1468 79.5695 42.8932 79.5612 42.6349C79.5685 42.489 79.5457 42.3432 79.4942 42.2065C79.4427 42.0699 79.3637 41.9452 79.262 41.8403C79.1458 41.7371 79.0091 41.6596 78.8609 41.6129C78.7126 41.5662 78.5562 41.5513 78.4018 41.5693H77.3826ZM76.9712 41.2234H78.4018C78.7961 41.19 79.189 41.3032 79.5051 41.5412C79.6587 41.6799 79.7801 41.8505 79.8608 42.0411C79.9416 42.2316 79.9797 42.4374 79.9726 42.6442C79.9825 43.0327 79.8379 43.4092 79.5706 43.6912C79.368 43.8518 79.1357 43.9708 78.887 44.0413C78.6382 44.1119 78.378 44.1327 78.1213 44.1025H76.9712V41.2234Z" fill="#DEDFE4"/>
<path d="M81.0293 41.2235H83.6848V41.5787H81.4314V42.4387H83.6193V42.7752H81.4314V43.7474H83.7876V44.1026H81.0293V41.2235Z" fill="#DEDFE4"/>
<path d="M85.2277 41.5695V42.6164H86.649C86.7709 42.6344 86.8954 42.6235 87.0124 42.5846C87.1293 42.5456 87.2355 42.4796 87.3222 42.392C87.3967 42.3 87.4335 42.183 87.4251 42.0649C87.4284 41.9546 87.3956 41.8462 87.3316 41.7564C87.2712 41.6774 87.1909 41.6158 87.0989 41.578C87.0068 41.5403 86.9064 41.5276 86.8079 41.5414L85.2277 41.5695ZM84.8257 41.2236H86.7799C87.0677 41.1986 87.3544 41.2819 87.584 41.4573C87.7001 41.5685 87.7815 41.7111 87.8182 41.8676C87.855 42.0241 87.8456 42.1879 87.7912 42.3393C87.7368 42.4906 87.6397 42.6229 87.5117 42.7202C87.3836 42.8175 87.2301 42.8756 87.0697 42.8875L88.1263 44.1027H87.5934L86.6583 42.9529H85.2371V44.1027H84.8257V41.2236Z" fill="#DEDFE4"/>
<path d="M90.3235 41.8498L90.258 41.7002V41.5974V41.7096L90.1832 41.8685L89.5755 43.0557H90.9967L90.3235 41.8498ZM90.0243 41.2235H90.4544L91.9224 44.1026H91.4549L91.1089 43.3922H89.3417L88.9958 44.1026H88.5376L90.0243 41.2235Z" fill="#DEDFE4"/>
<path d="M92.6802 41.2235H93.0822V43.7474H94.9897V44.1026H92.6802V41.2235Z" fill="#DEDFE4"/>
<path d="M100.908 43.3081C100.798 43.5428 100.623 43.7408 100.403 43.8783C100.05 44.0779 99.6491 44.178 99.2435 44.1681C98.0748 44.1681 97.5044 43.495 97.5044 42.6444C97.491 42.4249 97.5328 42.2056 97.6259 42.0064C97.719 41.8073 97.8604 41.6345 98.0374 41.504C98.3789 41.2414 98.8042 41.1118 99.2342 41.1394C99.6163 41.1323 99.9936 41.2257 100.328 41.4105C100.548 41.5494 100.728 41.7426 100.852 41.9713L100.412 42.0742C100.346 41.9283 100.239 41.8048 100.104 41.719C99.8445 41.5725 99.5506 41.4982 99.2529 41.504C98.5703 41.504 97.9345 41.8218 97.9345 42.635C97.9253 42.9346 98.0326 43.2261 98.2337 43.4483C98.5096 43.6623 98.8435 43.7884 99.1921 43.8101C99.5406 43.8318 99.8876 43.748 100.188 43.5698C100.311 43.4799 100.411 43.3612 100.478 43.2239L100.908 43.3081Z" fill="#DEDFE4"/>
<path d="M102.273 41.5695V42.6164H103.695C103.816 42.6344 103.941 42.6235 104.058 42.5846C104.175 42.5456 104.281 42.4796 104.368 42.392C104.433 42.3064 104.466 42.2005 104.461 42.0929C104.466 42.0155 104.452 41.938 104.422 41.8666C104.392 41.7952 104.346 41.7317 104.287 41.681C104.228 41.6304 104.158 41.594 104.083 41.5746C104.008 41.5553 103.929 41.5535 103.853 41.5695H102.273ZM101.918 41.2236H103.788C104.076 41.1986 104.363 41.2819 104.592 41.4573C104.708 41.5685 104.79 41.7111 104.826 41.8676C104.863 42.0241 104.854 42.1879 104.799 42.3393C104.745 42.4906 104.648 42.6229 104.52 42.7202C104.392 42.8175 104.238 42.8756 104.078 42.8875L105.134 44.1027H104.601L103.666 42.9529H102.283V44.1027H101.918V41.2236Z" fill="#DEDFE4"/>
<path d="M106.098 41.2235H108.753V41.5787H106.509V42.4387H108.688V42.7752H106.509V43.7474H108.856V44.1026H106.098V41.2235Z" fill="#DEDFE4"/>
<path d="M110.333 41.5694V43.7568H111.175C111.379 43.7834 111.586 43.7608 111.78 43.6908C111.973 43.6209 112.147 43.5057 112.287 43.3549C112.441 43.147 112.52 42.8934 112.512 42.6351C112.519 42.4892 112.496 42.3434 112.445 42.2067C112.393 42.07 112.314 41.9454 112.213 41.8405C112.098 41.7376 111.963 41.6601 111.816 41.6134C111.67 41.5666 111.515 41.5517 111.362 41.5694H110.333ZM109.931 41.2236H111.352C111.747 41.1884 112.14 41.3017 112.456 41.5414C112.613 41.678 112.737 41.848 112.819 42.0389C112.902 42.2297 112.941 42.4366 112.933 42.6444C112.938 43.0322 112.794 43.4072 112.531 43.6914C112.121 44.0147 111.6 44.1626 111.081 44.1027H109.931V41.2236Z" fill="#DEDFE4"/>
<path d="M114.363 41.2235H113.942V44.0933H114.363V41.2235Z" fill="#DEDFE4"/>
<path d="M115.177 41.2235H117.926V41.5694H116.748V44.1026H116.346V41.5694H115.177V41.2235Z" fill="#DEDFE4"/>
<path d="M121.086 41.2235V42.9342C121.086 43.2613 121.086 43.4576 121.376 43.6165C121.611 43.7633 121.885 43.832 122.161 43.8128C122.395 43.8201 122.627 43.7787 122.844 43.6913C122.976 43.6313 123.085 43.5288 123.153 43.4002C123.221 43.2715 123.243 43.124 123.218 42.9809V41.2235H123.629V42.9996C123.647 43.1805 123.616 43.3629 123.538 43.5274C123.461 43.6919 123.341 43.8325 123.19 43.9344C122.878 44.1126 122.521 44.1969 122.161 44.1774C121.787 44.1959 121.416 44.1015 121.096 43.9063C120.944 43.7948 120.826 43.6451 120.752 43.4726C120.678 43.3001 120.651 43.111 120.675 42.9248V41.2235H121.086Z" fill="#DEDFE4"/>
<path d="M125.293 41.2235L127.229 43.28C127.338 43.3901 127.438 43.5089 127.528 43.6352C127.519 43.492 127.519 43.3484 127.528 43.2052V41.2235H127.921V44.1026H127.519L125.48 41.9433L125.256 41.6816C125.266 41.8465 125.266 42.012 125.256 42.177V44.1026H124.873V41.2235H125.293Z" fill="#DEDFE4"/>
<path d="M129.632 41.2235H129.211V44.0933H129.632V41.2235Z" fill="#DEDFE4"/>
<path d="M131.072 42.6724C131.065 42.9409 131.155 43.2029 131.325 43.4109C131.468 43.5553 131.64 43.6669 131.831 43.7379C132.021 43.8089 132.225 43.8377 132.428 43.8222C133.484 43.8222 133.746 43.1492 133.746 42.6631C133.746 41.9059 133.138 41.4853 132.353 41.504C132.191 41.4897 132.027 41.5093 131.873 41.5615C131.718 41.6137 131.577 41.6974 131.456 41.8072C131.336 41.917 131.239 42.0506 131.173 42.1995C131.107 42.3485 131.073 42.5095 131.072 42.6724V42.6724ZM134.158 42.6724C134.152 42.8866 134.101 43.0972 134.008 43.2905C133.916 43.4838 133.784 43.6556 133.621 43.7948C133.458 43.9339 133.267 44.0374 133.062 44.0985C132.856 44.1596 132.64 44.1769 132.428 44.1494C132.009 44.17 131.593 44.0588 131.24 43.8315C131.054 43.7027 130.903 43.5289 130.802 43.3263C130.7 43.1237 130.652 42.8988 130.661 42.6724C130.705 42.24 130.909 41.8395 131.232 41.5484C131.555 41.2572 131.974 41.0961 132.409 41.0961C132.844 41.0961 133.263 41.2572 133.586 41.5484C133.909 41.8395 134.113 42.24 134.158 42.6724" fill="#DEDFE4"/>
<path d="M135.626 41.2235L137.561 43.28C137.671 43.3923 137.774 43.5109 137.87 43.6352C137.857 43.4922 137.857 43.3483 137.87 43.2052V41.2235H138.263V44.1026H137.86L135.822 41.9433C135.719 41.8311 135.691 41.7844 135.607 41.6816C135.607 41.8872 135.607 41.9433 135.607 42.177V44.1026H135.214V41.2235H135.626Z" fill="#DEDFE4"/>
<path d="M140.413 15.0124L144.247 16.695L140.114 17.3961L139.702 21.5558L137.767 17.8447L133.671 18.7328L136.607 15.7509L134.494 12.1333L138.244 13.9935L141.03 10.8713L140.413 15.0124Z" fill="#DEDFE4"/>
<path d="M128.753 8.6L132.1 8.49718L129.361 10.4228L130.492 13.573L127.818 11.5632L125.172 13.6197L126.257 10.4509L123.479 8.56261L126.836 8.6187L127.762 5.40308L128.753 8.6Z" fill="#DEDFE4"/>
<path d="M138.066 2.49585L140.731 2.22476L138.646 3.9167L139.74 6.36581L137.486 4.90756L135.495 6.70233L136.177 4.113L133.858 2.76693L136.533 2.61737L137.094 0L138.066 2.49585Z" fill="#DEDFE4"/>
<path d="M103.423 29.3425C103.395 29.91 103.475 30.4776 103.657 31.0158C103.657 31.0158 100.272 31.2588 100.506 27.9123C100.852 22.9393 104.246 20.5089 108.379 20.5089C112.951 20.5089 115.41 22.8458 115.41 28.2114C115.41 34.3903 112.231 37.2507 107.462 37.2507C106.16 37.3198 104.864 37.0218 103.722 36.3907C102.88 35.8764 102.179 35.1598 101.684 34.3062C101.273 33.6238 100.824 32.8947 99.5427 33.6238C98.6677 34.0898 97.8216 34.608 97.0088 35.1755C97.0088 35.1755 97.5137 34.5025 97.9438 33.9977C98.6172 33.2282 99.3764 32.5382 100.207 31.9412C102.198 31.0064 103.367 31.8571 103.947 33.3807C104.639 35.1849 106.266 35.9981 108.407 35.9981C111.848 35.9981 112.334 32.4179 112.334 28.2582C112.334 23.7806 110.688 21.7615 107.35 21.7615C104.367 21.7615 103.46 24.6687 103.358 27.8282C103.315 28.3321 103.315 28.8386 103.358 29.3425" fill="#DEDFE4"/>
<path d="M13.6046 35.0259C12.9702 35.568 12.2843 36.047 11.5569 36.4561C10.1449 37.0471 8.62765 37.346 7.09685 37.3348C2.42172 37.3348 0 34.6613 0 29.3425C0 23.0701 3.6092 20.5649 7.81682 20.5649C10.5658 20.5649 13.24 21.266 13.24 23.0234C13.2231 23.2023 13.1656 23.375 13.0717 23.5282L12.0057 25.594H11.5756C11.4574 24.5093 10.9223 23.513 10.0831 22.8154C9.24396 22.1177 8.16649 21.7733 7.07815 21.8549C4.16087 21.8549 2.98274 24.3601 2.98274 28.4731C2.98274 32.9694 4.37593 35.8391 8.10668 35.8391C10.6829 35.7159 13.1104 34.5964 14.8763 32.717L14.9885 33.5583C14.5608 34.0899 14.0985 34.5926 13.6046 35.0633" fill="#DEDFE4"/>
<path d="M19.86 36.2318C21.8609 36.2318 22.4126 33.8201 22.4126 31.128C22.4126 27.903 21.5524 26.1269 19.2148 26.1269C17.3447 26.1269 16.6622 28.118 16.6622 30.5484C16.6622 34.1847 17.485 36.2318 19.86 36.2318V36.2318ZM14.0254 31.1093C14.0254 26.6037 16.8305 25.0426 19.7478 25.0426C23.0204 25.0426 25.0213 26.6037 25.0213 30.5765C25.0213 35.1755 22.9268 37.3162 19.1026 37.3162C15.6336 37.3162 14.0254 35.0727 14.0254 31.1093Z" fill="#DEDFE4"/>
<path d="M26.022 36.4562L26.957 36.1103C27.705 35.8767 27.7237 35.2223 27.7237 34.4278V27.7909C27.7237 27.0711 27.7237 26.6411 26.9851 26.4448L26.05 26.2298V25.697L29.7901 25.1174C29.9304 25.6222 30.0332 26.2952 30.3698 26.2952C30.5382 26.2952 30.8935 25.9867 31.3049 25.6502C31.7825 25.2954 32.3486 25.0787 32.9412 25.0239C33.7827 25.0239 34.5775 25.2389 34.5775 25.9587C34.5642 26.1113 34.523 26.2603 34.4559 26.398L33.8481 28.0432H33.4554C33.3646 27.6585 33.1374 27.3196 32.816 27.0893C32.4946 26.8591 32.1006 26.753 31.7069 26.7906C30.5756 26.7906 30.2109 27.2954 30.2109 28.4078V34.4651C30.2109 35.213 30.2109 35.914 30.9776 36.1477L32.0903 36.4936V37.0171H26.022V36.4562Z" fill="#DEDFE4"/>
<path d="M54.895 36.2318C56.8866 36.2318 57.4383 33.8201 57.4383 31.128C57.4383 27.903 56.5781 26.1269 54.2405 26.1269C52.3705 26.1269 51.6879 28.118 51.6879 30.5484C51.6879 34.1847 52.5107 36.2318 54.895 36.2318V36.2318ZM49.0698 31.1093C49.0698 26.6037 51.8749 25.0426 54.7922 25.0426C58.0648 25.0426 60.0657 26.6037 60.0657 30.5765C60.0657 35.1755 57.9713 37.3162 54.147 37.3162C50.6781 37.3162 49.0698 35.0727 49.0698 31.1093" fill="#DEDFE4"/>
<path d="M60.7769 36.4562L61.7119 36.1103C62.4506 35.8767 62.4786 35.2223 62.4786 34.4278V27.7909C62.4786 27.0711 62.4786 26.6411 61.7306 26.4448L60.7956 26.2298V25.697L64.5357 25.1174C64.6853 25.6222 64.7788 26.2952 65.1154 26.2952C65.4798 26.1377 65.8149 25.9196 66.1065 25.6502C66.5832 25.2937 67.1498 25.0768 67.7428 25.0239C68.5843 25.0239 69.3791 25.2389 69.3791 25.9587C69.3613 26.1105 69.3203 26.2587 69.2575 26.398L68.6311 28.0432H68.2571C68.1625 27.6587 67.9331 27.3208 67.6105 27.091C67.288 26.8611 66.8937 26.7546 66.4992 26.7906C65.3678 26.7906 65.0032 27.2954 65.0032 28.4078V34.4651C65.0032 35.213 65.0032 35.914 65.7792 36.1477L66.8826 36.4936V37.0171H60.7769V36.4562Z" fill="#DEDFE4"/>
<path d="M76.3545 31.829C76.3545 31.2775 76.3545 31.1092 75.9244 31.1092C73.5869 31.1092 72.0254 31.4925 72.0254 33.4181C72.0254 35.0259 72.7734 36.0635 74.1385 36.0635C76.3358 36.0635 76.3545 34.9044 76.3545 33.3153V31.829ZM76.5976 36.9983C76.5228 36.83 76.4574 36.6618 76.3826 36.5216C76.3078 36.3813 76.1862 36.2505 76.046 36.2505C75.7281 36.2505 75.4195 36.5216 74.9146 36.7833C74.2082 37.1512 73.4201 37.3345 72.6238 37.3161C72.192 37.3379 71.7605 37.2684 71.3574 37.1123C70.9542 36.9561 70.5886 36.7168 70.2842 36.4098C69.9798 36.1029 69.7436 35.7353 69.5909 35.3309C69.4382 34.9266 69.3724 34.4946 69.3979 34.0631C69.3979 31.614 71.8103 30.9129 73.2035 30.5484C74.765 30.1651 76.3545 30.4081 76.3545 29.4266C76.3545 27.3327 75.8777 26.4821 73.9048 26.4821C72.7922 26.5866 71.7555 27.0915 70.9875 27.903L70.6041 27.5197L71.9319 26.0988C72.7615 25.3778 73.8348 25 74.9333 25.0425C77.4392 25.0425 78.8137 25.7436 78.8137 28.7816V34.3903C78.8137 35.5214 78.8137 35.8392 79.5056 36.0729L80.4967 36.4187V36.9422L76.5976 36.9983Z" fill="#DEDFE4"/>
<path d="M86.2561 36.9048C85.702 37.1236 85.1195 37.2621 84.5263 37.3161C82.4973 37.3161 81.8708 36.5216 81.8708 34.3997V27.3515C81.8708 26.7065 81.7773 26.5382 81.2724 26.4167L80.2158 26.1736V25.6408L81.4407 25.3323C82.0391 25.1828 82.142 25.0613 82.3757 24.3976L83.1238 21.9672H83.8718L84.3299 24.5378C84.4234 25.0987 84.6198 25.2202 85.3398 25.3323L86.8826 25.6221V26.1736L85.3865 26.5102C84.5917 26.7065 84.3767 26.5102 84.3767 27.7347V33.3901C84.3767 35.2596 85.1154 36.4001 86.8358 35.942C87.2005 35.8486 88.8461 35.2223 88.9864 35.1755L89.164 35.7083L86.2561 36.9048Z" fill="#DEDFE4"/>
<path d="M94.3161 29.9782C94.9893 29.9782 95.1109 29.9034 95.1109 29.2771C95.1361 28.8856 95.0834 28.493 94.9557 28.122C94.828 27.751 94.6278 27.409 94.3669 27.116C94.1059 26.8229 93.7894 26.5846 93.4355 26.4148C93.0817 26.245 92.6977 26.1472 92.3058 26.127C90.763 26.127 90.043 27.7348 90.043 29.3239C90.043 29.9502 90.3516 29.9782 91.0528 29.9782H94.3161ZM95.6345 36.5216C94.6785 37.0725 93.586 37.3415 92.4834 37.2975C89.0425 37.2975 87.4062 34.9606 87.4062 30.8943C87.4062 27.0711 89.8654 25.0239 92.9416 25.0239C96.1955 25.0239 97.5606 26.8935 97.5606 29.7913C97.5606 30.511 97.5606 30.6326 97.2988 30.726C97.1907 30.8295 97.0603 30.9068 96.9177 30.9522C96.7751 30.9976 96.624 31.0097 96.476 30.9878H91.0154C90.389 30.9878 90.0804 30.9878 90.0804 31.6608C90.0804 33.5304 91.2305 35.7738 93.8205 35.8019C94.9609 35.8813 96.1001 35.6314 97.1025 35.0821L96.4573 35.7925C96.2136 36.0508 95.9406 36.2798 95.6438 36.4749" fill="#DEDFE4"/>
<path d="M125.349 29.5575C125.349 27.6319 125.013 26.3045 122.843 26.3045C121.16 26.3045 120.637 27.1271 120.637 28.4919V34.6333C120.637 35.5681 120.637 35.8579 121.357 36.1009L122.292 36.4094V36.9422H116.495V36.4561L117.43 36.1196C118.196 35.8766 118.196 35.6616 118.196 34.6801V27.7534C118.196 26.7625 118.196 26.641 117.43 26.398L116.495 26.1175V25.6595L120.235 25.0799C120.356 25.538 120.45 26.0895 120.786 26.0895C121.366 26.0895 122.133 24.9865 123.965 24.9865C126.771 24.9865 127.771 26.0708 127.771 29.1742V34.6333C127.771 35.6148 127.771 35.8298 128.538 36.0729L129.473 36.4094V36.9422H123.676V36.4561L124.564 36.1476C125.284 35.8766 125.284 35.6429 125.284 34.6801L125.349 29.5575Z" fill="#DEDFE4"/>
<path d="M136.383 29.9128C137.056 29.9128 137.178 29.8474 137.178 29.2211C137.204 28.8293 137.152 28.4361 137.025 28.0645C136.898 27.693 136.698 27.3506 136.437 27.0572C136.175 26.7639 135.858 26.5256 135.504 26.3562C135.15 26.1869 134.765 26.0899 134.373 26.0709C132.83 26.0709 132.11 27.6787 132.11 29.2678C132.11 29.8941 132.428 29.9128 133.12 29.9128H136.383ZM137.711 36.4562C136.773 37.0512 135.666 37.3206 134.56 37.2227C131.119 37.2227 129.482 34.8951 129.482 30.8289C129.482 27.0056 131.932 24.9585 135.018 24.9585C138.262 24.9585 139.637 26.7813 139.637 29.7165C139.637 30.4456 139.59 30.5578 139.366 30.7074C139.261 30.8125 139.132 30.891 138.991 30.9366C138.849 30.9821 138.699 30.9932 138.552 30.9691H133.092C132.465 30.9691 132.101 30.9691 132.101 31.6421C132.101 33.5117 133.26 35.7832 135.841 35.7832C136.991 35.7406 138.107 35.3816 139.066 34.7456L139.31 35.2317L137.711 36.4562Z" fill="#DEDFE4"/>
<path d="M39.8789 33.493C39.8789 35.2411 40.2342 36.2319 42.2538 36.2319C44.5166 36.2319 45.0589 34.4745 45.0589 31.8291C45.0589 28.8659 44.5446 26.3701 42.1416 26.3701C39.9537 26.3701 39.8602 27.5946 39.8602 29.1089L39.8789 33.493ZM35.6899 44.4673L36.625 44.1027C37.373 43.8223 37.373 43.5792 37.373 42.4201V27.8844C37.373 26.8935 37.373 26.772 36.653 26.5383L35.718 26.2485V25.7157L39.4581 25.1362C39.5516 25.3605 39.6264 25.6222 39.7012 25.8092C39.776 25.9961 39.9163 26.127 40.0846 26.127C40.2529 26.127 40.711 25.8653 41.1879 25.5755C41.8021 25.2223 42.499 25.0384 43.2076 25.0427C46.5176 25.0427 47.6863 26.9683 47.6863 30.8476C47.6863 35.2971 45.2085 37.2976 41.9359 37.2976C41.6229 37.295 41.3104 37.27 41.0009 37.2228C40.711 37.2228 40.4492 37.176 40.2529 37.176C40.0565 37.176 39.8976 37.4658 39.8976 37.8678V42.4014C39.8976 43.6073 40.0659 43.869 40.8326 44.084L42.0855 44.4486V44.9814H35.6899V44.4673Z" fill="#DEDFE4"/>
</g>
<defs>
<clipPath id="clip0">
<rect width="144.247" height="45" fill="white"/>
</clipPath>
</defs>
</svg>
