<svg width="37" height="36" viewBox="0 0 37 36" fill="none" xmlns="http://www.w3.org/2000/svg"><path fill-rule="evenodd" clip-rule="evenodd" d="M19.5 17a5 5 0 0 0-5 5v5h-2v-5a7 7 0 0 1 7-7h4a7 7 0 0 1 7 7v13h-2V22a5 5 0 0 0-5-5h-4z" fill="#0A141E"/><path fill-rule="evenodd" clip-rule="evenodd" d="M8.76 30.694A16 16 0 0 0 18.5 34v2a18 18 0 0 1-9-33.588l1 1.732a16 16 0 0 0-1.74 26.55z" fill="#F22800"/><path fill-rule="evenodd" clip-rule="evenodd" d="M21.5 3a4 4 0 1 0 0 8 4 4 0 0 0 0-8zm-2.296-1.543a6 6 0 1 1 4.592 11.087 6 6 0 0 1-4.592-11.087z" fill="#0A141E"/></svg>