<svg width="37" height="36" viewBox="0 0 37 36" fill="none" xmlns="http://www.w3.org/2000/svg"><path fill-rule="evenodd" clip-rule="evenodd" d="M25.5 34a8 8 0 1 0 0-16 8 8 0 0 0 0 16zm0 2c5.523 0 10-4.477 10-10s-4.477-10-10-10-10 4.477-10 10 4.477 10 10 10z" fill="#0A141E"/><path fill-rule="evenodd" clip-rule="evenodd" d="M22.5 27a3 3 0 1 0 6 0h2a5 5 0 0 1-10 0h2z" fill="#0A141E"/><path fill-rule="evenodd" clip-rule="evenodd" d="M6.5 24a2 2 0 0 1-2-2V4a2 2 0 0 1 2-2h16a2 2 0 0 1 2 2v9h2V4a4 4 0 0 0-4-4h-16a4 4 0 0 0-4 4v18a4 4 0 0 0 4 4h6v-2h-6z" fill="#F22800"/><path fill-rule="evenodd" clip-rule="evenodd" d="M11.5 5h6a3 3 0 0 1 3 3v2a3 3 0 0 1-3 3h-6a3 3 0 0 1-3-3V8a3 3 0 0 1 3-3zm0 2h6a1 1 0 0 1 1 1v2a1 1 0 0 1-1 1h-6a1 1 0 0 1-1-1V8a1 1 0 0 1 1-1z" fill="#F22800"/></svg>