<svg width="37" height="36" viewBox="0 0 37 36" fill="none" xmlns="http://www.w3.org/2000/svg"><path d="M16 16a4 4 0 1 0 0 8 4 4 0 0 0 0-8zM31.427 9.23c4.077 6.207 3.386 14.626-2.072 20.084l1.415 1.414c6.241-6.242 6.94-15.926 2.099-22.94L31.427 9.23zM28.689 3.483C21.645-1.696 11.684-1.1 5.314 5.273l1.414 1.413C12.317 1.098 21.01.508 27.256 4.916l1.433-1.433z" fill="#0A141E"/><path d="M20 15 32.728 2.272l1.414 1.414-12.728 12.728L20 15z" fill="#F22800"/><path d="M15 4h2v5h-1.02v.036C9.934 9.046 5.036 13.951 5.036 20c0 6.055 4.909 10.964 10.964 10.964 6.055 0 10.964-4.909 10.964-10.964v-.02H27V19h5v2h-3.038a12.944 12.944 0 0 1-3.09 7.458l2.442 2.441-1.414 1.415-2.442-2.442A12.944 12.944 0 0 1 17 32.962V36h-2v-3.038a12.944 12.944 0 0 1-7.458-3.09L5.1 32.314l-1.415-1.415 2.442-2.44A12.944 12.944 0 0 1 3.038 21H0v-2h3.038a12.944 12.944 0 0 1 3.09-7.458L3.686 9.1 5.1 7.686l2.442 2.442A12.944 12.944 0 0 1 15 7.038V4z" fill="#F22800"/></svg>