<svg width="36" height="36" viewBox="0 0 36 36" fill="none" xmlns="http://www.w3.org/2000/svg"><path fill-rule="evenodd" clip-rule="evenodd" d="M5.5 31A3.5 3.5 0 0 0 2 34.5V36H0v-1.5A5.5 5.5 0 0 1 5.5 29h3a5.5 5.5 0 0 1 5.5 5.5V36h-2v-1.5A3.5 3.5 0 0 0 8.5 31h-3z" fill="#0A141E"/><path fill-rule="evenodd" clip-rule="evenodd" d="M7 21a2 2 0 1 0 0 4 2 2 0 0 0 0-4zm-1.53-1.695a4 4 0 1 1 3.061 7.391 4 4 0 0 1-3.062-7.392z" fill="#F22800"/><path fill-rule="evenodd" clip-rule="evenodd" d="M27.5 31a3.5 3.5 0 0 0-3.5 3.5V36h-2v-1.5a5.5 5.5 0 0 1 5.5-5.5h3a5.5 5.5 0 0 1 5.5 5.5V36h-2v-1.5a3.5 3.5 0 0 0-3.5-3.5h-3z" fill="#0A141E"/><path fill-rule="evenodd" clip-rule="evenodd" d="M29 21a2 2 0 1 0 0 4.001A2 2 0 0 0 29 21zm-1.53-1.695a4 4 0 1 1 3.06 7.39 4 4 0 0 1-3.06-7.39z" fill="#F22800"/><path fill-rule="evenodd" clip-rule="evenodd" d="M16.5 12a3.5 3.5 0 0 0-3.5 3.5V17h-2v-1.5a5.5 5.5 0 0 1 5.5-5.5h3a5.5 5.5 0 0 1 5.5 5.5V17h-2v-1.5a3.5 3.5 0 0 0-3.5-3.5h-3z" fill="#0A141E"/><path fill-rule="evenodd" clip-rule="evenodd" d="M18 2a2 2 0 1 0 0 4.001A2 2 0 0 0 18 2zM16.47.304a4 4 0 1 1 3.06 7.391 4 4 0 0 1-3.06-7.39z" fill="#F22800"/><path d="M18 21a2 2 0 1 0 0 4 2 2 0 0 0 0-4z" fill="#0A141E"/></svg>