<svg width="36" height="36" viewBox="0 0 36 36" fill="none" xmlns="http://www.w3.org/2000/svg"><path fill-rule="evenodd" clip-rule="evenodd" d="M0 6.345 18 1l18 5.345v1.468c0 10.005-5.222 19.304-13.818 24.607L18 35l-4.182-2.58C5.222 27.117 0 17.818 0 7.813V6.345zm18 26.327-3.122-1.926C6.867 25.804 2 17.137 2 7.813L18 3.06l16 4.752c0 9.324-4.867 17.991-12.878 22.933L18 32.672z" fill="#0A141E"/><path fill-rule="evenodd" clip-rule="evenodd" d="M18 9a4 4 0 0 0-1.67 7.636l.772.356-1.972 7.126c.76.57 1.791.882 2.87.882 1.079 0 2.11-.313 2.87-.882l-1.972-7.126.772-.356A4 4 0 0 0 18 9zm-6 4a6 6 0 1 1 9.262 5.036l1.625 5.873a1.468 1.468 0 0 1-.422 1.483C21.253 26.49 19.598 27 18 27s-3.253-.51-4.466-1.608a1.468 1.468 0 0 1-.421-1.483l1.625-5.873A5.995 5.995 0 0 1 12 13z" fill="#F22800"/></svg>