<svg width="37" height="36" viewBox="0 0 37 36" fill="none" xmlns="http://www.w3.org/2000/svg"><path fill-rule="evenodd" clip-rule="evenodd" d="M18.5 24a6 6 0 1 0 0-12 6 6 0 0 0 0 12zm0 2a8 8 0 1 0 0-16 8 8 0 0 0 0 16z" fill="#0A141E"/><path fill-rule="evenodd" clip-rule="evenodd" d="m14.12 0 3.38 3.75-3.38 3.75-1.428-1.393 1.2-1.33C7.592 5.028 2.457 10.792 2.457 18H.5C.5 9.783 6.41 2.983 13.906 2.739l-1.214-1.347L14.12 0zM22.88 36l-3.38-3.75 3.38-3.75 1.428 1.393-1.2 1.33c6.3-.252 11.435-6.016 11.435-13.223H36.5c0 8.217-5.91 15.017-13.406 15.261l1.214 1.347L22.88 36z" fill="#F22800"/></svg>