<svg width="37" height="36" viewBox="0 0 37 36" fill="none" xmlns="http://www.w3.org/2000/svg"><path fill-rule="evenodd" clip-rule="evenodd" d="M5.5 4a4 4 0 0 1 7.883-.963c1.486.128 2.878.587 3.97 1.428C18.69 5.495 19.5 7.04 19.5 9h-2c0-1.353-.533-2.308-1.367-2.95-.694-.535-1.646-.887-2.77-1.006A4.002 4.002 0 0 1 5.5 4zm4-2a2 2 0 1 0 0 4 2 2 0 0 0 0-4zM32.5 5a4 4 0 0 1 .963 7.883c-.128 1.486-.587 2.878-1.428 3.97C31.005 18.19 29.46 19 27.5 19v-2c1.353 0 2.308-.533 2.95-1.367.535-.694.887-1.646 1.006-2.77A4.002 4.002 0 0 1 32.5 5zm2 4a2 2 0 1 0-4 0 2 2 0 0 0 4 0zM31.5 32a4 4 0 0 1-7.883.963c-1.486-.128-2.878-.587-3.97-1.428C18.31 30.505 17.5 28.96 17.5 27h2c0 1.353.533 2.308 1.367 2.95.694.535 1.646.887 2.77 1.006A4.002 4.002 0 0 1 31.5 32zm-4 2a2 2 0 1 0 0-4 2 2 0 0 0 0 4zM4.5 31a4 4 0 0 1-.963-7.883c.128-1.486.587-2.878 1.428-3.97C5.995 17.81 7.54 17 9.5 17v2c-1.353 0-2.308.533-2.95 1.367-.535.694-.887 1.646-1.006 2.77A4.002 4.002 0 0 1 4.5 31zm-2-4a2 2 0 1 0 4 0 2 2 0 0 0-4 0z" fill="#F22800"/><path fill-rule="evenodd" clip-rule="evenodd" d="M22.5 13h-8a1 1 0 0 0-1 1v8a1 1 0 0 0 1 1h8a1 1 0 0 0 1-1v-8a1 1 0 0 0-1-1zm-8-2a3 3 0 0 0-3 3v8a3 3 0 0 0 3 3h8a3 3 0 0 0 3-3v-8a3 3 0 0 0-3-3h-8z" fill="#0A141E"/></svg>