<svg width="94" height="61" viewBox="0 0 94 61" fill="none" xmlns="http://www.w3.org/2000/svg"><path d="M42.56 43.715c-.102 0 .784-.445 1.176-.847.289-.297.392-.699.392-1.207V18.474c0-.402-.145-.699-.392-1.059-.247-.466-.928-.91-.99-1.059h9.443c4.103.106 8.845 1.483 8.825 6.12 0 3.092-2.433 5.675-4.887 6.226 2.866 0 7.36 2.752 7.443 7.347.042 4.553-3.36 7.666-10.061 7.666H42.56zm5.98-25.178v9.339h1.938c4.247 0 6.7-1.927 6.474-4.87-.289-3.748-3.216-4.51-6.577-4.617a7.586 7.586 0 0 0-1.835.149zm.041 22.764c0 .063 1.938.296 3.216.296 4.928.148 7.402-2.075 7.3-5.844-.063-3.388-2.805-5.717-6.124-5.717H48.58V41.3zM71.158 41.745c0 .509.185.826.454 1.229.288.36.927.72.927.72h-6.948c.062.042.784-.403 1.03-.826.248-.36.31-.7.31-1.123V18.474c0-.445-.103-.72-.31-1.101-.246-.466-.927-.974-.989-1.017h9.917c4.392 0 8.598 2.626 8.742 7.496.062 4.553-2.968 8.428-10.762 8.428h-2.371v9.465zm9.092-17.744c-.144-3.897-2.474-5.485-5.731-5.633-2.186-.106-3.402.254-3.402.254V30.29h2.7c4 0 6.537-2.838 6.433-6.29zM91.652 41.682c0 .508.186.868.454 1.27.288.36.928.805.948.763h-6.969c.062-.022.743-.466 1.031-.932.206-.36.31-.656.31-1.101V18.41c0-.465-.104-.72-.31-1.1-.247-.467-.928-.954-.99-.954h6.97c-.042 0-.681.403-.949.763-.289.402-.495.72-.495 1.27v23.293zM.83 10.364h38.947v40H.83v-40zM23.654 34.27c-.082-1.377-.082-1.377.289-1.694.062.084.103.148.165.232.66.763 1.32 1.546 2 2.287.144.149.37.212.577.318.103.042.227.063.289.148.618.805 1.505.91 2.37.784 1.258-.19 2.516-.509 3.753-.847 1.217-.318 1.279-.53.495-1.589a15.305 15.305 0 0 1-2.144-4.023c-.31-.847-.825-1.419-1.691-1.715-.64-.212-1.237-.55-1.876-.784-.289-.105-.64-.19-.928-.148-.495.085-.97.36-1.485.424-.391.042-.783-.106-1.175-.17a1.272 1.272 0 0 1-.041-.275c.35-.17.722-.339 1.072-.55.35-.212.784-.382.99-.7.453-.74.783-1.566 1.154-2.35.042-.105.104-.233.083-.317-.165-.487.206-.741.392-1.08.123-.233.288-.445.412-.699.289-.635.577-1.292.845-1.927.062.021.124.021.165.042-.103.487-.68.996-.103 1.313-.082.424-.144.741-.227 1.059-.165.572.104 1.313-.556 1.715-.02 0 0 .064 0 .127.082.021.185.064.37.106-.432.762-.845 1.482-1.277 2.224.433 0 1.505-.974 1.587-1.504.144-.847.227-1.715.371-2.54.206-1.208.454-2.415.701-3.622.062-.339.206-.677.268-1.037.083-.488-.123-.657-.598-.593-.412.063-.845.084-1.257.148-1.237.19-2.454.402-3.67.614a1.091 1.091 0 0 0-.516.19c-.577.466-1.134.953-1.69 1.44-.413.36-.825.72-.887 1.356a83.143 83.143 0 0 1-.227 2.244c-.062.53-.123 1.059-.185 1.61-.372-.53-.598-1.102-.846-1.652-.35-.762-.886-1.25-1.773-1.313-.99-.085-1.959-.254-2.948-.402a277.58 277.58 0 0 1-4.124-.657c-.289-.042-.474.021-.474.36 0 .339 0 .678.02 1.017.021 1.228.042 2.456.104 3.684.02.275.144.572.309.784.454.614.928 1.207 1.423 1.778.309.36.618.805 1.03.995.949.424 1.96.72 2.97 1.017.535.148 1.113.19 1.67.275-.268.254-.598.339-.805.55-.639.678-1.257 1.377-1.793 2.118-.392.53-.846 1.144-.949 1.758-.206 1.334.041 2.69.35 4.002.207.826.29 1.694.454 2.541.041.233.186.487.371.614.29.19.619.297.949.36.247.042.598.064.783-.063.392-.276.68-.7 1.052-1.038 1.113-1.038 2.185-2.118 3.34-3.092 1.216-1.122 1.423-2.392 1.072-3.854z" fill="#80858C"/><path d="M20.087 28.109c.557.296 1.114.677 1.712.868.309.106.721-.127 1.01-.212.02.402.062.847.041 1.313 0 .106-.165.19-.247.296-.165.212-.33.424-.536.7-.454-.742-1.093-1.102-1.897-1.038 0-.17-.02-.276-.02-.445.102 0 .205.021.308 0 .145-.042.35-.106.392-.233.041-.127-.02-.318-.103-.445-.206-.275-.433-.55-.66-.804zM26.149 34.355l-2.227-2.668.124-.254c.268 0 .536-.064.804 0 .35.064.66.36.598.699-.165.826.37 1.313.783 1.863.041.064.083.149.145.212-.104.042-.165.106-.227.148zM23.654 34.25c-.206.02-.433.042-.763.063-.165.127-.433.339-.742.572.041.02-.041-.022-.103-.064.268-.53.536-1.059.866-1.694.247.402.495.762.742 1.122 0 .021 0 0 0 0zM22.582 27.346c-.062-.677-.165-1.25.227-1.8.453.233.639.614.495.996-.103.296-.433.508-.722.804zM20.087 28.109c-.495-.318-1.134-.466-1.36-1.228.37.02.7.042.99.063.123.381.247.784.37 1.165zM19.242 25.758c.288.085.474.064.536.17.454.656.866 1.355 1.216 2.075a83.27 83.27 0 0 0-1.752-2.245zM21.902 32.979c-.124-.36-.268-.699.103-.932.062-.042.309.085.35.17.103.338-.02.614-.453.762zM21.881 24.678c.247.296.557.508.144.868-.309-.212-.494-.444-.144-.868zM18.5 26.923c-.31-.021-.619-.043-.949-.085 0-.085.02-.148.02-.233.351-.212.66-.148.929.318zM18.974 29.421c.227-.063.433-.127.66-.19.02.106.04.233.061.339-.226.02-.453.063-.68.084 0-.063-.02-.148-.041-.233z" fill="#80858C"/></svg>