<svg width="138" height="61" viewBox="0 0 138 61" fill="none" xmlns="http://www.w3.org/2000/svg"><path d="M124.217 49.464h-1.533c-.906-1.658-1.811-3.316-2.752-5.044v5.037h-1.359v-7.19c.251-.063.53-.021.802-.028.264-.007.529 0 .829 0 .864 1.595 1.735 3.198 2.606 4.793.069-1.595.055-3.184.069-4.78h1.338c.035.244.056 6.668 0 7.212zM131.526 49.457h-1.477c-.321-.752-.592-1.554-.892-2.348-.307-.808-.599-1.616-.906-2.425l-.906-2.41c.265-.063.502-.028.739-.035.244-.007.488 0 .766 0 .641 1.832 1.282 3.658 1.951 5.574.683-1.902 1.338-3.72 1.993-5.553h1.387c.014.007.028.014.028.02.006.008 0 .021 0 .035 0 .021 0 .05-.007.07-.892 2.348-1.784 4.71-2.676 7.072zM88.397 49.45h-1.261c-.007-.097-.021-.202-.035-.32-.37.278-.767.432-1.199.446-.57.02-1.135-.056-1.588-.446-.474-.418-.613-.969-.516-1.575.112-.683.558-1.094 1.178-1.338.369-.146.745-.237 1.15-.223.299.007.599 0 .905 0-.02-.132-.035-.237-.063-.334a.686.686 0 0 0-.522-.502c-.349-.084-.683-.049-1.024.049a1.928 1.928 0 0 0-.725.39c-.077.063-.16.133-.272.223-.034-.467-.062-.885-.097-1.296.815-.516 1.679-.69 2.599-.474.898.21 1.226.767 1.358 1.477.056.293.063.6.07.9.007.5 0 .996 0 1.497 0 .258 0 .509.007.767 0 .244.02.494.035.76zm-1.394-2.362c-.362-.083-.724-.007-1.087.056a1.672 1.672 0 0 0-.508.195.556.556 0 0 0-.049.913c.146.111.3.167.48.174.732.035 1.31-.474 1.164-1.338zM110.77 49.45c-.021-.09-.035-.174-.056-.272-.202.098-.376.203-.571.265-.69.216-1.359.174-2-.181-.892-.502-1.038-2.048-.119-2.731a2.845 2.845 0 0 1 1.54-.544c.356-.02.711-.007 1.087-.007-.028-.146-.035-.264-.077-.369a.676.676 0 0 0-.515-.467c-.335-.083-.662-.049-.99.042-.32.09-.592.25-.843.46-.048.042-.104.084-.195.153-.014-.111-.028-.181-.035-.258-.02-.264-.034-.53-.055-.794-.007-.132-.014-.244.125-.327.829-.481 1.707-.614 2.634-.342.697.202 1.059.718 1.184 1.4.049.272.07.551.07.83.007.801 0 1.602.007 2.404 0 .236.035.473.056.731-.411.007-.829.007-1.247.007zm-.119-2.369c-.55-.07-1.066-.007-1.561.223a.535.535 0 0 0-.32.53c.007.23.132.383.327.487.62.335 1.464-.104 1.547-.808.021-.132.007-.272.007-.432zM73.235 47.722v1.456c-.334.181-.71.3-1.094.349-.515.07-1.03.076-1.546-.056-.788-.209-1.352-.69-1.638-1.463a3.56 3.56 0 0 1-.048-2.404 2.363 2.363 0 0 1 2.25-1.637c.397 0 .78.028 1.15.202.466.216.78.564.989 1.024.286.62.32 1.289.334 1.986H70.15c.02.501.285.815.662 1.052.425.264.877.237 1.337.097.335-.104.655-.223.906-.48.042-.042.098-.07.181-.126zm-3.044-1.68c.41.064 1.79.05 2.02-.02-.014-.536-.48-.92-.982-.92-.544-.007-.969.384-1.038.94zM95.56 46.747a3.097 3.097 0 0 1 .41-1.498c.467-.802 1.178-1.213 2.09-1.282.614-.042 1.2.062 1.722.397.676.432 1.038 1.066 1.177 1.84.112.591.049 1.17-.195 1.72-.425.976-1.156 1.526-2.222 1.624-1.457.139-2.502-.802-2.822-1.895-.077-.286-.105-.6-.16-.906zm4.09.02c-.015-.417-.112-.808-.356-1.142-.502-.697-1.477-.669-1.979 0-.439.585-.425 1.63-.062 2.223.487.794 1.707.787 2.139-.056.167-.335.243-.676.257-1.024zM101.851 44.071h1.254c.014.126.021.251.035.39.627-.501 1.31-.592 2.049-.418.599.14.989.516 1.219 1.08.139.349.195.718.195 1.08.007 1.045.007 2.09.007 3.136 0 .035-.014.062-.021.111h-1.268c-.007-.063-.028-.14-.028-.216 0-.752.007-1.512-.007-2.264-.007-.349-.035-.69-.063-1.038a1.042 1.042 0 0 0-.069-.3c-.154-.39-.363-.543-.802-.53-.425.014-.759.21-.961.628-.181.376-.237.773-.244 1.177-.014.732-.007 1.463-.007 2.195v.355h-1.268c-.07-.237-.084-4.905-.021-5.386zM60.708 49.45h-1.303v-5.379h1.275c.007.126.02.244.035.39.55-.473 1.184-.578 1.84-.473.835.132 1.372.648 1.553 1.588.056.279.063.572.07.864.007.892 0 1.79 0 2.683v.327H62.86v-.348c0-.801.007-1.603 0-2.404 0-.265-.028-.53-.063-.794-.111-.767-.648-.941-1.296-.697-.376.14-.55.453-.648.808a3.99 3.99 0 0 0-.132.955c-.021.731-.007 1.463-.007 2.194-.007.091-.007.182-.007.286zM79.513 49.457H78.21v-5.379h1.261c.021.112.035.21.056.334.084-.048.153-.083.216-.118.62-.383 1.29-.425 1.965-.216.627.195.99.669 1.143 1.29.076.313.118.633.125.954.014.954.007 1.902.007 2.856 0 .09-.014.181-.02.272h-1.29v-.355c0-.613.007-1.233 0-1.847a23.518 23.518 0 0 0-.056-1.212 1.381 1.381 0 0 0-.097-.439c-.084-.223-.223-.397-.481-.453-.683-.16-1.184.216-1.373.801a2.94 2.94 0 0 0-.146.955c.007.732 0 1.463 0 2.195-.007.111-.007.223-.007.362zM91.205 44.057h1.031c.279 0 .279 0 .279.293v.864h-1.31v2.285c0 .084.007.16 0 .244-.042.585.467.85.996.572.119-.063.23-.147.39-.244v1.296c-.53.202-1.066.278-1.637.125-.648-.167-1.031-.704-1.06-1.373-.013-.362-.006-.717-.006-1.08v-1.79c-.362-.063-.718 0-1.108-.035-.007-.376-.014-.746.007-1.143h1.08c.042-.369 0-.724.028-1.1.418-.133.843-.265 1.31-.412v1.498zM68.4 48.112v1.262c-.537.202-1.08.271-1.645.111-.69-.195-1.024-.78-1.038-1.359-.014-.85-.007-1.693-.007-2.543v-.362h-1.1v-1.157h1.1V42.97c.44-.139.857-.271 1.29-.404.055.258.02.495.027.732.007.244 0 .48 0 .752h1.296c.007.21.014.39.014.572v.585c-.223.042-.439.014-.655.02-.209.008-.41 0-.648 0-.007.091-.014.168-.014.245v2.125c0 .09 0 .188.007.279.042.41.363.634.76.53.111-.029.209-.091.313-.14.098-.05.188-.09.3-.154zM113.257 41.751h1.24c.07.272.098 5.693.042 7.685-.209.077-.425.021-.641.035-.209.007-.418 0-.62 0-.063-.265-.077-7.225-.021-7.72zM58.158 49.464h-1.31c-.077-.265-.105-5.086-.042-7.197.223-.063.453-.021.676-.028.216-.007.439 0 .676 0v7.225zM75.75 49.457h-1.274c-.056-.258-.07-4.968-.014-5.386h1.191l.042.286c.014 0 .035.014.049.007a.152.152 0 0 0 .055-.035c.537-.432 1.136-.446 1.784-.258v1.254c-.111-.035-.209-.062-.3-.097-.543-.181-1.003.007-1.282.522-.188.356-.25.739-.257 1.136-.007.732 0 1.463 0 2.188.007.118.007.237.007.383zM94.633 49.457h-1.227c-.062-.258-.076-5.01-.014-5.379h1.227c.07.244.083 5.024.014 5.38zM135.177 49.457h-1.435v-1.49h1.456c.056.403.049 1.246-.021 1.49zM125.492 47.96h1.47c.014.494.007.982.007 1.49h-1.47c-.021-.48 0-.975-.007-1.49zM93.316 43.34v-1.394c.223-.014.453-.007.676-.007h.703v1.4h-1.38zM4.085 16.743c5.922 3.614 7.681 9.598 7.681 9.598.444-1.211.4-2.518.4-2.518-.104-5.783-2.08-9.319-4.685-9.946a2.6 2.6 0 0 0-.61-.078c-2.133 0-2.786 2.944-2.786 2.944zm8.744 7.107c-.079 1.323.122 2.996.122 2.996 3.875-2.979 5.008-7.778 5.008-7.778-.2-2.587-1.847-2.77-1.847-2.77-.052 0-.104-.008-.148-.008-2.909 0-3.057 6.166-3.135 7.56zm-8.16 2.464c4.667 2.012 6.897.183 6.897.183-2.447-6.28-7.333-9.066-7.908-9.345-4.886 1.933-3.632 7.16 1.01 9.162zm8.412.723s2.9 1.22 5.27-2.456c2.36-3.666-.262-5.33-.262-5.33s-.949 4.599-5.008 7.786zm.314 1.045c.505.375 3.275 2.613 4.599 8.057.392-.418 2.865-3.31.026-6.202-1.603-1.628-3.092-1.924-3.937-1.924-.348 0-.584.043-.688.07zm-9.572 2.23c-4.781 3.144-3.362 6.793-.026 8.43 0 0 4.843-2.777 7.9-10.259 0 0-.636-.314-1.82-.314-1.35 0-3.415.41-6.054 2.143zm9.189.322c.008 1.42-.253 7.77 2.795 7.752 0 0 1.594.252 1.96-2.064 0 0-1.437-5.906-4.537-8.074 0 0-.227.967-.218 2.386zm-8.727 8.588s.749 3.161 2.97 3.161c2.22 0 3.51-3.03 3.51-3.03s2.734-5.87 1.132-10.705c-2.57 7.16-7.612 10.574-7.612 10.574zM88.154 21.727c0-.44-.143-.797-.436-1.071-.292-.316-.646-.44-1.061-.44-.436 0-.79.144-1.062.44a1.257 1.257 0 0 0-.388.66c-.034.13-.048.267-.048.411 0 .42.15.776.436 1.072.272.295.626.44 1.062.44.415 0 .769-.124 1.061-.44a1.49 1.49 0 0 0 .436-1.072zM88.272 35.958c-.183-.357-.21-1.497-.21-2.933v-6.25c0-1.305.129-2.48-1.103-2.48-.402 0-1.17.289-2.076.77.477.315.66.954.66 2.335v5.653c0 1.627-.007 2.527-.21 2.912h2.94v-.007zM81.332 36.193c-1.163 0-1.994-.364-2.524-1.072-.361-.494-.552-1.394-.552-2.678v-6.36h-1.763v-1.395l1.763-.213.19-2.76 2.335-.173v2.954h2.886v1.587H80.78v6.449c0 1.223.51 1.82 1.484 1.82.612 0 1.232-.151 1.885-.494l.211 1.497c-1.055.563-2.076.838-3.029.838zM44.558 33.563c-.633.515-1.402.859-2.225.859-1.144 0-1.865-.495-1.865-1.71 0-1.8 1.674-2.995 4.09-2.357v3.208zm2.757 2.397c-.17-.645-.211-1.73-.211-2.63v-4.904c0-3.188-1.423-4.218-4.479-4.218-1.211 0-2.184.261-3.287.749l-.3 1.607c1.042-.556 2.267-.79 3.458-.79 2.164 0 2.055 1.71 2.055 3.359-2.967-.92-6.744.233-6.662 3.894.04 2.075 1.544 3.167 3.436 3.215 1.294.02 2.376-.495 3.267-1.415l.19 1.133h2.533zM72.674 35.958c.089-.234.095-.77.102-1.387.007-.474.007-1.045.007-1.718v-4.492c0-1.538-.47-2.246-1.593-2.246-.87 0-1.885.619-2.695 1.354v5.652c0 .646.014 1.243.034 1.738.028.488.062.872.116 1.106h-2.777c.11-.474.13-1.415.13-2.761v-5.845c0-1.436-.232-2.013-.66-2.288.986-.501 1.592-.748 2.041-.748.824 0 1.007.728 1.028 1.648.973-1.01 2.355-1.779 3.648-1.779 1.272 0 2.205.453 2.777 1.367.129.213.231.488.306.824.109.495.163 1.134.163 1.916v4.774c0 1.889.082 2.679.17 2.892h-2.797v-.007zM54.868 26.219c-.19-.021-.38-.021-.633-.021-.803 0-1.612.426-2.395 1.326v5.755c0 1.69.068 2.48.15 2.68h-2.777c.04-.18.068-.392.088-.647.041-.542.041-1.243.041-2.005v-5.948c0-1.305-.21-2.026-.66-2.287.796-.42 1.552-.75 2.042-.75.85 0 1.014.79 1.014 1.67.782-1.202 1.763-1.8 2.885-1.8.211 0 .422.021.613.062l-.368 1.965zM64.016 35.958c-.191-.42-.211-1.731-.211-2.63v-4.905c0-3.187-1.41-4.217-4.465-4.217-1.205 0-2.198.247-3.3.735l-.3 1.62c.395-.212.81-.377 1.245-.494a8.061 8.061 0 0 1 2.212-.295c2.164 0 2.055 1.71 2.055 3.359-2.967-.92-6.744.233-6.656 3.894.041 2.074 1.545 3.166 3.437 3.215 1.293.02 2.39-.495 3.28-1.416 0 0 .055.729.178 1.134h2.525zm-2.757-2.397c-.633.515-1.402.858-2.225.858-1.144 0-1.865-.494-1.865-1.71 0-1.8 1.674-2.995 4.09-2.356v3.208zM120.736 35.958c.088-.234.095-.77.102-1.387.007-.474.007-1.045.007-1.718v-4.492c0-1.538-.47-2.246-1.593-2.246-.871 0-1.885.619-2.695 1.354v5.652c0 .646.014 1.243.034 1.738.027.488.061.872.116 1.106h-2.777c.102-.474.122-1.415.122-2.761v-5.845c0-1.436-.231-2.013-.66-2.288.987-.501 1.593-.748 2.049-.748.823 0 1.007.728 1.027 1.648.974-1.01 2.355-1.779 3.648-1.779 1.273 0 2.205.453 2.777 1.367.129.213.232.488.306.824.109.495.164 1.134.164 1.916v4.774c0 1.889.081 2.679.17 2.892h-2.797v-.007zM112.07 35.958c-.19-.42-.211-1.731-.211-2.63v-4.905c0-3.187-1.409-4.217-4.464-4.217-1.205 0-2.45.26-3.458.735l-.163 1.62c.388-.212.81-.377 1.245-.494a8.23 8.23 0 0 1 2.24-.295c2.164 0 2.055 1.71 2.055 3.359-2.967-.92-6.745.233-6.663 3.894.041 2.074 1.552 3.166 3.437 3.215 1.293.02 2.389-.495 3.28-1.416 0 0 .055.729.177 1.134h2.525zm-2.756-2.397c-.64.515-1.402.858-2.226.858-1.143 0-1.864-.494-1.864-1.71 0-1.8 1.674-2.995 4.09-2.356v3.208zM35.633 21.981a10.517 10.517 0 0 0-3.968-.77c-1.735 0-3.103.62-4.246 1.821-1.144 1.223-1.715 2.782-1.715 4.664 0 2.053.51 3.702 1.551 4.904 1.021 1.202 2.355 1.82 4.186 1.82.953 0 1.742-.13 2.396-.385V29.99c0-.275-.007-.536-.014-.77h-2.137c-.027-.714-.123-1.47-.232-1.902l5.207.178c-.19.619-.211 1.381-.211 2.686v2.074c0 1.456.082 2.439.21 2.933-1.803.749-3.606 1.133-5.43 1.133-2.695 0-4.77-.748-6.275-2.245-1.484-1.498-2.348-3.503-2.348-6.072 0-2.59.926-4.712 2.58-6.36 1.633-1.628 3.797-2.439 6.485-2.439 2.308 0 3.145.296 4.37.728l-.409 2.047zM128.135 32.05v1.017c0 1.89.082 2.68.17 2.892h-2.803c.088-.234.095-.77.102-1.387.006-.474.006-1.044.006-1.718V22.299c0-1.381-.183-2.013-.66-2.336.912-.487 1.681-.769 2.076-.769 1.225 0 1.103 1.175 1.103 2.486v7.618l2.838-3.469c.279-.357.803-1.14.891-1.38h2.695c-.531.446-.782.7-1.381 1.449l-2.158 2.658 2.967 5.2c.456.796.987 1.558 1.559 2.197h-3.246c-.062-.282-.511-1.23-.701-1.593l-2.273-3.99-1.191 1.332v.35h.006zM97.813 23.525c0 .927-.286 1.683-.865 2.177-.551.502-1.15.618-2.307.618h-1.02v-4.98h1.292c.912 0 1.586.117 2.137.523.477.384.763.954.763 1.662zm4.035 7.645c0-1.828-1.055-3.174-2.715-3.813-.504-.192-1.055-.33-1.586-.33 1.729-.404 2.974-1.93 2.974-3.715 0-1.786-.987-2.823-2.327-3.345-.838-.33-1.661-.426-3.145-.426h-4.43c.286.831.38 1.971.38 3.668v10c0 1.044-.067 1.827-.244 2.748h3.716c2.11 0 2.715-.048 3.314-.192 2.26-.468 4.063-1.882 4.063-4.595zm-3.049-.021c0 1.14-.476 2.047-1.272 2.548-.579.378-1.225.474-2.403.474H93.62V28.19h1.293c1.416 0 2.042.171 2.689.577.741.446 1.197 1.27 1.197 2.383z" fill="#80858C"/></svg>