<svg width="121" height="61" viewBox="0 0 121 61" fill="none" xmlns="http://www.w3.org/2000/svg"><path d="M45.773 20.213c1.362 0 2.768.444 3.913 1.265l-.886 1.177c-.93-.644-1.751-1.043-2.94-1.043-2.075 0-3.697 1.31-3.697 3.264 0 1.909 1.622 3.263 3.697 3.263 1.232 0 2.075-.4 3.07-1.088l.886 1.177a6.96 6.96 0 0 1-4.086 1.31c-2.853 0-5.534-1.71-5.534-4.663.065-2.953 2.724-4.662 5.578-4.662zm6.075.177h4.757c2.205 0 4 .91 4 2.887 0 1.532-1.103 2.353-2.595 2.709l2.854 3.397h-2.206l-2.594-3.13H53.73v3.13h-1.88V20.39zm4.605 4.441c1.32 0 2.162-.577 2.162-1.532 0-.955-.8-1.488-2.205-1.488h-2.724v3.02h2.767zm6.378 1.932v-6.417h7.956v1.443h-6.075v2.176h5.578v1.399h-5.578v1.399c0 .777.389 1.177 1.102 1.177h5.146v1.443h-5.578c-1.622 0-2.551-.977-2.551-2.62zm6.032-8.948-1.449 1.576h-1.621l1.124-1.576h1.946zm4.475 2.575h3.956c3.394 0 5.664 1.799 5.664 4.485 0 2.687-2.27 4.508-5.664 4.508h-3.956V20.39zm4.064 7.55c2.119 0 3.567-1.222 3.567-3.065 0-1.842-1.448-3.064-3.567-3.064h-2.205v6.106h2.205v.023zM85.055 20.39h1.881v8.993h-1.88V20.39zM88.925 21.834V20.39h8.648v1.444H94.2v7.549h-1.86v-7.55h-3.415zM48.022 40.33h-4.843l-1.06 2.175h-1.923l4.54-8.992h1.924l4.54 8.992h-2.162l-1.016-2.176zm-.67-1.4L45.6 35.357l-1.75 3.575h3.502zm10.117-5.572c1.362 0 2.768.444 3.913 1.265l-.886 1.177c-.93-.644-1.751-1.044-2.94-1.044-2.075 0-3.697 1.31-3.697 3.22 0 1.91 1.448 3.264 3.61 3.264.973 0 1.881-.267 2.465-.689v-1.71h-2.637v-1.398h4.496v3.797c-1.06.777-2.55 1.399-4.432 1.399-3.307 0-5.49-1.999-5.49-4.663.064-2.909 2.745-4.618 5.598-4.618zm6.94.177h4.756c2.206 0 4 .91 4 2.887 0 1.532-1.103 2.353-2.594 2.708l2.853 3.398H71.22l-2.594-3.131h-2.357v3.13h-1.88v-8.992h.021zm4.583 4.44c1.32 0 2.162-.576 2.162-1.531s-.8-1.488-2.205-1.488h-2.724v3.02h2.767zM75.672 33.535h1.86v8.97h-1.86v-8.97zM85.315 33.358c1.362 0 2.767.444 3.913 1.265l-.886 1.177c-.93-.644-1.752-1.043-2.94-1.043-2.076 0-3.698 1.31-3.698 3.263 0 1.91 1.622 3.264 3.697 3.264 1.233 0 2.076-.4 3.07-1.088l.887 1.177a6.96 6.96 0 0 1-4.087 1.31c-2.853 0-5.534-1.71-5.534-4.663.108-2.953 2.767-4.662 5.578-4.662zm4.929 4.662c0-2.53 2.292-4.662 5.534-4.662 3.222 0 5.535 2.087 5.535 4.662 0 2.532-2.292 4.663-5.535 4.663-3.22-.044-5.534-2.131-5.534-4.663zm1.967 0c0 1.843 1.449 3.264 3.61 3.264 2.12 0 3.611-1.443 3.611-3.264 0-1.82-1.448-3.264-3.61-3.264s-3.61 1.444-3.61 3.264zM103.215 33.535h1.881v7.55h5.556v1.42h-7.437v-8.97zM111.971 39.908V33.49h7.956v1.443h-6.075v2.176h5.578v1.399h-5.578v1.399c0 .777.389 1.177 1.103 1.177h5.145v1.443h-5.578c-1.6-.022-2.551-.977-2.551-2.62zM24.227 34.01l3.935-2.11 2.897 6.195h-4.345s-.822 0-1.19-.733c-.324-.91-1.297-3.353-1.297-3.353zM31.967 40.048H.555v2.865h31.412v-2.865zM34.25 21.827s-4.95 2.909-6.096 3.33c-1.08.422-1.448-.155-1.6-.31-.302-.422-.778-1.91-.821-2.11.043 0 .302.045.93-.11.778-.223 7.545-4.086 7.588-4.086v3.286zM26.338 27.8l-3.264-7.372h-4.692l-6.615 12.678s3.264-.11 5.318-1.687c.52-.31 2.01-4.352 3.351-6.994l2.119 5.462 3.783-2.087z" fill="#80858C"/><path d="M22.576 29.865c-3.2 1.71-6.247 3.197-7.912 3.663-4.345 1.266-9.62 2.065-11.48.311-1.751-1.643 2.335-8.437 10.075-9.902 1.232-.267 2.01-.223 2.01-.223s-.519-2.33-.93-2.82c-.562-.732-1.145-.91-2.01-.732-1.708.11-8.842 2.065-11.674 8.17-1.557 3.509.519 6.995 1.859 7.994.627.466 4.691 4.196 14.096.422 9.253-3.708 17.576-9.481 17.576-9.481v-3.863c.043-.111-3.567 2.064-7.848 4.396l-3.762 2.065z" fill="#80858C"/></svg>