<svg width="121" height="60" viewBox="0 0 121 60" fill="none" xmlns="http://www.w3.org/2000/svg"><g clip-path="url(#clip0)"><path fill-rule="evenodd" clip-rule="evenodd" d="M101.201 23.634c.15-.975.975-1.7 1.962-1.712a1.887 1.887 0 0 1 1.824 1.712h-3.786zm6.735.7a4.633 4.633 0 0 0-4.698-4.686 5.187 5.187 0 0 0-5.149 5.323 5.212 5.212 0 0 0 1.462 3.76 5.172 5.172 0 0 0 3.699 1.563 5.34 5.34 0 0 0 3.712-1.362.39.39 0 0 0 .162-.313.434.434 0 0 0-.112-.325l-1.038-1.187c-.2-.2-.387-.15-.637 0a3.374 3.374 0 0 1-1.962.638 2.37 2.37 0 0 1-2.399-2.25h6.435a.52.52 0 0 0 .488-.424c.025-.25.037-.5.037-.738zm-15.87-4.724c-1.324 0-2.599.525-3.536 1.475l-.338-.938a.443.443 0 0 0-.424-.3h-.925a.545.545 0 0 0-.363.138.5.5 0 0 0-.15.362v9.172a.526.526 0 0 0 .5.487h1.862c.488 0 .638-.15.638-.487v-5.56a2.512 2.512 0 0 1 2.361-1.575c1.225 0 1.875.862 1.875 2.174v4.961c0 .275.225.487.487.487h2.074a.514.514 0 0 0 .488-.487v-4.848c-.063-2.662-1.35-5.073-4.536-5.073v.012h-.013zm-12.683 7.872a2.52 2.52 0 0 1-1.75-.8 2.546 2.546 0 0 1-.662-1.811 2.404 2.404 0 0 1 1.174-2.174 2.414 2.414 0 0 1 2.462 0 2.43 2.43 0 0 1 1.175 2.174 2.546 2.546 0 0 1-.662 1.812 2.397 2.397 0 0 1-1.737.8zm0-7.884a5.298 5.298 0 0 0-4.974 3.186 5.339 5.339 0 0 0 1.075 5.823 5.27 5.27 0 0 0 5.786 1.187 5.308 5.308 0 0 0 3.273-4.923c-.024-2.862-2.299-5.198-5.16-5.273zm-11.197 0a5.071 5.071 0 0 0-3.536 1.574 3.991 3.991 0 0 0-3.287-1.574c-1.274.025-2.499.55-3.386 1.474l-.387.425a5.401 5.401 0 0 0-4.374-2.274.488.488 0 0 0-.488.487v1.774a.445.445 0 0 0 .138.363c.1.1.225.137.35.137 1.424 0 2.562 1.325 2.562 2.812v4.698a.514.514 0 0 0 .487.487h2.062a.514.514 0 0 0 .487-.487v-5.56c.275-.95 1.15-1.6 2.137-1.575 1.287 0 1.862.862 1.862 2.174v4.986c0 .275.225.487.487.487h1.862a.514.514 0 0 0 .487-.487v-5.16c0-.425-.05-.988-.05-.988a2.501 2.501 0 0 1 2.137-1.087c1.287 0 1.862.862 1.862 2.174v5.049c0 .25.188.462.438.487h2.061a.49.49 0 0 0 .5-.488v-4.835c.013-2.662-1.162-5.073-4.41-5.073zm51.347.25h-2.012c-.3 0-.488.05-.588.3l-2.499 5.722h-.05l-2.561-5.723a.494.494 0 0 0-.425-.3h-2.262a.417.417 0 0 0-.413.188.442.442 0 0 0-.012.462l4.124 8.722-.6 1.275c-.15.312-.35.6-.587.862-1.225 1.224-3.199 1.324-3.337 1.324a.407.407 0 0 0-.287.125.367.367 0 0 0-.1.3v1.774c0 .425.15.55.637.588a6.52 6.52 0 0 0 5.061-2.075c.55-.55.975-1.2 1.287-1.911l5.061-11.046c.15-.25-.05-.587-.425-.587h-.012zm-84.112-.25a4.942 4.942 0 0 0-3.536 1.474l-.337-.937a.443.443 0 0 0-.425-.3h-.95a.454.454 0 0 0-.35.15.544.544 0 0 0-.137.362v9.172c.025.262.237.45.487.475h1.874c.488 0 .638-.15.638-.488v-5.572a2.508 2.508 0 0 1 2.349-1.575c1.225 0 1.862.862 1.862 2.174v4.986c0 .275.225.487.487.487h2.062a.514.514 0 0 0 .487-.487v-4.848c.013-2.662-1.262-5.073-4.51-5.073zm-18.356 0a4.395 4.395 0 0 0-2.65.837v-5.723a.518.518 0 0 0-.512-.487h-2.162a.514.514 0 0 0-.487.487v14.794a.514.514 0 0 0 .487.488h2.112c.388 0 .537-.2.537-.488v-5.372a2.204 2.204 0 0 1 2.212-1.775c1.225 0 2.012.887 2.012 2.262v4.886c0 .274.225.487.488.487h2.061a.514.514 0 0 0 .488-.488v-4.835c-.15-2.574-1.425-5.073-4.624-5.073h.038zm9.46.25h-2.113a.501.501 0 0 0-.35.15.544.544 0 0 0-.137.362v9.172a.514.514 0 0 0 .487.487h2.112a.536.536 0 0 0 .5-.487V20.36a.49.49 0 0 0-.5-.487v-.025zM8.841 27.182c-.412.125-.85.2-1.287.2-1.137 0-1.824-.862-1.824-2.324v-2.561H8.33a.488.488 0 0 0 .487-.488v-1.712a.445.445 0 0 0-.137-.362.48.48 0 0 0-.35-.137H5.743v-2.762a.477.477 0 0 0-.425-.487H3.244a.514.514 0 0 0-.487.487v2.812H.932a.47.47 0 0 0-.362.137c-.1.1-.138.238-.125.375v1.712c0 .275.225.487.487.487h1.825v2.512c0 3.348 2.011 5.148 4.673 5.148.512 0 1.025-.088 1.525-.25a.522.522 0 0 0 .35-.488v-1.936c.05-.3-.1-.425-.425-.35h-.038v-.013zm43.274 2.075-4.074-5.373a2.636 2.636 0 0 1 2.412-1.875.406.406 0 0 0 .35-.137.49.49 0 0 0 .137-.363v-1.761a.488.488 0 0 0-.487-.488c-2.012 0-3.586.987-5.01 3.112v-7.66a.514.514 0 0 0-.488-.487h-2.162a.536.536 0 0 0-.5.487v14.794a.514.514 0 0 0 .488.488h2.161a.514.514 0 0 0 .488-.488v-4.285l3.199 4.535a.75.75 0 0 0 .425.2h2.699a.415.415 0 0 0 .4-.225.464.464 0 0 0-.038-.474zM25.45 13.925a1.914 1.914 0 0 0-1.912 1.924 1.885 1.885 0 0 0 .55 1.375c.362.362.85.562 1.361.562 1.063 0 1.937-.85 1.975-1.924a1.99 1.99 0 0 0-.575-1.387c-.362-.375-.887-.55-1.4-.55zM.47 35.867c0-.138.1-.238.225-.25h.337c.138 0 .263.112.275.25v2.624a2.945 2.945 0 0 1 1.425-.325c1.537 0 2.424 1.174 2.424 2.674s-.987 2.711-2.3 2.711a2.208 2.208 0 0 1-1.624-.675l-.062.338c-.013.112-.1.212-.225.212H.707c-.137 0-.237-.112-.237-.25v-7.31zm2.262 6.947c.937 0 1.55-.95 1.55-1.95 0-.999-.588-1.936-1.713-1.936-.45.012-.887.125-1.287.325v2.724a2.01 2.01 0 0 0 1.45.837zm5.523-2.65c.375.013.737.063 1.1.163 0-.95-.113-1.412-.85-1.412a4.533 4.533 0 0 0-1.525.3c-.137.05-.2 0-.25-.137l-.1-.3c-.037-.15.038-.225.163-.275a4.764 4.764 0 0 1 1.774-.337c1.312 0 1.587.65 1.587 2.136v2.862c0 .137-.112.237-.237.25h-.213c-.137 0-.175-.075-.212-.188l-.1-.35c-.425.425-1 .663-1.587.663a1.522 1.522 0 0 1-1.162-.488c-.3-.325-.45-.75-.425-1.2-.025-.961.712-1.686 2.037-1.686zm-.325 2.65c.55 0 1.075-.25 1.412-.7v-1.05a2.51 2.51 0 0 0-1.087-.2c-.712 0-1.25.35-1.25 1.013-.012.25.075.5.25.674a.976.976 0 0 0 .675.263zm3.461-4.286a.268.268 0 0 1 .238-.25h.175c.05 0 .1.013.137.038a.154.154 0 0 1 .063.125l.112.387a2.617 2.617 0 0 1 1.712-.662c1.487 0 1.862.974 1.862 2.299v2.724a.269.269 0 0 1-.25.25h-.337c-.138 0-.238-.113-.238-.25v-2.837c0-.987-.337-1.437-1.087-1.437-.6.025-1.162.288-1.562.725v3.561a.269.269 0 0 1-.25.25h-.337c-.138 0-.238-.112-.238-.25v-4.673zm5.549-2.661c0-.138.112-.238.237-.25h.35c.137.012.237.112.237.25v4.36l2.137-1.799a.478.478 0 0 1 .313-.162h.624c.075 0 .138.05.175.112.025.075.013.15-.05.2l-2.374 1.974 2.562 2.55c.062.05.075.137.05.212-.025.075-.1.112-.188.112h-.662a.43.43 0 0 1-.262-.1l-2.325-2.486v2.349c0 .137-.112.237-.237.25h-.337c-.138 0-.238-.113-.238-.25v-7.322h-.012zm4.998.487c0-.163.05-.325.163-.438a.608.608 0 0 1 .424-.187.613.613 0 0 1 .025 1.224.619.619 0 0 1-.612-.6zm.213 2.174a.268.268 0 0 1 .237-.25h.337c.125.013.238.113.238.25v4.66a.268.268 0 0 1-.238.25h-.337c-.138 0-.238-.112-.238-.25v-4.66zm2.111 0a.268.268 0 0 1 .238-.25h.175c.05 0 .1.013.137.038a.154.154 0 0 1 .063.125l.112.387a2.618 2.618 0 0 1 1.712-.662c1.487 0 1.862.974 1.862 2.299v2.724a.269.269 0 0 1-.25.25h-.337c-.138 0-.238-.113-.238-.25v-2.837c0-.987-.337-1.437-1.087-1.437-.6.025-1.162.288-1.562.725v3.561a.269.269 0 0 1-.25.25h-.325c-.137 0-.237-.112-.237-.25v-4.673h-.013zm9.922 4.936c0 1.761-1.074 2.411-2.249 2.411a2.922 2.922 0 0 1-1.812-.675.231.231 0 0 1-.05-.3l.225-.324c.075-.125.212-.125.337 0 .35.325.8.525 1.287.55.813 0 1.437-.425 1.437-1.65v-.362c-.412.3-.912.45-1.424.462-1.412 0-2.437-1.2-2.437-2.699 0-1.5 1-2.686 2.4-2.686.55 0 1.1.187 1.537.524l.075-.237c.05-.1.112-.175.25-.175h.15c.137 0 .237.113.262.25l.012 4.91zm-2.137-.663c.463-.025.9-.175 1.288-.424v-2.824a1.887 1.887 0 0 0-1.363-.625c-1.024 0-1.662.912-1.662 1.924.026 1.112.75 1.95 1.737 1.95zm5.074-4.273a.268.268 0 0 1 .237-.25h.175c.1-.012.188.063.2.163l.113.387a2.114 2.114 0 0 1 1.587-.662 1.568 1.568 0 0 1 1.512.812c.5-.487 1.15-.775 1.837-.812 1.487 0 1.849.974 1.849 2.299v2.724c0 .137-.112.237-.237.25h-.338c-.137 0-.237-.113-.237-.25v-2.724c0-.962-.313-1.55-1.087-1.55a2.076 2.076 0 0 0-1.487.725c.05.288.075.575.062.862v2.724c0 .138-.112.238-.237.25h-.338c-.137 0-.237-.112-.25-.25v-2.749c0-.987-.325-1.55-1.162-1.55a1.71 1.71 0 0 0-1.374.726v3.56c0 .138-.113.238-.238.25h-.337c-.138 0-.238-.112-.238-.25v-4.685h-.012zm10.41 1.637c.374.012.736.062 1.099.162 0-.95-.113-1.412-.85-1.412a4.533 4.533 0 0 0-1.525.3c-.137.05-.2 0-.25-.137l-.112-.3c-.037-.15.038-.225.163-.275a4.747 4.747 0 0 1 1.762-.337c1.312 0 1.587.65 1.587 2.136v2.862c0 .137-.113.237-.238.25h-.212c-.138 0-.175-.075-.213-.188l-.1-.35a2.232 2.232 0 0 1-1.587.663 1.522 1.522 0 0 1-1.162-.488c-.3-.325-.45-.75-.425-1.2.013-.961.737-1.686 2.062-1.686zm-.326 2.649c.55 0 1.075-.263 1.412-.7v-1.05a2.543 2.543 0 0 0-1.087-.2c-.712 0-1.237.35-1.237 1.013-.012.25.075.5.25.674a.924.924 0 0 0 .662.263zm5.574-4.648c.487 0 .974.112 1.424.325v-2.624c0-.138.112-.238.237-.25h.313a.27.27 0 0 1 .262.25v7.322a.27.27 0 0 1-.262.25h-.2c-.113 0-.175-.088-.225-.213l-.063-.337a2.534 2.534 0 0 1-1.624.675c-1.287 0-2.3-1.237-2.3-2.712 0-1.474.9-2.686 2.438-2.686zm-.026 4.648a1.921 1.921 0 0 0 1.462-.825v-2.774a3.396 3.396 0 0 0-1.312-.287c-1.1 0-1.712.912-1.712 1.937 0 1.024.625 1.949 1.563 1.949zm5.724-4.648a2.281 2.281 0 0 1 1.662.662 2.31 2.31 0 0 1 .662 1.674c0 .1-.013.213-.025.313-.013.125-.113.225-.225.225h-3.736c.025.937.75 1.699 1.674 1.761.5 0 .987-.15 1.387-.424.175-.125.263-.163.388.025l.137.187c.1.15.15.212-.05.35-.55.387-1.2.6-1.874.587-1.55 0-2.487-1.224-2.487-2.699 0-1.462.937-2.661 2.487-2.661zm1.5 2.224a1.499 1.499 0 0 0-1.5-1.475c-.838 0-1.55.638-1.662 1.475h3.161zm6.272-2.224a2.28 2.28 0 0 1 1.662.662 2.31 2.31 0 0 1 .662 1.674v.313a.244.244 0 0 1-.237.225H64.6c.025.937.75 1.699 1.674 1.761.5 0 .987-.15 1.387-.424.175-.125.263-.163.388.025l.137.187c.1.15.15.212-.037.35-.55.387-1.213.6-1.875.587-1.562 0-2.499-1.224-2.499-2.699 0-1.462.912-2.661 2.474-2.661zm1.5 2.224a1.507 1.507 0 0 0-1.5-1.475c-.837 0-1.55.638-1.662 1.475h3.162zm3.886-.225c.375.012.737.062 1.1.162 0-.95-.113-1.412-.85-1.412a4.533 4.533 0 0 0-1.525.3c-.137.05-.2 0-.237-.137l-.1-.3c-.037-.15.038-.225.15-.275a4.764 4.764 0 0 1 1.775-.337c1.312 0 1.587.65 1.587 2.136v2.862c0 .137-.113.237-.238.25h-.212c-.138 0-.175-.075-.213-.188l-.1-.35a2.232 2.232 0 0 1-1.587.663 1.522 1.522 0 0 1-1.162-.488c-.3-.325-.462-.75-.425-1.2-.025-.961.713-1.686 2.037-1.686zm-.3 2.649c.55 0 1.075-.263 1.412-.7v-1.05a2.51 2.51 0 0 0-1.087-.2c-.712 0-1.237.35-1.237 1.013-.013.25.075.5.25.674a.924.924 0 0 0 .662.263zm3.162.112a.191.191 0 0 1-.038-.224l.163-.288c.062-.125.15-.162.3-.062.362.287.812.45 1.287.462.525 0 .874-.25.874-.65 0-.487-.4-.7-1.15-1.062-.674-.337-1.461-.7-1.461-1.587 0-.537.4-1.35 1.587-1.35a2.704 2.704 0 0 1 1.474.4c.05.038.088.1.1.163a.21.21 0 0 1-.05.187l-.112.213c-.038.062-.088.112-.163.125a.278.278 0 0 1-.2-.038 2.01 2.01 0 0 0-1.062-.3c-.562 0-.75.325-.75.563 0 .462.363.624.975.912.887.425 1.662.75 1.662 1.687 0 .812-.7 1.474-1.75 1.474-.6.013-1.212-.2-1.686-.625zm4.298-4.373c-.062-.162 0-.275.2-.275h.45c.1 0 .188.05.225.15l1.487 4.099 1.737-4.099a.247.247 0 0 1 .225-.15h.425c.2 0 .275.125.2.288l-3.212 7.372a.247.247 0 0 1-.225.15h-.4c-.2 0-.287-.138-.212-.313l.987-2.349-1.887-4.873z" fill="#80858C"/></g><defs><clipPath id="clip0"><path fill="#fff" transform="translate(.02)" d="M0 0h120v60H0z"/></clipPath></defs></svg>