<svg width="130" height="61" viewBox="0 0 130 61" fill="none" xmlns="http://www.w3.org/2000/svg"><path d="M6.972 32.233c-.287-.127-.605-.21-.851-.4-.77-.569-1.343-1.338-1.918-2.106-1.025-1.38-1.835-2.907-2.532-4.486-.605-1.369-1.138-2.77-1.374-4.264-.061-.39-.133-.769-.205-1.159-.01-.042-.061-.073-.092-.105v-3.159c.03-.031.082-.063.092-.105.072-.326.123-.674.216-.99.563-1.853 1.732-3.095 3.608-3.59.134-.042.257-.095.39-.148h2.563c.195.063.39.158.584.2 1.118.232 2.071.79 2.963 1.496a9.319 9.319 0 0 1 1.897 1.99c-.636.726-1.25 1.474-1.733 2.316-.574-1.116-1.332-2.095-2.122-3.053-.543-.653-1.2-1.18-1.896-1.622-.585-.368-1.23-.6-1.948-.59-1.467.01-2.194 1.022-2.338 2.285-.123 1.032.072 2.054.38 3.054.348 1.137.748 2.264 1.26 3.338.41.863.8 1.737 1.272 2.558C5.834 24.83 6.51 25.957 7.3 27c.328.432.676.843 1.025 1.264 0 .063.01.126.01.19v.842c-.03.179-.072.347-.102.526-.031.18-.072.348-.103.527-.04.21-.082.421-.133.632-.072.137-.133.284-.205.42-.277.285-.554.559-.82.833zM78.84 48.996c-.348-.274-.728-.506-.974-.916a3.247 3.247 0 0 1-.45-1.485c-.093-1.358.245-2.633 1.025-3.717.82-1.148 1.917-1.811 3.373-1.664.359.032.646.232.912.464.123.115.246.242.38.379.071-.737.071-.737.779-.737.174 0 .338 0 .512.01.01 0 .031.021.103.084-.451 2.454-.903 4.96-1.364 7.487h-1.22c.01-.232.02-.41.041-.6.02-.169.062-.327.051-.537-.512.59-1.168.916-1.825 1.232H78.84zm-.123-2.801c.041.231.062.547.144.842.164.59.646.99 1.128.895.564-.105 1.087-.368 1.456-.832a6.106 6.106 0 0 0 1.291-2.822c.052-.294.082-.6.031-.895-.092-.568-.482-.926-.984-1.137-.174-.074-.4-.137-.574-.095-.677.18-1.22.558-1.65 1.159-.606.853-.719 1.821-.842 2.885zM47.57 48.996a9.295 9.295 0 0 1-.327-.285c-.564-.505-.687-1.137-.523-1.863.113-.485.154-.98.236-1.464.143-.79.287-1.569.44-2.358.083-.453.206-.896.267-1.348.03-.264.113-.38.37-.369.307.01.614 0 .983 0-.061.348-.112.653-.174.958-.154.748-.307 1.496-.451 2.243-.072.38-.123.78-.225 1.148-.113.432-.154.874-.206 1.316-.061.6.42 1.158 1.21.916.256-.074.523-.232.718-.421 1.035-.958 1.65-2.17 1.958-3.548.185-.843.277-1.717.42-2.59h1.21c.031.231 0 .441-.061.684-.154.61-.216 1.242-.328 1.863-.123.664-.267 1.338-.38 2.001-.123.674-.215 1.348-.338 2.011-.051.316-.133.632-.195.969h-1.23c.113-.516.215-1.011.318-1.506l-.062-.031c-.174.2-.338.4-.512.6-.42.484-.954.79-1.559.969-.051.01-.102.063-.143.105H47.57zM26.861 48.996c-.43-.21-.83-.453-1.169-.822-.584-.631-.83-1.379-.881-2.221a5.076 5.076 0 0 1 .523-2.58c.553-1.127 1.435-1.895 2.634-2.138.923-.19 1.866-.073 2.574.664.41.421.687.958.82 1.548.082.368.113.747.103 1.126-.041 1.485-.534 2.79-1.672 3.749-.297.252-.697.379-1.045.558-.052.031-.093.073-.144.105-.584.01-1.158.01-1.743.01zm-.728-3.349c-.03.59.134 1.106.41 1.622.308.579 1.046.926 1.702.705.544-.179.861-.579 1.18-.99.41-.526.512-1.158.635-1.8.164-.832.051-1.59-.308-2.338-.235-.473-.8-.8-1.281-.694-.451.094-.882.252-1.23.6-.8.81-1.026 1.821-1.108 2.895zM67.973 48.995c-.051-.031-.092-.084-.143-.105-.595-.2-.974-.61-1.19-1.21-.297-.854-.287-1.727-.092-2.602.277-1.253.964-2.253 1.917-3.053.81-.684 1.774-.948 2.82-.821.635.073 1.25.758 1.302 1.474.061.863-.267 1.506-.964 2.01-.718.527-1.507.812-2.368.96-.482.083-.974.02-1.446.094a2.6 2.6 0 0 0 .175 1.537c.205.453.584.706 1.056.758.543.074 1.055-.115 1.548-.326.174-.074.348-.19.564-.305.153.284.307.558.471.852-.543.316-1.035.558-1.61.632-.03 0-.061.063-.092.095-.646.01-1.302.01-1.948.01zm-.01-4.232c.78.094 1.497-.074 2.174-.369a1.92 1.92 0 0 0 1.066-1.084c.112-.295.03-.548-.144-.77-.184-.23-.41-.441-.728-.378-.44.095-.84.284-1.179.61-.564.538-.953 1.17-1.189 1.99zM130 24.778c-.061.2-.154.39-.195.6-.113.674-.215 1.348-.328 2.022-.072.421-.164.832-.236 1.253-.123.705-.256 1.4-.379 2.106-.113.621-.205 1.242-.328 1.864-.123.663-.256 1.337-.39 2-.03.148-.071.295-.102.463h-1.835c.164-.831.348-1.653.492-2.474.123-.685.195-1.38.328-2.074.154-.822.338-1.632.492-2.443.123-.674.215-1.348.328-2.022l.308-1.81c.03-.19.184-.222.358-.212.493.011.995 0 1.487 0v.727zM55.363 48.995c-.257-.22-.626-.326-.718-.716-.041-.168-.092-.326-.103-.495-.05-.831.093-1.642.287-2.442.185-.78.288-1.57.431-2.359.041-.221.072-.432.123-.695-.277-.01-.523-.02-.78-.042-.214-.305.114-.58.042-.916h.923c.112-.6.225-1.18.338-1.758.43-.148.85-.285 1.302-.443.02.737-.277 1.422-.297 2.19h1.65l-.143.927h-1.682c-.082.316-.174.6-.225.895-.175.895-.349 1.8-.513 2.706-.072.4-.143.8-.205 1.211-.01.053 0 .105 0 .158-.02.705.328.98.995.81.225-.052.44-.126.697-.2.04.285.082.538.133.843-.215.105-.451.221-.697.337-.533-.01-1.046-.01-1.558-.01zM93.502 48.995c-.38-.19-.749-.39-1.128-.579.03-.41.297-.674.472-.979.39.19.758.4 1.158.558.533.21 1.015.01 1.446-.316a.592.592 0 0 0 .194-.347c.02-.422.072-.843-.276-1.211-.482-.506-.913-1.064-1.364-1.59-.83-.98-.759-2.675.738-3.159 1.015-.326 1.969-.21 2.86.442.01.4-.471.485-.502.906-.523-.38-1.035-.664-1.64-.537-.226.052-.42.252-.585.358-.164.621.103 1.032.42 1.421.431.506.862 1.011 1.282 1.527.318.41.523.916.482 1.41-.082 1.022-.615 1.728-1.62 2.002-.04.01-.061.063-.092.105-.615-.01-1.23-.01-1.845-.01zM30.86 28.874c.379-.327.707-.621 1.045-.906.708-.59 1.548-.621 2.39-.537a.954.954 0 0 1 .81.6c.235.569.337 1.127.194 1.748-.113.485-.154.98-.236 1.464a260.88 260.88 0 0 1-.533 2.748c-.072.348-.154.695-.236 1.074H32.5c.03-.263.051-.526.113-.79.195-.947.43-1.884.594-2.843.103-.62.298-1.242.226-1.895-.03-.284-.062-.526-.349-.684-.297-.169-.543-.095-.8.073-.512.327-.86.8-1.178 1.317-.574.926-.862 1.927-.974 3.011-.062.59-.216 1.169-.339 1.79H28.03c-.144-.326.061-.653.102-.98.093-.726.247-1.442.38-2.158.082-.42.174-.832.256-1.253.123-.684.236-1.38.359-2.063l.338-1.801c.134-.706.246-1.411.38-2.106.04-.21.092-.421.143-.642h1.815c-.267 1.632-.677 3.2-.943 4.833zM124.043 27.947c.062-.169.113-.295.164-.41h1.805c-.462 2.526-.913 5.032-1.364 7.538h-1.825c.041-.273.082-.516.123-.768-.389.242-.738.505-1.117.674-.626.273-1.282.305-1.958.126-.585-.148-.913-.59-1.128-1.085a3.77 3.77 0 0 1-.318-1.905 6.435 6.435 0 0 1 1.107-3.064 3.916 3.916 0 0 1 1.026-1.043c.522-.379 1.097-.6 1.763-.61.615-.011 1.189.094 1.722.547zm-.174 1.337c-.728-.758-1.558-.81-2.255-.147-1.097 1.042-1.426 2.358-1.139 3.832.144.727.913 1.085 1.518.695.348-.22.707-.516.912-.873.646-1.064.82-2.285.964-3.507zM97.028 34.275c-.758.769-1.691 1.032-2.716.906-.534-.063-.933-.38-1.23-.864a3.416 3.416 0 0 1-.493-2.01c.092-1.275.462-2.454 1.282-3.476.543-.663 1.179-1.168 1.978-1.358.8-.19 1.63-.179 2.348.453.052-.137.093-.253.154-.4h1.825c-.451 2.527-.913 5.033-1.364 7.539h-1.804c.03-.242.051-.474.082-.706.03-.052.072-.105.102-.168a1.023 1.023 0 0 1-.112-.105.837.837 0 0 1-.052.19zm.995-5.001c-.42-.548-1.159-.79-1.763-.474a2.773 2.773 0 0 0-1.323 1.485c-.164.442-.246.905-.338 1.379-.093.526-.031.98.123 1.442.174.527.758.938 1.363.622.41-.21.759-.516.974-.906.615-1.095.902-2.295.964-3.548zM86.314 35.086H84.47c.461-2.527.923-5.022 1.384-7.539h1.805c-.082.369-.154.727-.236 1.106.533-.358 1.004-.727 1.527-1 .605-.327 1.282-.295 1.928-.19.564.084.943.684.974 1.327.04.958-.154 1.884-.339 2.811-.123.632-.256 1.264-.39 1.895-.102.527-.215 1.064-.327 1.6H88.97c.082-.452.143-.884.236-1.315.194-.969.39-1.927.584-2.896.072-.347.154-.695.195-1.053.04-.295-.02-.59-.236-.81-.287-.295-.666-.285-1.035-.022-.78.558-1.22 1.38-1.59 2.243-.348.832-.45 1.738-.615 2.622-.051.379-.123.79-.195 1.221zM104.943 35.097c.093-.548.164-1.032.267-1.517.164-.81.338-1.621.502-2.442.103-.516.205-1.032.226-1.58.02-.558-.472-.99-1.056-.684-.41.21-.718.537-.974.895a6.911 6.911 0 0 0-1.128 2.411c-.123.463-.164.937-.246 1.41a50.31 50.31 0 0 0-.205 1.264c-.031.169-.123.243-.277.243h-1.579c.103-1.316.441-2.549.636-3.802.195-1.253.461-2.495.697-3.759h1.784c-.082.422-.154.811-.236 1.243.328-.274.615-.526.902-.769.472-.379 1.005-.59 1.61-.6.379-.01.769-.052 1.148.095.462.179.738.537.749 1.042.01.506.041 1.022-.011 1.527-.041.453-.164.906-.256 1.348-.154.768-.307 1.527-.451 2.295-.072.38-.133.769-.205 1.159-.041.189-.185.22-.349.22h-1.548zM62.908 35.097c.113-.58.206-1.074.298-1.58.123-.62.236-1.232.359-1.853.082-.431.184-.863.246-1.306.05-.336.082-.694.05-1.031-.04-.443-.501-.674-.911-.506-.482.2-.82.59-1.128 1a6.18 6.18 0 0 0-1.056 2.285c-.103.464-.195.927-.277 1.4-.082.432-.144.875-.205 1.317-.03.232-.154.284-.349.274-.471-.01-.953 0-1.435 0-.174-.4.03-.758.082-1.116.092-.727.246-1.443.38-2.159.081-.421.174-.832.245-1.253.123-.684.236-1.369.37-2.064.061-.326.133-.652.205-.99h1.701c.093.222.02.411-.05.632-.062.19-.073.39-.114.58.39-.295.749-.59 1.138-.864.77-.547 1.62-.59 2.492-.358.512.137.769.516.779 1.053.02.99-.041 1.948-.287 2.917-.277 1.084-.441 2.2-.636 3.306-.04.221-.123.305-.328.305-.492.01-.984.01-1.569.01zM76.431 24.588h4.962c-.072.421-.133.832-.205 1.222-.04.231-.215.22-.4.22h-2.666c-.266 1.085-.4 2.201-.655 3.36.512 0 .994.01 1.476.01h1.517c-.071.453-.123.864-.205 1.274-.04.19-.205.2-.369.2H77.21c-.256 1.411-.512 2.79-.769 4.191h-1.937c.656-3.485 1.291-6.96 1.927-10.477zM24.154 35.086h-1.917c.123-1.021.36-2 .523-3 .164-1.012.338-2.012.523-3.023.184-1 .39-1.99.584-3.011H21.12c-.031-.516.143-.98.205-1.464h7.535c-.092.485-.174.958-.266 1.453h-2.41c-.44 0-.42.01-.481.464-.062.442-.165.874-.236 1.305-.092.516-.174 1.043-.267 1.559-.082.431-.174.863-.256 1.295-.123.684-.246 1.38-.359 2.063-.072.39-.133.77-.205 1.159-.061.4-.143.79-.226 1.2zM19.992 14.132c.205-.02.36.085.472.242.328.453.636.917.656 1.527.01.221.092.442.092.664 0 .99-.276 1.927-.656 2.822-.39.926-.892 1.8-1.517 2.59-.738.937-1.569 1.79-2.655 2.337-.575.295-1.17.432-1.805.358-.461-.052-.8-.337-1.056-.716-.051-.073-.082-.147-.123-.22.03-.138.061-.285.102-.422.072-.242.134-.495.206-.737.102-.284.205-.558.307-.842l.123-.221c.031.02.072.031.072.063.113.516.236 1.032.318 1.547.061.422.256.738.594 1.043.195-.148.41-.263.585-.432.471-.431.779-.99 1.066-1.548.513-.979.902-2.021 1.19-3.085a12.75 12.75 0 0 0 .348-1.969c.072-.768-.164-1.495-.615-2.127.071-.105.143-.21.215-.305l.308-.221 1.23-.442c.205.02.369.063.543.094zM53.856 32.043c-.103.59.02 1.063.42 1.464.308.305.666.39 1.056.294.533-.136 1.035-.326 1.476-.737.216.38.41.737.615 1.096a4.859 4.859 0 0 1-2.214.99c-.543.094-1.138.105-1.671-.011-.759-.158-1.22-.78-1.435-1.506-.175-.61-.257-1.232-.154-1.916a5.855 5.855 0 0 1 1.056-2.601c.461-.653 1.056-1.106 1.784-1.422.645-.284 1.302-.347 1.968-.273.636.063 1.2.337 1.415 1.032.164.547.072 1.084-.195 1.59-.38.673-1.015 1.031-1.66 1.347-.462.221-.965.348-1.457.485-.317.084-.656.115-1.004.168zm.133-1.242c.03.031.062.063.103.094.379-.105.758-.179 1.117-.326.584-.232 1.158-.505 1.333-1.242.092-.411-.215-.843-.615-.727-.451.126-.892.326-1.149.758-.287.463-.533.958-.789 1.443zM60.837 42.952c.616-.727 1.17-1.327 1.99-1.59.533-.169 1.066-.19 1.599-.148.594.053 1.148.78 1.19 1.4.04.664-.144 1.296-.257 1.938-.144.853-.308 1.706-.472 2.559l-.246 1.253c-.03.168-.061.326-.102.516h-1.292c.082-.453.143-.885.236-1.306.194-.969.39-1.927.584-2.896.103-.484.185-.968.215-1.474.041-.737-.605-1.063-1.189-.905a2.242 2.242 0 0 0-.871.452c-.913.811-1.61 1.78-1.846 3.033-.143.748-.277 1.506-.41 2.253-.051.263-.092.537-.143.832H58.55c.205-1.137.39-2.274.595-3.401.225-1.221.482-2.432.707-3.654.216-1.116.41-2.242.615-3.359.031-.179 0-.463.103-.526.164-.105.42-.074.636-.095.184-.01.369 0 .605 0a340.077 340.077 0 0 1-.974 5.117zM84.869 48.89c.472-2.559.923-5.044 1.384-7.56h1.23c-.082.474-.153.937-.256 1.527.287-.285.482-.485.677-.695.8-.843 1.804-1.074 2.901-.959.584.064 1.159.78 1.159 1.432 0 .422-.062.853-.134 1.275-.102.62-.246 1.232-.369 1.842-.123.632-.256 1.264-.38 1.895-.06.306-.102.611-.132.917-.02.22-.103.316-.318.316h-1.036c.041-.274.062-.527.113-.759.185-.916.41-1.821.564-2.737.123-.727.359-1.422.349-2.17-.01-.694-.575-1.137-1.21-.915a3.19 3.19 0 0 0-1.62 1.21c-.42.58-.78 1.19-.984 1.875-.123.42-.205.853-.287 1.284a65.684 65.684 0 0 0-.308 1.97c-.02.168-.113.252-.267.252H84.87zM48.32 32.548c1.035-1.526 1.794-3.158 2.111-5.001h1.538c-.615 2.906-2.06 5.338-3.926 7.56h-1.6c.257-1.316.277-2.611.093-3.896-.175-1.242-.452-2.464-.985-3.664h2.03c.626 1.6.78 3.275.738 5.001zM67.942 28.653h-.912c.082-.4.154-.758.225-1.137h.882c.113-.59.226-1.17.338-1.748.626-.148 1.22-.295 1.846-.443.02.727-.246 1.432-.318 2.19h1.681c-.082.411-.153.77-.235 1.159h-1.292c-.359 0-.37 0-.451.39-.175.863-.308 1.737-.523 2.59a5.761 5.761 0 0 0-.175 1.927c.103.094.226.21.41.39.319-.075.688-.159 1.057-.232.05.252.123.494.143.747.01.116-.04.316-.123.358-.779.38-1.6.495-2.44.295-.615-.148-.974-.716-1.015-1.39-.04-.653.144-1.264.256-1.885.134-.79.308-1.569.472-2.348.051-.274.113-.537.174-.863zM113.442 33.264c.215.39.41.737.626 1.116-.626.411-1.2.822-1.928.822-.451-.01-.902.042-1.353-.084-1.046-.306-1.733-.98-1.999-2.043a4.78 4.78 0 0 1 .317-3.264c.585-1.222 1.528-2.096 2.84-2.359.8-.158 1.651-.126 2.379.39.123.084.256.19.338.316.051.073.051.252 0 .316-.215.284-.451.558-.666.81-.267-.137-.503-.284-.759-.39-.738-.294-1.404.106-1.794.559-.728.853-.902 1.874-.789 2.937.071.664.44 1.2 1.127 1.4.472.138.872-.083 1.272-.283.102-.064.215-.137.389-.243zM42.147 27.947c-.287.453-.533.864-.789 1.253-.123.19-.297.253-.533.18-.554-.159-1.077.073-1.364.557-.502.843-.86 1.748-1.148 2.685-.205.685-.41 1.359-.492 2.075-.01.126-.082.252-.133.379h-1.661c-.185-.337.02-.674.061-1 .123-.822.339-1.633.492-2.443.123-.674.206-1.348.318-2.022.103-.621.215-1.243.339-1.853.01-.074.071-.148.123-.221h1.773c-.113.579-.215 1.147-.318 1.705.02.01.052.021.072.032.226-.358.43-.727.687-1.064.461-.6 1.138-1.042 1.968-.695.226.095.39.274.605.432zM43.798 38.36c-.574 3.18-1.148 6.308-1.722 9.467h3.762c-.051.337-.092.632-.154.916-.01.063-.123.116-.194.137-.062.02-.134.01-.205.01H40.67a.767.767 0 0 1-.154-.02c.164-.959.318-1.907.492-2.854.154-.822.339-1.632.492-2.443.123-.684.206-1.38.329-2.074.153-.822.317-1.632.481-2.443.01-.053.02-.105.02-.148.062-.537.062-.537.554-.537.288-.01.554-.01.913-.01zM22.33 48.88h-1.21c.092-1.127.38-2.211.543-3.306.164-1.085.4-2.17.626-3.307h-1.067l.226-.947h.974c.113-.506.226-.99.349-1.485.143-.6.43-1.127.902-1.495.718-.558 1.62-.674 2.399-.095-.144.242-.287.484-.462.758-.102-.042-.184-.095-.266-.105-.595-.116-1.056.168-1.24.779-.154.516-.298 1.042-.318 1.632H25.2c.041.348.072.642-.123.948h-1.455c-.082.316-.175.61-.226.926-.205 1.085-.41 2.17-.605 3.254-.123.674-.215 1.348-.328 2.022-.041.136-.092.273-.133.42zM116.641 35.086h-1.825c.215-1.285.41-2.559.636-3.812.225-1.253.482-2.495.728-3.727h1.825c-.452 2.517-.903 5.001-1.364 7.54zM82.377 27.537h1.805c-.133 1.284-.44 2.527-.636 3.78-.205 1.253-.461 2.506-.697 3.759h-1.835c.451-2.517.912-5.012 1.364-7.54zM43.46 35.086h-1.846c.462-2.517.913-5.022 1.364-7.539h1.835c-.43 2.517-.902 5.022-1.353 7.54zM72.771 48.89c.462-2.548.923-5.043 1.384-7.56h1.22c-.04.306-.071.6-.112.885l.082.052c.174-.189.348-.379.512-.579.41-.495.954-.568 1.518-.473.235.042.44.273.707.452-.205.316-.39.59-.605.906-.143-.021-.307-.021-.472-.063-.553-.148-1.025.063-1.373.537-.513.695-.77 1.484-.903 2.337-.092.6-.276 1.19-.39 1.79-.091.453-.163.906-.204 1.37-.02.241-.103.347-.339.347h-1.025zM37.277 41.688c-.235.337-.41.6-.615.895-.154-.02-.328-.01-.471-.073-.41-.169-1.087.147-1.333.473-.523.706-.78 1.517-.933 2.38-.185 1.084-.41 2.169-.605 3.254-.03.19-.113.273-.297.273h-1.036c.093-.863.287-1.674.42-2.506.134-.853.339-1.695.493-2.548.153-.832.287-1.674.43-2.516h1.148c.236.294-.143.59.01.937.196-.2.39-.38.565-.58.41-.494.963-.547 1.527-.452.236.042.441.284.697.463zM116.918 26.684c-.154-.242-.39-.369-.472-.674-.215-.81.359-1.78 1.159-1.853.574-.053 1.148.684 1.005 1.295-.113.453-.369.8-.718 1.084-.277.211-.615.127-.974.148zM43.716 26.673c-.154-.242-.38-.369-.482-.695-.154-.506.082-.864.257-1.243.153-.347.523-.473.85-.568.595-.158 1.22.632 1.046 1.305-.112.432-.369.77-.697 1.043-.277.242-.625.137-.974.158zM82.634 25.588c0-.674.43-1.242 1.056-1.41.4-.106 1.005.263 1.087.694.102.58-.113 1.38-.77 1.696-.778.368-1.486-.148-1.373-.864v-.116zM100.76 43.72h-.369v-2.38h.502c.226.496.451 1.012.728 1.601.246-.495.451-.916.667-1.337.133-.274.143-.274.523-.263v2.369h-.37V42.34c-.389.484-.44 1.106-.943 1.516-.246-.558-.451-1.01-.646-1.463-.03 0-.051.01-.082.01-.01.432-.01.885-.01 1.316zM99.048 41.73h-.605c-.01-.137-.01-.242-.02-.39h1.712c.01.106.01.232.02.38h-.595v1.99h-.522c.01-.653.01-1.285.01-1.98z" fill="#80858C"/><path d="M97.028 34.275c.02-.063.041-.116.062-.179.041.032.072.063.113.106-.03.052-.072.105-.103.168-.02-.031-.051-.063-.072-.095zM6.992 32.233c1.066-.811 1.138-2.001 1.261-3.117.226-1.916.287-3.864.554-5.77.338-2.454 1.138-4.76 2.583-6.77 1.261-1.77 2.974-2.875 5.075-3.16 1.056-.147 2.184-.2 3.23.306.246.126.492.263.748.4-.061.084-.082.126-.092.126-1.456-.484-2.348.495-3.127 1.443-1.343 1.61-2.174 3.548-2.912 5.507-.594 1.569-1.056 3.19-1.65 4.759-.605 1.611-1.374 3.127-2.543 4.401-.748.822-1.548 1.538-2.645 1.811-.164.043-.328.043-.482.064z" fill="#80858C"/></svg>