<svg width="121" height="61" viewBox="0 0 121 61" fill="none" xmlns="http://www.w3.org/2000/svg"><path d="M11.015 39.68a4.454 4.454 0 0 0 .662-1.587 4.897 4.897 0 0 0-.53-3.52c-.882-1.6-1.78-3.187-2.677-4.788-.515-.892-.78-1.858-.72-2.9.058-.862.294-1.678.794-2.448.264 1.223.97 2.19 1.544 3.233 1.06 1.948 2.163 3.852 3.222 5.786.176.317.279.68.411 1.027.03.06.044.12.089.227.323-.469.5-.952.617-1.466.31-1.299.103-2.508-.544-3.656-.897-1.601-1.794-3.187-2.692-4.789a5.17 5.17 0 0 1-.69-2.507c0-.846.176-1.783.779-2.705.014.03.044.046.059.076.161.77.559 1.42.94 2.085 1.001 1.782 2.001 3.565 3.016 5.348.368.65.589 1.36.662 2.115 0 .06.015.12.03.196.338.106.691.227 1.03.332 1.19.408 2.309.952 3.294 1.753a5.79 5.79 0 0 1 1.31 1.45c.823 1.314.808 2.87-.074 4.17-.647.951-1.53 1.631-2.5 2.19-1.28.725-2.663 1.178-4.105 1.465-1.588.333-3.192.423-4.795.348-2.177-.106-4.295-.544-6.296-1.51-.926-.454-1.78-1.013-2.5-1.783-.574-.605-1-1.315-1.177-2.146-.206-.997.03-1.918.559-2.749.427-.665.986-1.209 1.603-1.662 1.177-.86 2.5-1.405 3.884-1.797.029-.016.073 0 .117-.016.03.287.044.574.074.861a4.95 4.95 0 0 0 .603 1.828c.838 1.496 1.677 2.977 2.515 4.472.294.514.574 1.027.868 1.526.28.453.486.936.618 1.54zM98.33 29.27v-3.474a6.222 6.222 0 0 1 2.28-.317v14.895h-2.089a65.783 65.783 0 0 1-.132-1.253 3.773 3.773 0 0 0-.176.226c-.545.756-1.265 1.148-2.163 1.27a4.66 4.66 0 0 1-2.088-.182c-1.295-.423-2.148-1.345-2.633-2.614-.28-.71-.398-1.45-.442-2.22-.059-.907 0-1.798.236-2.69.485-1.873 1.647-3.036 3.456-3.534 1.074-.287 2.163-.302 3.251-.166.132.03.28.045.5.06zm0 2.1c-.176-.03-.309-.06-.441-.09-.75-.12-1.515-.196-2.28-.03-.956.211-1.647.77-2.045 1.692-.176.408-.28.816-.323 1.254-.074.921-.074 1.858.25 2.75.323.89.927 1.48 1.824 1.691.97.212 1.883.03 2.721-.513a.547.547 0 0 0 .28-.514c-.015-1.964 0-3.913 0-5.877.014-.12.014-.241.014-.362zM26.386 39.967c-.044-.53.147-1.662.383-2.176.073.03.147.046.22.076 1.324.544 2.707.8 4.134.71.426-.03.853-.121 1.265-.257 1.5-.529 1.47-2.296.5-3.112-.456-.378-.956-.65-1.486-.891-.78-.363-1.559-.71-2.339-1.088a5.39 5.39 0 0 1-1.441-1.027 3.56 3.56 0 0 1-1.103-2.281c-.089-.771-.044-1.541.264-2.267.398-.936 1.104-1.54 2.016-1.903.941-.378 1.912-.453 2.897-.453a11.33 11.33 0 0 1 3.325.529c.088.03.176.06.28.105-.074.725-.163 1.435-.427 2.115-.456-.12-.912-.242-1.354-.347a8.69 8.69 0 0 0-2.72-.197c-.369.03-.707.136-1.045.302-1.074.514-1.118 1.92-.515 2.644.265.317.559.59.927.755.661.318 1.338.635 2.015.937.809.363 1.603.74 2.294 1.315.648.528 1.163 1.163 1.354 2.009.338 1.57.103 2.976-1.133 4.079-.603.528-1.324.83-2.089.997-1 .226-2.015.257-3.044.166-.75-.06-1.486-.166-2.207-.393-.338-.09-.647-.242-.97-.347zM112.113 35.843h-7.252c.118 1.495 1.03 2.417 2.206 2.673.927.197 1.839.121 2.766-.045.676-.12 1.338-.347 2-.634.074.256-.029.483-.059.71-.044.393-.132.785-.191 1.178a.443.443 0 0 1-.279.363 8.187 8.187 0 0 1-2.251.543c-.603.046-1.221.06-1.824-.015-.985-.105-1.912-.377-2.736-.951-.956-.695-1.515-1.662-1.794-2.81a8.366 8.366 0 0 1 0-4.004c.265-1.118.779-2.084 1.706-2.78a4.232 4.232 0 0 1 1.765-.77c1.015-.196 2.03-.211 3.03.076 1.589.468 2.501 1.586 2.883 3.187.206.892.192 1.798.089 2.69-.03.18-.045.362-.059.589zm-2.192-1.98c-.044-.302-.044-.589-.118-.86-.206-.892-.706-1.511-1.574-1.768-.353-.106-.72-.121-1.073-.106-1.383.09-2.413 1.284-2.324 2.735h5.089zM47.112 29.74v10.634h-2.089c-.044-.362-.088-.755-.132-1.133-.28.272-.53.544-.81.786-.5.423-1.102.574-1.735.62-.985.075-1.941-.106-2.795-.665-.912-.59-1.485-1.466-1.809-2.508-.338-1.088-.412-2.22-.309-3.354.06-.574.147-1.118.339-1.662.573-1.646 1.72-2.659 3.353-3.097.824-.226 1.663-.241 2.516-.226 1.132.015 2.236.166 3.324.529.03.03.073.045.147.075zm-2.295 1.555a7.895 7.895 0 0 0-2.22-.09c-1.34.15-2.28.89-2.678 2.296-.191.695-.22 1.42-.162 2.145.044.483.133.952.31 1.405.338.846.926 1.42 1.809 1.601.94.212 1.809.03 2.633-.468.22-.136.308-.287.308-.574-.014-1.98-.014-3.958-.014-5.937.014-.121.014-.242.014-.378zM77.37 29.77v10.605H75.25c-.044-.378-.074-.74-.118-1.164-.088.106-.161.166-.22.242-.545.695-1.25 1.057-2.104 1.163-.956.121-1.868-.015-2.736-.468-1.03-.544-1.677-1.45-2.059-2.553a6.782 6.782 0 0 1-.368-2.236c-.014-.77.015-1.54.192-2.296.5-2.085 1.794-3.309 3.824-3.777.75-.166 1.515-.166 2.28-.166 1.103.015 2.177.166 3.221.514l.133.045c.014.045.044.06.073.09zm-2.31 1.51c-.883-.12-1.75-.211-2.604-.015-1.103.242-1.838.907-2.206 2.01-.25.724-.28 1.465-.25 2.205.03.514.117 1.027.294 1.51.28.74.765 1.315 1.515 1.557 1.177.377 2.265.15 3.25-.59V31.28zM89.048 40.39H86.74v-6.828c0-.242-.03-.484-.059-.726-.147-.966-.662-1.374-1.515-1.556-.735-.166-1.47-.12-2.206-.06-.265.015-.53.075-.81.12v9.05h-2.28V29.754c.162-.045.354-.12.545-.15.838-.152 1.677-.333 2.53-.408 1.22-.106 2.442-.106 3.633.256.589.182 1.133.469 1.574.922.5.514.75 1.163.853 1.873.044.363.06.725.074 1.088v6.677c-.03.106-.03.227-.03.378zM49.598 40.375V29.739c.28-.06.559-.15.838-.211 1.368-.272 2.736-.453 4.134-.378.735.046 1.441.166 2.133.438 1.117.453 1.794 1.284 2 2.493.074.408.118.83.118 1.254.015 2.28 0 4.562 0 6.858v.136c-.25.076-1.589.091-2.31.03v-6.797c0-.303-.029-.605-.088-.892-.176-.83-.735-1.269-1.515-1.42-.75-.151-1.515-.136-2.28-.03-.235.03-.456.06-.72.09v9.05c-.78.015-1.53.015-2.31.015zM61.071 25.826c.736-.256 1.486-.332 2.28-.347v4.018h3.56c.088.378-.03 1.632-.191 2.025H63.35v5.121c0 .347.03.695.147 1.027.206.53.589.816 1.133.922.691.12 1.353-.015 2.015-.181.074-.016.132-.03.25-.06-.015.664-.147 1.298-.235 1.948-.28.166-.589.227-.898.287-.882.151-1.765.136-2.633-.136-1.073-.348-1.706-1.118-1.941-2.22a5.617 5.617 0 0 1-.118-1.103c-.014-3.702 0-7.418 0-11.12a.378.378 0 0 1 0-.18zM116.467 40.39h-2.28V29.74c1.927-.62 3.883-.665 5.913-.514-.029.695-.044 1.36-.221 2.009-1.132-.076-2.25-.121-3.368.045 0 .015-.015.015-.03.03 0 .015-.014.015-.014.03v9.05z" fill="#80858C"/></svg>