<svg width="36" height="36" viewBox="0 0 36 36" fill="none" xmlns="http://www.w3.org/2000/svg"><path d="M27.125 18a9.125 9.125 0 1 1-18.25 0 9.125 9.125 0 0 1 18.25 0z" stroke="#0A141E" stroke-width="2"/><path d="M21.375 19.125a3.375 3.375 0 1 1-6.75 0" stroke="#0A141E" stroke-width="2"/><path fill-rule="evenodd" clip-rule="evenodd" d="M1.31 14.755C2.62 7.97 7.97 2.621 14.756 1.31v2.043A15.02 15.02 0 0 0 3.352 14.755H1.31zm0 6.49C2.62 28.03 7.97 33.378 14.756 34.69v-2.043A15.02 15.02 0 0 1 3.352 21.244H1.31zM21.245 34.69c6.787-1.312 12.135-6.66 13.446-13.447h-2.043a15.02 15.02 0 0 1-11.403 11.404v2.043zm0-33.382C28.032 2.621 33.38 7.97 34.69 14.756h-2.043A15.02 15.02 0 0 0 21.245 3.351V1.309z" fill="#F22800"/></svg>