<svg width="160" height="48" fill="none" xmlns="http://www.w3.org/2000/svg"><path d="M51.953 27.68c-.153.504-.29 1.016-.413 1.528l-.42 1.666c-.13.497-.214.894-.268 1.177a1.154 1.154 0 01-.978.94 3.057 3.057 0 01-1.483-.115 3.44 3.44 0 01-1.375-.848 2.153 2.153 0 01-.642-1.567c.053-.82.183-1.634.39-2.43.26-1.1.626-2.415 1.1-3.898.52-1.613 1.078-3.218 1.674-4.8.596-1.582 1.207-2.973 1.888-4.448a1.528 1.528 0 011.215-.871 9.174 9.174 0 013.133.1.848.848 0 01.596 1.168 49.36 49.36 0 00-1.528 3.745c-.375.971-.764 1.95-1.093 2.935a.115.115 0 00.069.146.13.13 0 00.092 0c.465-.224.915-.479 1.345-.765.71-.465 1.36-1.017 1.933-1.643a8.023 8.023 0 001.414-2.079 5.65 5.65 0 00.535-2.453 2.996 2.996 0 00-.932-2.446 3.997 3.997 0 00-2.63-.764 6.35 6.35 0 00-3.194.864 9.616 9.616 0 00-2.515 2.025 9.777 9.777 0 00-1.62 2.56 6.006 6.006 0 00-.573 2.293.917.917 0 01-.71.94c-.416.121-.86.1-1.262-.061a2.667 2.667 0 01-1.139-.879 2.935 2.935 0 01-.558-1.888 5.19 5.19 0 01.765-2.407 10.175 10.175 0 012.262-2.645 13.415 13.415 0 013.669-2.185 12.991 12.991 0 015.028-.918 13.949 13.949 0 013.188.329 10.25 10.25 0 012.843 1.116 6.61 6.61 0 012.002 1.903c.523.77.79 1.684.764 2.614a6.51 6.51 0 01-.71 2.957A8.567 8.567 0 0161.927 21a12.009 12.009 0 01-2.752 1.858c-.877.442-1.79.81-2.728 1.1a.1.1 0 00-.077.115c.01.462.043.924.1 1.383.038.443.13 1.009.214 1.483.084.474.183.917.306 1.353.14.52.313 1.03.52 1.528.16.344.336.688.527 1.017.172.305.36.601.565.886.184.268.386.523.604.764.203.218.42.422.65.612.224.178.462.339.71.481a4.952 4.952 0 002.24.711c.27.023.54.023.81 0 .281-.037.56-.093.833-.168a6.95 6.95 0 00.871-.267 8.603 8.603 0 001.261-.589.84.84 0 011.254.817.818.818 0 01-.283.528c-.513.452-1.054.87-1.62 1.254-.352.252-.711.481-1.078.71l-.566.306c-.359.176-.726.336-1.108.482a9.415 9.415 0 01-1.093.328 7.24 7.24 0 01-1.077.191 7.871 7.871 0 01-1.04 0 7.116 7.116 0 01-1.528-.237 6.433 6.433 0 01-1.368-.558 6.676 6.676 0 01-.765-.535 8.414 8.414 0 01-.626-.527 7.79 7.79 0 01-.711-.71 9.593 9.593 0 01-.627-.841 12.745 12.745 0 01-.527-.963 14.218 14.218 0 01-.88-2.148c-.121-.405-.236-.764-.328-1.208-.091-.443-.183-.848-.244-1.276-.062-.428-.115-.764-.16-1.185a.115.115 0 00-.138-.084.114.114 0 00-.084.084" fill="#FF7175"/><path d="M115.969 12.156a3.19 3.19 0 01-1.94 2.964 3.188 3.188 0 11-1.27-6.12h.054a3.175 3.175 0 012.94 1.944c.161.384.245.796.247 1.212h-.031zm-15.102 8.645a16.374 16.374 0 01-.466 1.903c-.229.753-.5 1.493-.81 2.216-.329.718-.696 1.43-1.078 2.132a13.495 13.495 0 01-1.07 1.62c-.266.362-.58.686-.932.964a.695.695 0 01-.367.16h-.054s-.145-.091-.206-.474a4.502 4.502 0 01.084-1.36c.124-.66.29-1.31.497-1.949.228-.751.498-1.489.81-2.209.31-.738.667-1.455 1.07-2.147.323-.562.689-1.099 1.093-1.605.267-.352.581-.665.932-.933a.707.707 0 01.367-.168s.145.1.207.482c.039.447.013.897-.077 1.337v.03zm-14.269-.031a18.56 18.56 0 01-.481 1.895 21.338 21.338 0 01-.765 2.255c-.329.718-.695 1.43-1.078 2.132a13.471 13.471 0 01-1.07 1.62 4.814 4.814 0 01-.932.918.643.643 0 01-.367.16h-.053s-.153-.091-.207-.474a4.795 4.795 0 01.077-1.36c.117-.646.273-1.284.466-1.91.214-.753.469-1.493.764-2.217.306-.733.658-1.445 1.055-2.132.323-.55.683-1.075 1.078-1.575.267-.351.58-.665.932-.932a.765.765 0 01.375-.16h.046s.16.099.206.473c.046.447.023.898-.069 1.338l.023-.031zm-15.47.03a14.522 14.522 0 01-.35 1.911c-.191.75-.429 1.488-.712 2.21-.282.71-.596 1.42-.947 2.131-.278.558-.6 1.092-.963 1.598a4.834 4.834 0 01-.84.879.672.672 0 01-.353.16h-.045c-.039 0-.16-.1-.222-.481a5.015 5.015 0 010-1.353c.055-.637.16-1.268.313-1.888.2-.754.456-1.492.765-2.209.275-.718.588-1.429.94-2.132.284-.562.612-1.1.978-1.613.24-.353.532-.67.864-.94a.673.673 0 01.351-.16c.038 0 .168.1.245.489.069.448.069.904 0 1.353l-.023.046zm44.108 4.059a.945.945 0 00-.765-.39.861.861 0 00-.71.375 15.61 15.61 0 01-.711.947c-.289.406-.606.792-.948 1.154a10.83 10.83 0 01-.963.91 1.084 1.084 0 01-.642.313c-.076 0-.237 0-.267-.397a5.146 5.146 0 01.183-1.605c.191-.75.428-1.488.711-2.209a72 72 0 011.735-4.188c.237-.527.382-.864.443-1.017a1.103 1.103 0 00-.199-1.23 2.29 2.29 0 00-1.177-.711 3.23 3.23 0 00-1.528 0 2.063 2.063 0 00-1.353 1.001 21.43 21.43 0 00-1.108 2.133 42.018 42.018 0 00-1.292 3.21c-.252.71-.481 1.421-.711 2.132a6.111 6.111 0 01-2.025 3.057c-.337.274-.689.53-1.055.764a4.942 4.942 0 01-.512.306.059.059 0 01-.017.012.058.058 0 01-.021.004.058.058 0 01-.021-.004.059.059 0 01-.017-.012.055.055 0 01-.008-.03c0-.011.002-.022.008-.031.29-.382.581-.764.863-1.246a16.985 16.985 0 001.583-3.24 15.42 15.42 0 00.917-3.554 7.793 7.793 0 00-.138-2.79 3.53 3.53 0 00-1.032-1.88 2.833 2.833 0 00-1.91-.71 4.41 4.41 0 00-2.408.71 9.355 9.355 0 00-1.353 1.04h-.084a1.69 1.69 0 00-.367-.406 2.765 2.765 0 00-1.245-.573 2.897 2.897 0 00-1.422.1 1.827 1.827 0 00-1.146 1.047 68.102 68.102 0 00-1.422 3.378 114.592 114.592 0 00-1.636 4.44 6.114 6.114 0 01-2.14 2.912c-.244.197-.5.381-.764.55a4.305 4.305 0 01-.512.306.054.054 0 01-.059.012.054.054 0 01-.017-.012.06.06 0 010-.061c.305-.398.596-.818.871-1.246a17.39 17.39 0 001.574-3.24c.45-1.143.758-2.337.918-3.554a7.788 7.788 0 00-.1-2.79 3.531 3.531 0 00-1.07-1.903 2.836 2.836 0 00-1.91-.71 4.41 4.41 0 00-2.408.71 9.35 9.35 0 00-1.353 1.04h-.084a1.69 1.69 0 00-.367-.406 2.764 2.764 0 00-1.246-.573 2.897 2.897 0 00-1.421.1 1.863 1.863 0 00-1.131 1.016 63.084 63.084 0 00-1.422 3.401 103.196 103.196 0 00-1.353 3.7 5.862 5.862 0 01-1.528 2.407 10.08 10.08 0 01-.543.489c-.173.172-.4.282-.642.313-.084 0-.237 0-.275-.397a5.401 5.401 0 01.191-1.605c.202-.741.45-1.468.742-2.179a84.595 84.595 0 011.734-4.188c.153-.336.299-.672.436-1.016a1.1 1.1 0 00-.199-1.23 2.354 2.354 0 00-1.207-.712 3.438 3.438 0 00-1.529 0 2.073 2.073 0 00-1.337.986l-.207.344a.06.06 0 01-.068.039.092.092 0 01-.07 0 3.13 3.13 0 00-.297-.81 2.293 2.293 0 00-.933-.933 2.935 2.935 0 00-1.528-.36 6.39 6.39 0 00-4.265 1.911c-1.391 1.246-2.53 3.233-3.416 5.916a14.882 14.882 0 00-.711 3.554 7.799 7.799 0 00.267 2.759c.2.71.603 1.345 1.162 1.827a2.93 2.93 0 001.941.71 4.212 4.212 0 001.567-.282 5.97 5.97 0 001.3-.711c.3-.21.578-.448.832-.711a.338.338 0 01.482 0c.046.04.078.093.092.153.083.252.2.492.351.71a1.972 1.972 0 001.781.788 4.364 4.364 0 002.591-.955 14.4 14.4 0 001.177-.956.106.106 0 01.124-.027.107.107 0 01.037.027.13.13 0 010 .107c-.222.71-.42 1.422-.597 2.033-.298 1.055-.512 1.98-.726 2.69-.137.464-.229.94-.275 1.422a2.22 2.22 0 00.566 1.529c.346.385.781.68 1.268.856.29.102.595.156.902.16a1.84 1.84 0 00.459-.053 1.101 1.101 0 00.902-.925c.072-.446.169-.887.29-1.322.138-.566.313-1.239.512-1.957s.42-1.529.711-2.438l.39-1.345a.115.115 0 01.153-.054.12.12 0 01.053.054c.062.109.13.213.206.313a2.4 2.4 0 002.041.84h.55a10.402 10.402 0 003.822-.71 15.62 15.62 0 003.057-1.582.115.115 0 01.13 0 .122.122 0 010 .092c-.245.79-.482 1.577-.71 2.361-.26.902-.498 1.812-.712 2.721-.137.464-.229.94-.275 1.422-.015.563.188 1.11.566 1.528.351.378.79.664 1.276.833.288.1.59.154.894.16.157.002.314-.016.466-.053a1.085 1.085 0 00.887-.924c.054-.337.145-.765.29-1.346.146-.58.314-1.238.513-1.956.198-.718.42-1.529.71-2.438l.39-1.345a.115.115 0 01.206 0 2.4 2.4 0 002.232 1.238h.55a10.403 10.403 0 003.822-.71 15.173 15.173 0 003.485-1.912l.489-.382a.122.122 0 01.161 0 .142.142 0 010 .077v.122a3.412 3.412 0 00.504 1.949 1.98 1.98 0 001.735.764 4.496 4.496 0 002.553-.948 14.653 14.653 0 002.293-2.132 21.74 21.74 0 001.842-2.331c.366-.527.764-1.07 1.077-1.613a.766.766 0 000-.764" fill="#FF7175"/></svg>