<svg width="160" height="48" fill="none" xmlns="http://www.w3.org/2000/svg"><path d="M77.165 15c-1.333.337-2.533.54-4.025.692v.43c1.678 0 1.893.18 1.893 1.498v4.435c-.987-1.52-1.76-1.976-3.2-1.976-2.852 0-4.849 2.559-4.849 6.21 0 3.65 2.025 6.211 4.93 6.211 1.52 0 2.558-.658 3.304-2.078.107.963.108 1.065.374 2.028 1.093-.33 1.545-.432 3.119-.609l.398-.052v-.43c-1.785-.05-1.944-.178-1.944-1.724V15zm-71.915.184a21.333 21.333 0 01-2.532.129c-.747 0-1.146-.025-2.184-.102v.632c1.838.102 2.21.356 2.21 1.522v.154l-.56 12.446c-.053 1.37-.318 1.571-2.184 1.698v.61c1.387-.103 1.918-.127 2.663-.127.747 0 1.28.024 2.64.126v-.609c-1.867-.127-2.213-.355-2.213-1.47v-.228l.534-13.157 4.37 11.23.32.887.375.988.372.99.294.812h.4l.293-.837.346-.965.372-.936.32-.839 4.4-11.305.239 13.132v.126c0 1.192-.4 1.47-2.213 1.572v.61c1.68-.153 2.319-.204 3.332-.204 1.012 0 1.652.05 3.332.203v-.609c-1.92-.127-2.16-.329-2.186-1.698l-.292-12.446v-.178c0-1.142.399-1.396 2.212-1.498v-.632c-1.013.077-1.44.102-2.106.102-.8 0-1.358-.027-2.558-.129l-5.037 12.83-4.959-12.83zm103.68.102v.636c1.919.1 2.186.302 2.186 1.671v12.295c0 1.37-.213 1.546-2.186 1.699v.609h6.744c1.972 0 3.038-.228 4.157-.887 1.334-.811 2.213-2.359 2.213-3.956 0-1.368-.613-2.61-1.653-3.37-.56-.406-1.147-.634-2.106-.812 1.919-.684 2.933-1.977 2.933-3.751 0-1.319-.587-2.486-1.6-3.22-.906-.634-1.946-.914-3.678-.914h-7.01zm4.425.787h2.265c2.239 0 3.225 1.038 3.225 3.397 0 1.165-.291 2.003-.878 2.661-.587.634-1.306.837-2.8.837h-1.812v-6.895zm-61.3 3.625l-.721 1.292c-.853-.786-1.573-1.065-2.718-1.065-3.146 0-5.279 2.587-5.279 6.363 0 3.701 2.107 6.187 5.198 6.187 2.4 0 3.918-1.472 4.264-4.184h-1.093c-.32 2.231-1.307 3.347-2.96 3.347-2.051 0-3.09-1.8-3.09-5.35 0-3.625 1.175-5.677 3.173-5.677 1.627 0 2.61 1.064 3.09 3.268h.588v-4.181h-.453zm47.757.076l-.453 1.038c-.906-.582-1.678-.81-2.718-.81-2.345 0-3.998 1.37-3.998 3.372 0 1.47.615 2.18 2.56 3.043l1.225.53 1.013.43c1.306.559 1.814 1.142 1.814 2.004 0 1.293-1.174 2.282-2.746 2.282-1.867 0-2.986-1.115-3.467-3.422l-.584.025V32.5h.48l.637-1.141c1.014.76 1.973 1.064 3.2 1.064 2.505 0 4.291-1.519 4.291-3.65 0-1.494-.72-2.307-2.746-3.143l-1.119-.456c-2.426-1.014-2.824-1.343-2.824-2.357 0-1.192 1.092-2.105 2.504-2.105 1.68 0 2.559.965 2.798 2.991h.614v-3.929h-.48zm39.4 0c-1.063.355-1.972.558-3.519.76v.431c.134 0 .269.025.349.025 1.333 0 1.491.154 1.517 1.193v8.213c0 1.09-.263 1.293-1.89 1.369v.507c1.387-.127 1.945-.151 2.877-.151.96 0 1.494.024 2.881.151v-.507c-1.387-.05-1.734-.305-1.734-1.318V24.31c0-2.078.959-3.167 2.773-3.167 1.704 0 2.397.887 2.397 3.093v6.211c0 1.013-.346 1.267-1.785 1.318v.507c1.385-.127 1.918-.151 2.905-.151.958 0 1.493.024 2.907.151v-.507c-1.627-.076-1.895-.28-1.895-1.37V24.31c0-.962-.133-1.672-.401-2.28-.532-1.242-1.918-2.028-3.516-2.028-1.545 0-2.64.609-3.6 1.978-.054-.964-.132-1.622-.266-2.206zm-102.577.05c-1.095.303-2 .457-3.52.584v.456h.347c1.385.025 1.52.153 1.546 1.242v8.291c0 1.09-.292 1.293-1.919 1.369v.507c1.466-.127 2.026-.153 2.986-.153.932 0 1.492.026 2.957.153v-.507c-1.625-.076-1.892-.28-1.892-1.37v-5.298c0-2.51.88-4.105 2.264-4.105.48 0 .802.252.802.607v.228l-.055.255a1.409 1.409 0 00-.052.252c0 .508.48.862 1.093.862.666 0 1.12-.482 1.12-1.218 0-1.216-.987-2.053-2.32-2.053-1.385 0-2.533.838-3.118 2.283v-.28c-.054-.76-.107-1.166-.24-2.104zm-9.985.101c-3.199 0-5.196 2.46-5.196 6.363 0 3.904 1.997 6.187 5.436 6.187 2.611 0 4.317-1.548 4.664-4.159h-1.065c-.32 2.155-1.494 3.322-3.386 3.322-2.425 0-3.49-1.773-3.517-5.729h7.942c-.053-3.904-1.732-5.984-4.878-5.984zm33.246 0c-3.199 0-5.198 2.46-5.198 6.363 0 3.904 2 6.187 5.438 6.187 2.611 0 4.318-1.548 4.664-4.159h-1.067c-.32 2.155-1.491 3.322-3.384 3.322-2.425 0-3.493-1.773-3.52-5.729h7.945c-.055-3.904-1.732-5.984-4.878-5.984zm25.422 0c-3.199 0-5.198 2.46-5.198 6.363 0 3.904 2 6.187 5.437 6.187 2.612 0 4.318-1.548 4.665-4.159h-1.067c-.32 2.155-1.492 3.322-3.384 3.322-2.425 0-3.493-1.773-3.52-5.729h7.945c-.055-3.904-1.734-5.984-4.878-5.984zm44.088 0c-3.198 0-5.198 2.46-5.198 6.363 0 3.904 2 6.187 5.438 6.187 2.612 0 4.317-1.548 4.664-4.159h-1.067c-.319 2.155-1.49 3.322-3.382 3.322-2.426 0-3.492-1.773-3.519-5.729h7.942c-.054-3.904-1.732-5.984-4.878-5.984zm21.426.305l-.616 3.295h.536c.958-2.281 1.384-2.636 3.118-2.636h3.275l-7.221 11.307h9.168l.695-3.65h-.56c-.801 2.306-1.546 2.99-3.36 2.99h-3.116L160 20.23h-9.168zm-124.208.354c1.732 0 2.612 1.42 2.772 4.412h-5.758c.266-2.915 1.28-4.412 2.986-4.412zm33.244 0c1.732 0 2.612 1.42 2.772 4.412h-5.758c.266-2.915 1.28-4.412 2.986-4.412zm25.424 0c1.732 0 2.611 1.42 2.772 4.412h-5.758c.266-2.915 1.28-4.412 2.986-4.412zm44.088 0c1.733 0 2.612 1.42 2.772 4.412h-5.757c.266-2.915 1.279-4.412 2.985-4.412zm-57.307.203c1.972 0 2.986 1.928 2.986 5.655 0 3.523-.986 5.348-2.905 5.348-1.92 0-2.931-1.901-2.931-5.526 0-3.676.931-5.477 2.85-5.477zm41.282 2.968h2.533c1.413 0 2.211.227 2.824.81.613.583.958 1.672.958 2.89 0 2.534-1.332 3.956-3.704 3.956h-.958c-1.413 0-1.653-.205-1.653-1.32v-6.336zm-10.69 1.005v1.31h5.956v-1.31h-5.956z" fill="#3D3D3D"/></svg>