<svg width="160" height="48" fill="none" xmlns="http://www.w3.org/2000/svg"><path d="M87.177 14.556h-7.412v.713c.297.025.592.07.884.133.23.045.446.147.63.3.443.396.434 1.138.434 2.484v9.03c0 1.836.156 4.44-2.32 4.406-1.064-.015-2.153-.81-2.492-2.263h-.853c.361 2.434 1.594 4.085 4.584 4.085h.014c2.54 0 4.807-1.223 4.803-5.394v-9.864c0-1.347-.009-2.058.434-2.456.286-.253.519-.379 1.294-.461v-.713zm9.113 0h-8v.732c.836.081 1.088.21 1.393.47.383.327.452.862.465 1.771v12.938c-.013.91-.082 1.444-.465 1.77-.305.262-.557.39-1.393.471v.736h12.081l1.274-3.7h-.931c-.929 2.033-2.364 2.27-3.674 2.27-1.07 0-1.784-.06-2.29-.388-.407-.261-.56-.95-.567-2.116V18.28c0-1.381-.01-2.142.467-2.549.305-.261.807-.358 1.643-.44v-.736h-.004z" fill="#000"/><path d="M109.64 14.556h-7.995v.732c.835.081 1.087.21 1.392.47.383.327.452.862.464 1.771v12.938c-.012.91-.081 1.444-.464 1.77-.305.262-.557.39-1.392.471v.736h12.08l1.275-3.7h-.939c-.928 2.033-2.364 2.27-3.674 2.27-1.071 0-1.783-.06-2.289-.388-.408-.261-.56-.95-.567-2.116V18.28c0-1.381-.01-2.142.468-2.549.305-.261.807-.358 1.641-.44v-.736z" fill="#000"/><path d="M57.263 38.431a6.783 6.783 0 001.02-.586c.07-.048.14-.093.207-.143a8.824 8.824 0 001.131-1.02c.459-.488.873-1.015 1.238-1.576.29-.443.557-.9.8-1.372a19.77 19.77 0 001.854-5.912c.198-1.296.296-2.604.293-3.915.003-1.31-.095-2.62-.293-3.915a19.76 19.76 0 00-1.855-5.912 16.315 16.315 0 00-.345-.636 18.02 18.02 0 00-1.246 2.874c.602 1.824.97 3.717 1.093 5.633.045.647.062 1.299.063 1.95 0 .652-.016 1.303-.06 1.95a21.849 21.849 0 01-1.543 6.822c-.347.842-.76 1.654-1.237 2.43-.112.182-.217.37-.336.547a14.4 14.4 0 01-.785 1.062c-.318.396-.659.774-1.021 1.13-.384.378-.797.726-1.234 1.04-.035.025-.068.052-.104.077V39a6.033 6.033 0 002.36-.569z" fill="#E30613"/><path d="M61.711 38.425c.357-.167.7-.365 1.023-.592.067-.048.138-.093.206-.144 1.368-1.034 2.397-2.48 3.169-4.008a20.005 20.005 0 001.855-5.96c.198-1.306.297-2.626.294-3.947a26.092 26.092 0 00-.293-3.947 20.002 20.002 0 00-1.856-5.96c-.713-1.407-1.648-2.746-2.866-3.756-.387.423-.75.87-1.084 1.336.117.162.23.324.34.486 1.946 2.914 2.88 6.402 3.117 9.879a28.903 28.903 0 010 3.932c-.24 3.476-1.172 6.966-3.117 9.88-.241.363-.506.72-.785 1.069-.319.4-.66.78-1.02 1.14-.386.38-.798.73-1.236 1.048l-.103.078V39a6 6 0 002.356-.575z" fill="#E30613"/><path d="M68.505 37.708c1.37-1.017 2.397-2.444 3.169-3.949a19.51 19.51 0 001.856-5.874c.198-1.287.296-2.587.293-3.889a25.22 25.22 0 00-.294-3.89 19.504 19.504 0 00-1.856-5.872c-.772-1.502-1.8-2.928-3.17-3.949-1.02-.753-2.3-1.253-3.584-1.285v.04c1.25.866 2.307 2.05 3.144 3.288 1.946 2.871 2.88 6.309 3.118 9.735a27.744 27.744 0 010 3.874c-.24 3.426-1.172 6.865-3.118 9.735-.843 1.238-1.893 2.422-3.144 3.287V39c1.284-.032 2.565-.532 3.586-1.292zM62.56 9.57a6.787 6.787 0 00-1.02.587c-.07.047-.14.093-.206.143a8.91 8.91 0 00-1.132 1.019 11.365 11.365 0 00-1.238 1.575c-.29.444-.557.903-.8 1.375a19.741 19.741 0 00-1.854 5.909 25.513 25.513 0 00-.294 3.914c-.002 1.31.096 2.617.294 3.912a19.753 19.753 0 001.854 5.916c.11.214.227.426.346.636.499-.921.916-1.885 1.246-2.879a22.582 22.582 0 01-1.097-5.63 29.128 29.128 0 01-.062-1.95c0-.65.015-1.302.06-1.948a21.828 21.828 0 011.542-6.82c.348-.843.763-1.657 1.24-2.434.112-.182.217-.369.336-.547.241-.361.506-.715.785-1.06.318-.397.66-.775 1.022-1.131.384-.377.796-.723 1.234-1.037.035-.025.067-.053.103-.077V9a6.035 6.035 0 00-2.358.57z" fill="#E30613"/><path d="M56.997 9.574c-.357.168-.7.366-1.023.593-.067.047-.138.093-.205.144-1.368 1.032-2.397 2.48-3.169 4.007a20.002 20.002 0 00-1.854 5.96 25.946 25.946 0 00-.294 3.947c-.003 1.32.095 2.64.292 3.946.304 2.073.93 4.086 1.856 5.962.713 1.408 1.648 2.746 2.865 3.756a14.53 14.53 0 001.084-1.33c-.117-.161-.23-.323-.34-.485-1.945-2.914-2.88-6.403-3.116-9.879a28.835 28.835 0 010-3.931c.24-3.476 1.171-6.966 3.116-9.879a14.864 14.864 0 011.805-2.21c.386-.382.8-.734 1.237-1.054.035-.025.069-.053.104-.077V9a5.995 5.995 0 00-2.358.574z" fill="#E30613"/><path d="M51.315 10.292c-1.369 1.017-2.396 2.442-3.162 3.944a19.502 19.502 0 00-1.86 5.87 25.052 25.052 0 00-.293 3.89 25.188 25.188 0 00.294 3.887 19.509 19.509 0 001.859 5.878c.771 1.501 1.798 2.927 3.167 3.947 1.02.76 2.3 1.26 3.583 1.292v-.04c-1.253-.875-2.309-2.06-3.14-3.296-1.944-2.87-2.877-6.308-3.116-9.732a28.821 28.821 0 010-3.873c.228-3.425 1.166-6.863 3.117-9.732.83-1.237 1.886-2.421 3.136-3.286V9c-1.285.032-2.564.532-3.585 1.292zm9.005 27.597c.451-.396.872-.814 1.26-1.251a17.205 17.205 0 01-.394-.455c-.14-.168-.26-.341-.391-.516a11.34 11.34 0 01-1.44 1.488 10 10 0 00.962.73m3.34.004a6.344 6.344 0 01-.963.564 5.62 5.62 0 002.225.547v-.04a9.972 9.972 0 01-1.261-1.071zm-4.723 1.081c.12-.013.241-.034.36-.054a9.014 9.014 0 01-.36-.273 10.469 10.469 0 01-.841-.754 6.377 6.377 0 01-.964.564c.46.215.946.37 1.445.463.12.02.24.041.36.054zm.42.03v-.04c-.02-.014-.039-.03-.06-.044a5.55 5.55 0 01-.36.054c.14.015.281.026.42.03zm-.482-28.889c-.225.396-.436.814-.63 1.251.068.152.133.303.197.455.07.168.13.341.196.516.213-.53.453-1.027.72-1.488a7.644 7.644 0 00-.481-.73m-2.708-.004c.304-.216.626-.405.963-.564A5.624 5.624 0 0054.903 9v.04c.45.32.872.679 1.263 1.071zm6.528-.564a12.345 12.345 0 00-2.168-.463c-.186-.02-.357-.041-.54-.054-.21-.015-.42-.027-.631-.03v.04l.09.044a15.156 15.156 0 011.803 1.027c.457-.216.94-.405 1.446-.564z" fill="#E30613"/></svg>