<svg width="160" height="48" fill="none" xmlns="http://www.w3.org/2000/svg"><path d="M51.8 33.465h56.871L56.331 38l-4.53-4.535zm1.969-2.514c-3.985 0-7.011-3.635-7.011-8.102 0-4.467 3.026-8.103 7.01-8.103 1.297 0 2.244.391 3.3 1.064v-.685h3.502V30.57h-3.502v-.685c-1.056.675-2.003 1.065-3.3 1.065zm0-3.72c1.967 0 3.353-1.936 3.353-4.382 0-2.445-1.386-4.381-3.353-4.381-1.965 0-3.404 1.936-3.404 4.38 0 2.447 1.439 4.383 3.404 4.383zm28.378 3.72c1.723 0 2.977-.954 2.977-.954v.574h3.502V15.125h-3.502v9.074c0 1.702-1.168 3.14-2.87 3.14-1.7 0-2.869-1.438-2.869-3.14v-9.074h-3.502v9.074c0 3.723 2.544 6.752 6.264 6.752zm38.588-16.206c-1.722 0-2.976.954-2.976.954v-.574h-3.503V30.57h3.503v-9.074c0-1.702 1.168-3.14 2.869-3.14 1.701 0 2.87 1.438 2.87 3.14v9.074H127v-9.074c0-3.723-2.544-6.752-6.265-6.752zm-77.83 8.605l5.42 7.221h-4.586l-4.485-5.984h-2.591v5.984H33V11.276h6.053a6.656 6.656 0 016.65 6.652c0 2.235-1.11 4.209-2.798 5.422zm-.862-5.422a2.994 2.994 0 00-2.99-2.989h-2.39v5.982h2.39a2.995 2.995 0 002.99-2.993zm49.699 7.527c-.002 3.449 2.595 5.509 5.206 5.509.974 0 2.324-.32 3.426-.972l-2.308-3.076a2.08 2.08 0 01-1.171.38c-.572 0-1.651-.438-1.651-1.895v-6.61h2.995v-3.666h-2.995v-3.85H91.74v3.85h-1.85v3.666h1.853v6.664zm-25.568-1.229l5.166 6.345h4.907l-6.97-8.206 6.008-7.24h-4.91l-4.201 5.38V10h-3.607v20.571h3.607v-6.345zm46.688-.297l-10.089-.002c.461 3.53 4.448 5.322 6.84 1.792l3.094 1.788c-1.989 2.823-4.356 3.457-6.203 3.457-3.66 0-7.31-3.332-7.31-8.116 0-4.55 2.908-8.115 6.962-8.115 3.985 0 7.569 3.648 6.706 9.196zm-3.649-3.075c-.682-3.825-5.57-3.617-6.308 0h6.308z" fill="url(#paint0_linear)"/><defs><linearGradient id="paint0_linear" x1="33" y1="24" x2="127" y2="24" gradientUnits="userSpaceOnUse"><stop stop-color="#5A5CC1"/><stop offset=".506" stop-color="#763AAF"/><stop offset="1" stop-color="#92199E"/></linearGradient></defs></svg>