<svg width="160" height="48" viewBox="0 0 160 48" fill="none" xmlns="http://www.w3.org/2000/svg"><path fill-rule="evenodd" clip-rule="evenodd" d="M56 7.593h7.295v19.578c0 3.098 1.417 4.944 2.538 5.735-1.187 1.055-4.812 1.977-7.515-.264C56.725 31.321 56 29.148 56 27.105V7.593zm45.59 16.263v-2.057h2.225V14.58h-2.444C100.433 10.247 96.575 7 91.961 7a9.624 9.624 0 00-9.624 9.624V33.48c1.515.213 3.319-.026 4.854-1.3 1.593-1.32 2.317-3.493 2.317-5.536v-.621h3.644v-7.218h-3.644v-2.181h.01a2.444 2.444 0 012.443-2.444 2.448 2.448 0 012.449 2.444v7.232c0 5.315 4.313 9.624 9.628 9.624V26.3a2.447 2.447 0 01-2.448-2.444zm-27.628-9.275v10.593c0 .601-.5 1.089-1.115 1.089a1.102 1.102 0 01-1.115-1.09V14.582h-7.218v12.458c0 2.241.76 5.076 4.22 5.999 3.462.924 5.47-.989 5.47-.989-.183 1.26-1.37 2.183-3.28 2.38-1.447.15-3.297-.329-4.22-.724v6.6c2.352.693 4.838.917 7.272.445 4.416-.857 7.204-4.548 7.204-9.46V14.58h-7.218z" fill="#EA0B8C"/></svg>