<svg width="160" height="48" fill="none" xmlns="http://www.w3.org/2000/svg"><g clip-path="url(#clip0)"><path d="M46.419 20.31v8.181h2a3.92 3.92 0 002.77-1.22 4.11 4.11 0 001.16-2.88 3.999 3.999 0 00-1.1-2.88 3.83 3.83 0 00-2.79-1.2h-2.04zm2-2.56a6.651 6.651 0 010 13.302h-4.41a.32.32 0 01-.32-.33V18.1a.33.33 0 01.32-.34l4.41-.01zm16.462 11.001a4.28 4.28 0 004-2.69 4.45 4.45 0 00-.92-4.76 4.18 4.18 0 00-4.64-1 4.39 4.39 0 001.61 8.41l-.05.04zm.05-11.36a6.95 6.95 0 11-7.001 6.94 7 7 0 017-6.94zm16.751 11.38a4.37 4.37 0 10-4.27-4.38 4.45 4.45 0 001.25 3.1 4.19 4.19 0 003 1.28h.02zm-.02-11.32a6.951 6.951 0 11-.1 13.9 6.951 6.951 0 01.1-13.9zm16.352 2.86h-2.84v3.52h2.84a1.68 1.68 0 001.27-.44 1.82 1.82 0 000-2.53 1.65 1.65 0 00-1.27-.54v-.01zm-5.65-2.21a.33.33 0 01.32-.34h5.41a4.401 4.401 0 012.13 8.27l2.5 4.52a.357.357 0 010 .36.337.337 0 01-.31.16h-2.19a.33.33 0 01-.29-.18l-2.36-4.5h-2.41v4.3a.322.322 0 01-.196.305.32.32 0 01-.124.026h-2.11a.33.33 0 01-.33-.33V18.08l-.04.02zm17.451 2.29v8.17h2a3.88 3.88 0 002.77-1.22 4.113 4.113 0 001.121-2.87 4.01 4.01 0 00-1.101-2.89 3.822 3.822 0 00-2.75-1.19h-2.04zm2-2.57a6.65 6.65 0 110 13.3h-4.48a.33.33 0 01-.33-.33v-12.63a.33.33 0 01.33-.33h4.48v-.01zm15.202 3.24l-1.6 4.33h3.15l-1.55-4.33zm-2.501 6.84l-1 2.91a.33.33 0 01-.32.23h-2.24a.332.332 0 01-.3-.14.351.351 0 010-.33l4.831-12.61a.318.318 0 01.32-.22h2.51a.32.32 0 01.32.22l4.84 12.61a.378.378 0 010 .33.326.326 0 01-.3.14h-2.23a.349.349 0 01-.33-.23l-1-2.91h-5.101zm11.502-6.51c0-2.08 1.76-3.89 4.54-3.89a5.67 5.67 0 014 1.56.315.315 0 01.076.363.303.303 0 01-.076.106l-1.24 1.27a.32.32 0 01-.45 0 3.178 3.178 0 00-2.15-.87c-1.11 0-1.93.66-1.93 1.42 0 2.471 6.57 1 6.57 5.801 0 2.4-1.78 4.23-4.91 4.23a6.51 6.51 0 01-4.69-1.99.329.329 0 010-.47l1.2-1.23a.319.319 0 01.45 0 4.06 4.06 0 002.83 1.18c1.39 0 2.3-.76 2.3-1.71 0-2.47-6.56-1-6.56-5.8l.04.03zm21.232-3.31v5h-5.561v-5a.335.335 0 00-.021-.126.327.327 0 00-.174-.18.32.32 0 00-.125-.025h-2.11a.317.317 0 00-.299.205.316.316 0 00-.021.125v12.612a.317.317 0 00.195.304.32.32 0 00.125.026h2.11a.323.323 0 00.299-.205.336.336 0 00.021-.125v-5.07h5.561v5.07a.317.317 0 00.195.304.32.32 0 00.125.026h2.11a.323.323 0 00.23-.098.318.318 0 00.09-.233v-12.61a.317.317 0 00-.022-.126.309.309 0 00-.173-.18.32.32 0 00-.125-.025h-2.11a.318.318 0 00-.3.33h-.02zM31.808 19.39A8.431 8.431 0 0024.367 15H.814a.82.82 0 00-.75.5.8.8 0 00.18.89l5.13 5.09a2.42 2.42 0 001.711.7h16.602a2.12 2.12 0 11.05 4.21H12.286a.79.79 0 00-.57 1.36l5.13 5.1c.456.45 1.07.7 1.71.7h5.18a9.38 9.38 0 008.072-14.16z" fill="#E06149"/></g><defs><clipPath id="clip0"><path fill="#fff" d="M0 0h160v48H0z"/></clipPath></defs></svg>