<svg width="160" height="48" fill="none" xmlns="http://www.w3.org/2000/svg"><path d="M96.848 5.451c-1.51 1.075-4.382 2.554-8.092 1.643C82.34 5.51 80.5 0 80.5 0s-1.84 5.526-8.256 7.094c-3.71.91-6.582-.553-8.092-1.643H63v29.765c0 .747.18 2.24 1.406 3.719 1.51 1.837 4.068 3.017 7.613 3.524 2.827.403 4.906 1.3 6.372 2.703C79.468 46.208 80.5 48 80.5 48s1.062-1.837 2.109-2.838c1.466-1.418 3.56-2.3 6.372-2.703 3.545-.508 6.102-1.702 7.613-3.524C97.821 37.456 98 35.963 98 35.215V5.452h-1.152z" fill="#fff"/><path d="M96.953 6.616s-3.515 2.733-8.45 1.493C82.742 6.676 80.5 2.36 80.5 2.36s-2.244 4.317-8.002 5.75c-4.936 1.24-8.451-1.493-8.451-1.493v28.6c0 .97.404 5.093 8.122 6.213 3.051.433 5.325 1.418 6.955 2.987a9.932 9.932 0 011.376 1.658 9.372 9.372 0 011.376-1.658c1.63-1.569 3.904-2.554 6.955-2.987 7.718-1.12 8.122-5.242 8.122-6.213v-28.6z" fill="#013369"/><path d="M80.5 43.176s2.243-2.748 8.047-3.644c6.656-1.03 6.462-4.152 6.462-4.301V20.236H65.975v14.98c0 .164-.194 3.285 6.462 4.301 5.818.896 8.062 3.66 8.062 3.66z" fill="#fff"/><path d="M73.74 31.184V24.06l-.898-.508V21.7h4.068v1.852l-.852.508v14.53l-2.184-.657-3.156-9.29v6.124l1.002.761v1.882l-4.368-1.105v-1.613l1.002-.388v-10.26l-1.017-.493V21.7h3.306l3.096 9.484zm7.493 6.511l.867 1.046v1.852l-4.337-1.613v-1.57l.957-.388V24.075l-.957-.478V21.73h7.523v3.764h-1.66l-.509-1.539h-1.914v4.346h1.436l.568-.821h1.152v3.838h-1.152l-.538-.777h-1.466v7.154h.03zm4.786.657v-1.851l1.077-.882V24.06l-.913-.477v-1.867h4.338v1.867l-.852.478v10.843l1.87-.508.358-2.838h1.765v4.75l-7.643 2.045z" fill="#D50A0A"/><path d="M66.739 17.16l-1.316-.986h1.6l.524-1.523.523 1.523h1.6l-1.316.986.48 1.538-1.302-.91-1.301.91.508-1.538zm5.699 0l-1.316-.986h1.6l.524-1.523.523 1.523h1.6l-1.316.986.479 1.538-1.301-.91-1.302.91.509-1.538zm-5.699-5.123l-1.316-.985h1.6l.524-1.524.523 1.524h1.6l-1.316.985.48 1.539-1.302-.911-1.301.91.508-1.538zm5.699 0l-1.316-.985h1.6l.524-1.524.523 1.524h1.6l-1.316.985.479 1.539-1.301-.911-1.302.91.509-1.538zm22.301 6.676l-1.301-.91-1.302.91.48-1.538-1.317-.986h1.615l.524-1.523.523 1.523h1.6l-1.315.986.493 1.538zm-5.684 0l-1.301-.91-1.301.91.478-1.538-1.316-.986h1.6l.524-1.523.524 1.523h1.6l-1.316.986.508 1.538zm5.684-5.137l-1.301-.911-1.302.91.48-1.538-1.317-.985h1.615l.524-1.524.523 1.524h1.6l-1.315.985.493 1.539zm-5.684 0l-1.301-.911-1.301.91.478-1.538-1.316-.985h1.6l.524-1.524.524 1.524h1.6l-1.316.985.508 1.539zm-4.936-5.66c.135-.016.21.149.285.253a7.954 7.954 0 01.284 4.854c-.658 2.554-2.812 4.899-7.434 5.496-.105.015-.224-.015-.24-.075.21-.97.734-2.822 1.855-4.779.21.135.42.27.614.418.074-.12.164-.253.299-.478a4.442 4.442 0 00-1.96-.896s-.134.284-.239.493c0 0 .284.06.628.18-1.002 2.12-1.346 4.092-1.436 4.988-.284-.448-.508-1.494-.583-2.061-.733-5.377 3.141-8.513 7.36-8.573.283-.015.388.045.388.045s-.927.344-2.004 1.165c0 0-.255-.105-.524-.18-.164.105-.344.225-.508.344.508.12 1.151.374 1.765.881.134-.12.269-.253.418-.388a5.184 5.184 0 00-.598-.403c.957-.926 1.63-1.285 1.63-1.285zm-3.978 5.077c.105-.15.224-.328.344-.508a4.485 4.485 0 00-2.004-.955c-.12.179-.33.522-.33.522a4.521 4.521 0 011.99.941zm.763-1.06a9.88 9.88 0 01.374-.478c-.659-.538-1.407-.851-1.99-.956-.134.15-.269.314-.389.463.763.15 1.451.508 2.005.97zm.852-1.016c.12-.15.254-.284.419-.433a4.545 4.545 0 00-1.855-.926c-.15.12-.329.254-.493.418.688.15 1.346.463 1.93.941z" fill="#fff"/></svg>