<svg width="160" height="48" fill="none" xmlns="http://www.w3.org/2000/svg"><path d="M58.138 22.447c2.484-.994 3.478-2.402 3.478-4.058 0-2.981-2.568-4.306-6.874-4.306h-7.619c.497.745.911 1.49.911 2.65v5.88c-2.236.414-4.223.828-6.128 1.242C40.25 19.217 38.346 14 38.346 14h-4.638c.083.662 0 1.325-.331 2.319l-5.3 14.74s-.332 1.077-1.077 1.988h3.892c-.083-.497 0-1.16.166-1.574.414-1.159 1.408-1.904 2.567-2.401 1.49-.663 3.975-1.49 5.134-1.822l1.243 3.56s.496 1.326.248 2.237h5.466c-.828-1.077-1.077-1.988-1.077-1.988-.166-.33-.828-2.318-1.739-4.886 1.656-.414 3.395-.745 5.3-1.076v5.217c0 .994-.414 1.905-.91 2.65h7.204c1.16 0 2.236-.083 3.064-.166 3.064-.58 5.3-2.153 5.3-5.465-.083-2.567-1.822-4.14-4.72-4.886zM33.79 26.339c-.414.248-1.077.58-1.408.911a724.69 724.69 0 003.147-9.192l2.401 6.79c-1.16.415-3.064.994-4.14 1.491zm18.55-9.937c.745-.083.993-.083 1.49-.083 2.319 0 3.396.994 3.396 2.319 0 1.324-.829 2.153-2.32 2.567a22.85 22.85 0 01-2.65.58c.084.082.084-5.383.084-5.383zm1.739 14.243h-1.74v-6.293a20.682 20.682 0 012.402-.415c2.07.497 3.644 1.325 3.644 3.479 0 2.484-1.822 3.23-4.306 3.23z" fill="#B31F24"/><path d="M64.68 33.047c.91-1.408.91-2.65.91-2.65V16.733s0-1.242-.91-2.65h6.128c-.911 1.408-.911 2.65-.911 2.65v13.581s0 1.325.91 2.65H64.68v.083zM133 19.63h-4.058c.331.58.166 1.49-.165 2.402l-2.65 7.039-2.733-7.04c-.332-.91-.497-1.821-.166-2.4h-5.3c.745.744 1.16 1.738 1.408 2.4l4.555 11.015h3.561s.082-.911.496-1.905l3.644-9.11c.249-.662.746-1.738 1.408-2.4zm-14.492 7.122c.248-2.816-.497-7.701-6.708-7.701-5.052 0-6.873 3.478-6.873 6.956 0 4.389 2.401 7.37 8.032 7.37 2.319 0 4.141-.662 5.3-1.325L117.1 29.57c-1.077.58-2.402.994-3.809.994-2.568 0-4.058-.912-4.472-3.396h5.465c2.071-.083 3.644-.166 4.224-.414zm-9.689-1.987c.248-2.153 1.242-3.23 2.981-3.23 1.822 0 2.733 1.408 2.816 3.23h-5.797zm-27.577 8.28h5.383c-.828-1.241-.828-2.4-.828-2.4v-7.123c0-2.567-1.408-4.14-4.306-4.14-1.822 0-3.396.828-4.472 1.822V19.63h-4.555c.828 1.242.828 2.402.828 2.402v8.612s0 1.16-.828 2.402h5.383c-.828-1.242-.828-2.402-.828-2.402v-7.122a3.693 3.693 0 012.733-1.242c1.656 0 2.236.911 2.236 2.319v6.045c.082 0 .082 1.16-.746 2.402zm13.995-8.943c2.65 0 4.141 1.325 4.141 3.395 0 1.905-1.16 3.23-4.223 3.23h-1.822v-6.625h1.904zm-.414-7.784c2.32 0 3.396.91 3.396 2.65 0 1.739-.994 2.732-3.23 2.732h-1.656v-5.38h1.49zm.497 16.728c1.16 0 2.236-.083 3.064-.166 3.064-.497 5.3-2.07 5.3-5.465 0-2.733-1.739-4.058-4.471-4.886 2.401-.911 3.229-2.236 3.229-3.975 0-2.982-2.401-4.472-6.79-4.472h-7.288c.497.745.663 1.905.663 2.65v13.581c0 .911-.166 1.822-.663 2.65h6.956v.083z" fill="#000"/></svg>