<svg width="42" height="41" viewBox="0 0 42 41" fill="none" xmlns="http://www.w3.org/2000/svg"><rect x="1" y="1" width="40" height="39" rx="2" fill="#fff"/><path d="M7 1H3a2 2 0 00-2 2v3.85M35 40h4a2 2 0 002-2v-3.85M41 6.85V3a2 2 0 00-2-2h-4M1 34.15V38a2 2 0 002 2h4" stroke="#DEDEDE" stroke-width="1.6"/><rect x="12" y="16" width="20" height="4" rx="1" transform="rotate(90 12 16)" fill="#85C1F4"/><rect x="27" y="17" width="19" height="4" rx="1" transform="rotate(90 27 17)" fill="#85C1F4"/><rect x="19" y="22" width="14" height="4" rx="1" transform="rotate(90 19 22)" fill="#EECA86"/><rect x="34" y="21" width="15" height="4" rx="1" transform="rotate(90 34 21)" fill="#EECA86"/><path d="M6 36h30" stroke="#EDEDED" stroke-width="1.6"/><path d="M11 9.5l6 5 4.5-3.5L26 7l7.5 6" stroke="#DEDEDE" stroke-width="1.6"/><circle cx="10" cy="9" r="2" fill="#DEDEDE"/><circle cx="33" cy="13" r="2" fill="#DEDEDE"/><circle cx="26" cy="7" r="2" fill="#DEDEDE"/><circle cx="17" cy="14" r="2" fill="#DEDEDE"/></svg>