<svg width="57" height="58" fill="none" xmlns="http://www.w3.org/2000/svg"><circle cx="18" cy="38" r="16" stroke="#9CA7FF" stroke-width="3" stroke-linecap="round" stroke-dasharray="0.6 8" stroke-dashoffset="1"><animateTransform attributeName="transform" attributeType="XML" type="rotate" from="0 18 38" to="360 18 38" dur="32s" repeatCount="indefinite"/></circle><g><path fill-rule="evenodd" clip-rule="evenodd" d="M31.974 4.5a1.5 1.5 0 011.5 1.5v15.145l10.728-10.592a1.5 1.5 0 112.108 2.135L35.628 23.234H50a1.5 1.5 0 010 3H35.63l10.68 10.547a1.5 1.5 0 11-2.107 2.135L33.474 28.323V43a1.5 1.5 0 01-3 0V28.323L19.746 38.916a1.5 1.5 0 01-2.108-2.135L28.32 26.234H13a1.5 1.5 0 010-3h15.32L17.638 12.688a1.5 1.5 0 112.108-2.135l10.728 10.592V6a1.5 1.5 0 011.5-1.5z" fill="#c7cfea"/><path fill-rule="evenodd" clip-rule="evenodd" d="M32.446 1h.108a3 3 0 11-.013 6h-.081a3 3 0 11-.014-6zM20.164 7.855a3 3 0 01-.01 4.242l-.057.057a3 3 0 11-4.252-4.233l.076-.076a3 3 0 014.243.01zm24.672 0a3 3 0 014.243-.01l.076.076a3 3 0 11-4.252 4.233l-.057-.057a3 3 0 01-.01-4.242zm-32.83 13.598A3 3 0 0115 24.459v.081a3 3 0 11-6 .014v-.108a3 3 0 013.007-2.993zm40.987 0A3 3 0 0156 24.446v.108a3 3 0 11-6-.013v-.081a3 3 0 012.993-3.007zM15.855 36.836a3 3 0 014.242.01l.057.057a3 3 0 11-4.233 4.252l-.076-.076a3 3 0 01.01-4.243zm33.29 0a3 3 0 01.01 4.243l-.076.076a3 3 0 11-4.233-4.252l.057-.057a3 3 0 014.242-.01zm-19.692 8.157A3 3 0 0132.459 42h.081a3 3 0 11.014 6h-.108a3 3 0 01-2.993-3.007z" fill="#6976D9"/><circle cx="32.351" cy="24.351" r="3.351" fill="#6976D9"/><animateTransform attributeName="transform" attributeType="XML" type="rotate" from="0 32.3511 24.3511" to="360 32.3511 24.3511" dur="32s" repeatCount="indefinite"/></g></svg>