<svg width="44" height="44" viewBox="0 0 44 44" fill="none" xmlns="http://www.w3.org/2000/svg"><path d="M6 20v7a2 2 0 002 2h29a2 2 0 002-2v-7a2 2 0 00-2-2H8a2 2 0 00-2 2z" fill="#F8F8F9"/><rect x="2" y="2" width="40" height="36" rx="2" fill="#fff"/><path d="M8 2H4a2 2 0 00-2 2v4M36 38h4a2 2 0 002-2v-4M42 8V4a2 2 0 00-2-2h-4M2 32v4a2 2 0 002 2h4" stroke="#DEDEDE" stroke-width="1.6"/><rect x="18" y="25" width="20" height="9" rx="3" fill="#4AA1ED"/><path d="M6 10v8a3 3 0 003 3h26a3 3 0 003-3v-8a3 3 0 00-3-3H9a3 3 0 00-3 3z" fill="#EDEDED"/><circle cx="38.5" cy="37.5" r="5.5" fill="#6A6A6A"/><path d="M36 37.5h5M38.5 35v5" stroke="#fff" stroke-width="1.2"/></svg>