<svg width="43" height="43" viewBox="0 0 43 43" fill="none" xmlns="http://www.w3.org/2000/svg"><rect x="1" y="3" width="40" height="35" rx="2" fill="#fff"/><path d="M7 3H3a2 2 0 00-2 2v4M35 38h4a2 2 0 002-2v-4M41 9V5a2 2 0 00-2-2h-4M1 32v4a2 2 0 002 2h4" stroke="#DEDEDE" stroke-width="1.6"/><path d="M5 29v2a3 3 0 003 3h26a3 3 0 003-3v-2a3 3 0 00-3-3H8a3 3 0 00-3 3zM5 9v2a3 3 0 003 3h26a3 3 0 003-3V9a3 3 0 00-3-3H8a3 3 0 00-3 3zM5 19v2a3 3 0 003 3h26a3 3 0 003-3v-2a3 3 0 00-3-3H8a3 3 0 00-3 3z" fill="#EDEDED"/><circle cx="37.5" cy="37.5" r="5.5" fill="#6A6A6A"/><path d="M35 37.5h5M37.5 35v5" stroke="#fff" stroke-width="1.2"/></svg>