<svg width="41" height="39" viewBox="0 0 41 39" fill="none" xmlns="http://www.w3.org/2000/svg"><rect width="40" height="39" rx="2" fill="#fff"/><path d="M14.5 7.5l8.5-6h16v31l-24.5-25z" fill="#F5BED0"/><path d="M1.5 18.5L14 8.5 30.5 25 17 38H1.5V18.5z" fill="#85C1F4"/><path d="M1.5 17V1.5L22 1 1.5 17z" fill="#EECA86"/><path d="M8.043 26C5.81 26 4 27.79 4 30s1.81 4 4.043 4c2.234 0 4.044-1.79 4.044-4s-1.81-4-4.043-4zm1.92 4.98c-1.383 1.369-3.853.932-3.853.932s-.445-2.438.942-3.81c.769-.761 2.042-.73 2.847.062.805.792.833 2.056.064 2.817z" fill="#fff"/><path d="M8.507 28.344l-.395.806-.814.391.814.392.395.805.396-.805.814-.392-.814-.391-.396-.806z" fill="#fff"/><path d="M23 2a.8.8 0 00-.978-1.266L23 2zM1 19L23 2 22.022.734l-22 17L1 19z" fill="#6A6A6A"/><path stroke="#6A6A6A" stroke-width="1.6" d="M16.454 38.415l15-14M13.566 7.434l26 26"/><path d="M24.793 18.512l-.284.411.286.198.285-.2-.287-.41zm0 0l.287.41v-.001h.001l.003-.002.007-.006.025-.018a7.313 7.313 0 00.391-.313c.248-.212.58-.521.912-.91.655-.767 1.368-1.903 1.375-3.254.009-1.607-1.344-2.873-2.97-2.86-1.618.014-2.979 1.277-2.988 2.882-.007 1.355.694 2.487 1.344 3.248a8.098 8.098 0 001.293 1.21l.025.017.007.005.003.002h0s.001.001.285-.41zM8.793 11.512l-.284.411.286.198.285-.2-.287-.41zm0 0l.287.41v-.001h.001l.003-.002.007-.006.025-.018a7.316 7.316 0 00.391-.313c.248-.212.58-.521.912-.91.655-.767 1.368-1.903 1.375-3.254.009-1.607-1.344-2.873-2.97-2.86-1.618.014-2.979 1.277-2.988 2.882-.007 1.355.694 2.487 1.344 3.248a8.098 8.098 0 001.293 1.21l.025.017.007.005.003.002h0s.001.001.285-.41zM21.793 33.512l-.284.411.286.198.285-.2-.287-.41zm0 0l.287.41v-.001h.001l.003-.002.007-.006.025-.018a7.313 7.313 0 00.391-.313c.248-.212.58-.521.912-.91.655-.767 1.368-1.903 1.375-3.253.009-1.608-1.344-2.874-2.97-2.86-1.618.013-2.979 1.276-2.988 2.88-.007 1.356.694 2.488 1.344 3.249a8.098 8.098 0 001.293 1.21l.025.017.007.005.003.002h0s.001.001.285-.41z" fill="#E46D61" stroke="#fff"/><rect x=".8" y=".8" width="38.4" height="37.4" rx="1.2" stroke="#6A6A6A" stroke-width="1.6"/></svg>