<svg width="40" height="34" viewBox="0 0 40 34" fill="none" xmlns="http://www.w3.org/2000/svg"><path d="M39 33H1V7a1 1 0 011-1h36a1 1 0 011 1v26z" fill="#fff"/><path d="M1 29h38v2a2 2 0 01-2 2H3a2 2 0 01-2-2v-2z" fill="#DEDEDE"/><path d="M8 33V1M24 33V1M1 14h38M1 22h38M16 33V1M32 33V1" stroke="#DEDEDE" stroke-width="1.6"/><path d="M39 6H1V1a1 1 0 011-1h36a1 1 0 011 1v5z" fill="#DEDEDE"/><path d="M1 6h38" stroke="#DEDEDE" stroke-width="1.6"/><rect x=".8" y=".8" width="38.4" height="32.4" rx="2.2" stroke="#6A6A6A" stroke-width="1.6"/></svg>