<svg width="42" height="41" viewBox="0 0 42 41" fill="none" xmlns="http://www.w3.org/2000/svg"><rect x="1" y="1" width="40" height="39" rx="2" fill="#fff"/><path d="M7 1H3a2 2 0 00-2 2v3.85M35 40h4a2 2 0 002-2v-3.85M41 6.85V3a2 2 0 00-2-2h-4M1 34.15V38a2 2 0 002 2h4" stroke="#DEDEDE" stroke-width="1.6"/><rect x="36" y="7" width="15" height="30" rx="1" transform="rotate(90 36 7)" fill="#F5F5F5"/><circle cx="30.5" cy="20.5" r="5.5" fill="#6A6A6A"/><path d="M28 20.5h5M30.5 18v5" stroke="#fff" stroke-width="1.2"/><path stroke="#DEDEDE" stroke-width="2" d="M12 32h6M23 32h6"/><circle cx="20.5" cy="31.5" r="2.5" fill="#3C92DC" stroke="#3C92DC" stroke-width="2"/><circle cx="9.5" cy="31.5" r="2.5" fill="#fff" stroke="#DEDEDE" stroke-width="2"/><circle cx="31.5" cy="31.5" r="2.5" fill="#fff" stroke="#DEDEDE" stroke-width="2"/></svg>