<svg width="211" height="48" viewBox="0 0 211 48" fill="none" xmlns="http://www.w3.org/2000/svg"><g clip-path="url(#clip0)"><path d="M3 24C3 12.402 12.402 3 24 3s21 9.402 21 21-9.402 21-21 21S3 35.598 3 24z" stroke="#fff" stroke-width="6"/><path d="M19.05 31.94V16.06L31.754 24 19.05 31.94z" fill="#fff" stroke="#fff" stroke-width="4.5"/><path d="M91.186 14.1 85.65 33h-2.835L78.36 17.502 73.744 33h-2.835l-5.292-18.9h2.7l4.185 15.984 4.725-15.606h2.322l4.779 15.579L88.486 14.1h2.7zm11.925 17.226-.378 1.944h-.189c-.54 0-.99-.036-1.35-.108a2.624 2.624 0 0 1-.918-.297 2.361 2.361 0 0 1-.648-.621 7.093 7.093 0 0 1-.486-.918c-1.116 1.296-2.466 1.944-4.05 1.944-1.242 0-2.232-.351-2.97-1.053-.738-.72-1.107-1.647-1.107-2.781 0-.918.243-1.674.729-2.268a5.593 5.593 0 0 1 1.89-1.431 9.463 9.463 0 0 1 2.565-.756 18.161 18.161 0 0 1 2.727-.27c0-1.188-.234-1.989-.702-2.403-.45-.432-1.18-.648-2.187-.648-1.152 0-2.313.396-3.483 1.188l-.351-1.971c1.188-.918 2.682-1.377 4.482-1.377.846 0 1.566.117 2.16.351a2.96 2.96 0 0 1 1.431 1.08c.378.486.648 1.134.81 1.944.18.81.27 1.8.27 2.97v2.7c0 1.044.09 1.773.27 2.187.18.396.594.594 1.242.594h.243zm-4.185-1.782v-3.159c-1.944.072-3.34.333-4.185.783-.828.432-1.242 1.143-1.242 2.133 0 1.35.684 2.025 2.052 2.025.648 0 1.269-.162 1.863-.486a4.397 4.397 0 0 0 1.512-1.296zm12.736 1.782-.189 1.944h-2.187c-1.17 0-2.043-.306-2.619-.918-.558-.612-.837-1.359-.837-2.241V21.66h-2.268l.216-1.89h2.052v-3.267l2.43-.243v3.51h3.483v1.89h-3.483v6.966c0 .63.018 1.125.054 1.485.036.36.135.63.297.81.18.18.459.297.837.351.378.036.909.054 1.593.054h.621zm7.884 1.944c-1.062 0-1.998-.171-2.808-.513a6.372 6.372 0 0 1-2.079-1.458 6.463 6.463 0 0 1-1.269-2.187 8.494 8.494 0 0 1-.432-2.754c0-1.008.144-1.926.432-2.754a6.36 6.36 0 0 1 1.242-2.187 5.493 5.493 0 0 1 2.052-1.404c.828-.342 1.773-.513 2.835-.513 1.764 0 3.123.261 4.077.783l-.378 2.187c-1.116-.54-2.259-.81-3.429-.81-1.458 0-2.547.405-3.267 1.215-.72.81-1.08 1.971-1.08 3.483s.36 2.691 1.08 3.537c.72.828 1.809 1.242 3.267 1.242 1.188 0 2.34-.27 3.456-.81l.324 1.944c-.99.666-2.331.999-4.023.999zM137.45 33h-2.43v-7.074c0-1.566-.234-2.664-.702-3.294-.468-.648-1.287-.972-2.457-.972-1.584 0-2.736.576-3.456 1.728V33h-2.457V12.75h2.457v8.451c.882-1.134 2.16-1.701 3.834-1.701 3.474 0 5.211 2.142 5.211 6.426V33zm24.856-18.9L155.07 33h-2.7l-7.236-18.9h2.7l5.913 15.957 5.859-15.957h2.7zm4.173 2.7h-2.43v-2.7h2.43v2.7zm0 16.2h-2.43V19.77h2.43V33zm15.01 0h-2.16l-.27-1.674a3.269 3.269 0 0 1-.837.81 6.75 6.75 0 0 1-1.053.621c-.36.162-.729.288-1.107.378-.378.09-.729.135-1.053.135-.846 0-1.638-.18-2.376-.54a6.094 6.094 0 0 1-1.917-1.458 7.117 7.117 0 0 1-1.269-2.187 7.877 7.877 0 0 1-.459-2.7c0-.918.144-1.791.432-2.619a6.933 6.933 0 0 1 1.215-2.214 5.919 5.919 0 0 1 1.917-1.485c.738-.378 1.557-.567 2.457-.567 1.782 0 3.132.558 4.05 1.674V12.75h2.43V33zm-6.291-11.34c-.576 0-1.098.117-1.566.351-.45.234-.837.558-1.161.972a4.618 4.618 0 0 0-.756 1.485 7.071 7.071 0 0 0-.243 1.917c0 .648.081 1.26.243 1.836.18.576.423 1.08.729 1.512.324.414.711.747 1.161.999.468.252.999.378 1.593.378.54 0 1.053-.09 1.539-.27a3.831 3.831 0 0 0 1.323-.864 4.03 4.03 0 0 0 .918-1.458c.234-.594.351-1.278.351-2.052 0-.756-.117-1.431-.351-2.025a4.593 4.593 0 0 0-.945-1.512 3.804 3.804 0 0 0-1.323-.945 3.685 3.685 0 0 0-1.512-.324zm20.808 4.725h-9.585c.288 3.15 1.944 4.725 4.968 4.725 1.35 0 2.619-.261 3.807-.783l.324 1.917c-1.566.684-3.042 1.026-4.428 1.026-1.116 0-2.124-.18-3.024-.54-.882-.36-1.629-.846-2.241-1.458a6.45 6.45 0 0 1-1.404-2.214 7.856 7.856 0 0 1-.486-2.781c0-.954.153-1.845.459-2.673a6.224 6.224 0 0 1 1.296-2.133 5.83 5.83 0 0 1 2.025-1.431c.81-.36 1.71-.54 2.7-.54.846 0 1.62.126 2.322.378a4.747 4.747 0 0 1 1.782 1.107 4.86 4.86 0 0 1 1.161 1.782c.288.684.432 1.458.432 2.322 0 .504-.036.936-.108 1.296zm-5.643-4.725c-1.962 0-3.204 1.017-3.726 3.051h6.966c0-.972-.27-1.719-.81-2.241-.54-.54-1.35-.81-2.43-.81zm18.758 9.666c-1.17 1.296-2.763 1.944-4.779 1.944-1.026 0-1.944-.171-2.754-.513a6.372 6.372 0 0 1-2.079-1.458 6.47 6.47 0 0 1-1.296-2.187 8.407 8.407 0 0 1-.432-2.727c0-.99.153-1.899.459-2.727a6.47 6.47 0 0 1 1.296-2.187 6.046 6.046 0 0 1 2.079-1.431c.81-.36 1.719-.54 2.727-.54 1.008 0 1.917.18 2.727.54.81.342 1.494.828 2.052 1.458a6.249 6.249 0 0 1 1.323 2.187 7.73 7.73 0 0 1 .459 2.7c0 1.98-.594 3.627-1.782 4.941zm-1.782-8.424c-.702-.828-1.701-1.242-2.997-1.242-1.296 0-2.304.414-3.024 1.242-.702.81-1.053 1.971-1.053 3.483s.351 2.682 1.053 3.51c.72.81 1.728 1.215 3.024 1.215 1.314 0 2.322-.423 3.024-1.269.702-.846 1.053-1.998 1.053-3.456 0-1.494-.36-2.655-1.08-3.483z" fill="#fff"/></g><defs><clipPath id="clip0"><path fill="#fff" d="M0 0h211v48H0z"/></clipPath></defs></svg>