<svg width="110" height="61" viewBox="0 0 110 61" fill="none" xmlns="http://www.w3.org/2000/svg"><path d="M1.738 29.285c0-3.116 0-3.675-.04-4.315-.04-.679-.2-.998-.86-1.138-.159-.04-.498-.06-.678-.06-.08 0-.16-.04-.16-.12 0-.12.1-.16.32-.16.898 0 2.077.06 2.197.06.18 0 1.338-.06 1.937-.06.22 0 .32.04.32.16 0 .08-.08.12-.16.12-.14 0-.26.02-.5.06-.539.1-.698.44-.738 1.138-.04.64-.04 1.199-.04 4.315v1.198h.08c.34-.38 3.955-4.054 4.674-4.833.559-.58 1.078-1.099 1.078-1.439 0-.24-.1-.36-.26-.42-.1-.039-.18-.079-.18-.159 0-.1.1-.14.24-.14.4 0 1.02.06 1.499.06.1 0 1.418-.06 1.917-.06.22 0 .3.04.3.14s-.04.14-.2.14c-.3 0-.719.1-1.118.28-.82.36-1.259.858-2.158 1.717-.5.48-3.975 3.876-4.394 4.375.52.58 4.674 4.874 5.493 5.633 1.678 1.558 2.017 1.877 2.976 2.277.52.22 1.099.26 1.239.26.14 0 .26.04.26.12 0 .1-.1.16-.44.16h-1.019c-.56 0-.939 0-1.378-.04-1.059-.1-1.558-.54-2.417-1.22-.899-.738-5.134-5.313-6.092-6.491h-.1V32.8c0 1.918 0 3.496.1 4.335.06.58.18 1.019.779 1.099.28.04.599.08.779.08.12 0 .16.06.16.12 0 .1-.1.16-.32.16-.979 0-2.137-.06-2.297-.06-.16 0-1.319.06-1.918.06-.22 0-.32-.04-.32-.16 0-.06.04-.12.16-.12.18 0 .42-.04.6-.08.4-.08.499-.52.579-1.099.1-.839.1-2.417.1-4.334v-3.516z" fill="#fff"/><path d="M15.16 29.285c0-3.116 0-3.675-.04-4.315-.04-.679-.199-.998-.858-1.138-.16-.04-.5-.06-.68-.06-.08 0-.16-.04-.16-.12 0-.12.1-.16.32-.16.46 0 1 0 1.439.02l.819.04c.14 0 5.593 0 6.052-.02.38-.02.699-.06.859-.1.1-.02.18-.1.28-.1.06 0 .08.08.08.18 0 .14-.1.38-.16.939-.02.2-.06 1.079-.1 1.318-.02.1-.06.22-.14.22-.12 0-.16-.1-.16-.26 0-.14-.02-.699-.12-.938-.14-.32-.56-.34-1.638-.46-.34-.04-3.775-.06-3.995-.06-.08 0-.12.06-.12.2v5.513c0 .14.02.2.12.2.26 0 4.195 0 4.655-.04.479-.04.759-.08.938-.28.14-.16.22-.26.3-.26.06 0 .1.04.1.16s-.1.46-.16 1.119c-.04.4-.08 1.138-.08 1.278 0 .16 0 .38-.14.38-.1 0-.14-.08-.14-.18 0-.2 0-.4-.08-.66-.08-.279-.479-.619-1.258-.698-.54-.06-3.775-.1-4.115-.1-.1 0-.14.06-.14.14V32.8c0 .68-.02 2.997 0 3.416.06 1.378.36 1.638 2.318 1.638.519 0 2.876 0 3.395-.22.52-.22.76-.619.9-1.438.04-.22.079-.3.179-.3.12 0 .12.16.12.3 0 .16-.16 1.518-.26 1.938-.14.519-.3.519-1.078.519-1.499 0-4.075-.04-4.854-.06-.78-.04-1.259-.06-1.558-.06-.04 0-.38 0-.8.02-.399 0-.858.04-1.158.04-.22 0-.32-.04-.32-.16 0-.06.04-.12.16-.12.18 0 .42-.04.6-.08.399-.08.499-.519.579-1.098.1-.84.1-2.417.1-4.335v-3.515zM101.411 29.285c0-3.116 0-3.675-.04-4.315-.04-.679-.2-.998-.859-1.138a3.73 3.73 0 0 0-.68-.06c-.079 0-.159-.04-.159-.12 0-.12.1-.16.32-.16.459 0 .998 0 1.438.02l.819.04c.14 0 5.593 0 6.052-.02.38-.02.699-.06.859-.1.1-.02.18-.1.28-.1.06 0 .08.08.08.18 0 .14-.1.38-.16.939-.02.2-.06 1.079-.1 1.318-.02.1-.06.22-.14.22-.12 0-.16-.1-.16-.26 0-.14-.02-.479-.12-.719-.139-.32-.559-.559-1.637-.679-.34-.04-3.776-.06-3.995-.06-.08 0-.12.06-.12.2v5.513c0 .14.02.2.12.2.259 0 4.194 0 4.654-.04.479-.04.759-.08.939-.28.139-.16.219-.26.299-.26.06 0 .1.04.1.16s-.1.46-.16 1.119c-.04.4-.08 1.138-.08 1.278 0 .16 0 .38-.14.38-.099 0-.139-.08-.139-.18 0-.2 0-.4-.08-.66-.08-.279-.48-.619-1.259-.698-.539-.06-3.775-.1-4.114-.1-.1 0-.14.06-.14.14V32.8c0 .68-.02 2.997 0 3.416.06 1.378.359 1.638 2.317 1.638.519 0 2.876 0 3.396-.22.519-.22.759-.619.898-1.438.04-.22.08-.3.18-.3.12 0 .12.16.12.3 0 .16-.16 1.518-.26 1.938-.139.519-.299.519-1.078.519-1.498 0-4.075-.04-4.854-.06-.779-.04-1.259-.06-1.558-.06-.04 0-.38 0-.799.02-.4 0-.859.04-1.159.04-.219 0-.32-.04-.32-.16 0-.06.041-.12.161-.12.179 0 .419-.04.599-.08.399-.08.499-.519.579-1.098.1-.84.1-2.417.1-4.335v-3.515zM26.346 35.896c.04 1.638.24 2.158.78 2.318.379.1.818.12.998.12.1 0 .16.04.16.12 0 .119-.12.159-.36.159-1.138 0-1.937-.06-2.117-.06-.18 0-1.018.06-1.917.06-.2 0-.32-.02-.32-.16 0-.08.06-.12.16-.12.16 0 .52-.02.819-.12.5-.14.599-.719.599-2.536l.02-11.446c0-.779.06-.998.22-.998s.5.439.699.639c.3.34 3.276 3.555 6.352 6.851 1.977 2.117 4.154 4.554 4.794 5.213l-.22-10.147c-.02-1.298-.16-1.738-.78-1.897-.359-.08-.818-.1-.978-.1-.14 0-.16-.06-.16-.14 0-.12.16-.14.4-.14.899 0 1.858.06 2.077.06.22 0 .88-.06 1.698-.06.22 0 .36.02.36.14 0 .08-.08.14-.22.14-.1 0-.24 0-.48.06-.659.14-.739.579-.739 1.777l-.04 11.706c0 1.318-.04 1.418-.18 1.418-.16 0-.399-.22-1.457-1.279-.22-.2-3.097-3.136-5.214-5.413a417.085 417.085 0 0 1-5.213-5.732l.26 9.567z" fill="#fff"/><path d="M46.74 32.8c0 1.918 0 3.496.1 4.335.06.58.18 1.019.78 1.099.28.04.719.08.898.08.12 0 .16.06.16.12 0 .1-.1.16-.32.16-1.098 0-2.356-.06-2.456-.06-.1 0-1.359.06-1.958.06-.22 0-.32-.04-.32-.16 0-.06.04-.12.16-.12.18 0 .42-.04.6-.08.399-.08.499-.52.579-1.1.1-.838.1-2.416.1-4.334v-8.449l-2.957.04c-1.238.02-1.717.16-2.037.64-.22.339-.28.479-.34.619-.06.16-.12.2-.2.2-.06 0-.1-.06-.1-.18 0-.2.4-1.918.44-2.078.04-.12.12-.38.2-.38.14 0 .34.2.879.24.58.06 1.338.1 1.578.1h7.49c.64 0 1.099-.04 1.419-.1.3-.04.479-.1.559-.1.1 0 .1.12.1.24 0 .6-.06 1.978-.06 2.197 0 .18-.06.26-.14.26-.1 0-.14-.06-.16-.34l-.02-.22c-.06-.599-.54-1.058-2.457-1.098l-2.517-.04v8.45zM57.427 38.333c-.32-.14-.36-.22-.36-.779 0-1.018.1-1.857.12-2.177.02-.22.08-.32.18-.32.14 0 .16.06.16.22 0 .18 0 .48.08.76.36 1.517 1.897 2.097 3.475 2.097 2.257 0 3.376-1.419 3.376-2.737 0-1.418-.68-2.457-2.717-3.915l-1.058-.759c-2.497-1.778-3.056-2.856-3.056-4.235 0-2.197 1.877-3.695 4.873-3.695.92 0 1.598.08 2.198.2.44.08.4.02.579.02.18 0 .24.04.24.14s.24.919.459 2.257c.06.32-.04.48-.16.48-.14 0-.16-.1-.18-.26-.02-.24-.479-.88-.619-1.1-.14-.219-.779-.998-2.936-.998-1.618 0-2.896.879-2.896 2.377 0 1.179.619 1.698 2.876 3.236l.66.46c2.776 1.917 3.435 3.395 3.435 5.033 0 .839-.38 2.397-1.998 3.416-1.018.619-2.277.859-3.555.859-1.119-.02-2.217-.16-3.176-.58z" fill="#fff"/><path d="M72.767 32.8c0 1.918 0 3.496.1 4.335.06.58.18 1.019.76 1.099.279.04.698.08.878.08.12 0 .16.06.16.12 0 .1-.1.16-.32.16-1.078 0-2.317-.06-2.416-.06-.1 0-1.339.06-1.918.06-.22 0-.32-.04-.32-.16 0-.06.04-.12.16-.12.18 0 .42-.04.6-.08.399-.08.499-.52.579-1.1.1-.838.1-2.416.1-4.334v-8.449l-2.917.04c-1.218.02-1.578.16-1.897.64-.22.339-.28.479-.34.619-.06.16-.12.2-.2.2-.06 0-.1-.06-.1-.18 0-.2.4-1.918.44-2.078.04-.12.12-.38.2-.38.14 0 .34.2.858.24.58.06 1.199.1 1.439.1h7.37c.62 0 1.079-.04 1.399-.1.3-.04.479-.1.559-.1.1 0 .1.12.1.24 0 .6-.06 1.978-.06 2.197 0 .18-.06.26-.14.26-.1 0-.14-.06-.16-.34l-.02-.22c-.06-.599-.54-1.058-2.417-1.098l-2.477-.04v8.45z" fill="#fff"/><path d="M81.736 23.992c.28-.66.36-.78.5-.78s.239.1.499.72c.34.759 3.955 9.008 5.353 12.044.819 1.778 1.498 2.098 1.977 2.218.34.1.7.12.92.12.139 0 .239.02.239.12 0 .12-.2.16-.46.16-.34 0-2.017 0-3.615-.04-.44-.02-.699-.02-.699-.14 0-.08.06-.12.16-.14.14-.04.28-.22.14-.54l-2.138-4.914c-.04-.08-.1-.12-.2-.12H79.46c-.12 0-.18.06-.24.16l-1.378 3.536c-.2.5-.32.979-.32 1.338 0 .4.48.58.88.58h.239c.16 0 .24.04.24.12 0 .12-.14.16-.34.16-.56 0-1.538-.06-1.798-.06s-1.518.06-2.596.06c-.3 0-.44-.04-.44-.16 0-.08.1-.12.2-.12.16 0 .48-.02.66-.04 1.058-.12 1.517-.88 1.937-1.878l5.233-12.404zm2.397 7.99c.12 0 .12-.06.1-.14l-2.177-5.393c-.12-.3-.24-.3-.34 0l-2.017 5.393c-.04.1 0 .14.06.14h4.374z" fill="#fff"/><path d="M93.94 32.8c0 1.918 0 3.496.1 4.335.06.58.18 1.019.78 1.099.279.04.718.08.898.08.12 0 .16.06.16.12 0 .1-.1.16-.32.16-1.098 0-2.357-.06-2.457-.06-.1 0-1.358.06-1.957.06-.22 0-.32-.04-.32-.16 0-.06.04-.12.16-.12.18 0 .42-.04.6-.08.399-.08.499-.52.579-1.1.1-.838.1-2.416.1-4.334v-8.449l-2.957.04c-1.238.02-1.718.16-2.037.64-.22.339-.28.479-.34.619-.06.16-.12.2-.2.2-.06 0-.1-.06-.1-.18 0-.2.4-1.918.44-2.078.04-.12.12-.38.2-.38.14 0 .34.2.879.24.58.06 1.338.1 1.578.1h7.49c.64 0 1.099-.04 1.419-.1.3-.04.479-.1.559-.1.1 0 .1.12.1.24 0 .6-.06 1.978-.06 2.197 0 .18-.06.26-.14.26-.1 0-.14-.06-.16-.34l-.02-.22c-.06-.599-.54-1.058-2.457-1.098l-2.517-.04v8.45zM8.749 43.567c0-.999 0-1.179-.02-1.379-.02-.22-.06-.32-.28-.359-.06-.02-.16-.02-.22-.02-.02 0-.06-.02-.06-.04 0-.04.04-.06.1-.06.28 0 .68.02.74.02.06 0 .439-.02.639-.02.08 0 .1.02.1.06 0 .02-.02.04-.06.04-.04 0-.08 0-.16.02-.18.02-.22.14-.24.36-.02.2-.02.379-.02 1.378v.899c0 .918.2 1.318.48 1.578.32.3.599.36.978.36.4 0 .78-.18 1-.46.299-.36.379-.92.379-1.578v-.8c0-.998 0-1.178-.02-1.378-.02-.22-.06-.32-.28-.359-.06-.02-.16-.02-.22-.02-.02 0-.06-.02-.06-.04 0-.04.04-.06.1-.06.28 0 .64.02.68.02.04 0 .339-.02.539-.02.08 0 .1.02.1.06 0 .02-.02.04-.06.04-.04 0-.08 0-.16.02-.18.04-.22.14-.24.36-.02.2-.02.379-.02 1.378v.679c0 .699-.08 1.458-.6 1.917-.459.42-.938.48-1.317.48-.22 0-.86-.02-1.319-.46-.32-.3-.559-.759-.559-1.678v-.938h.08zM20.314 45.684c.02.52.08.7.26.739.12.04.26.04.32.04.04 0 .06.02.06.04 0 .04-.04.06-.12.06-.36 0-.62-.02-.68-.02-.06 0-.32.02-.619.02-.06 0-.1 0-.1-.06 0-.02.02-.04.06-.04.06 0 .16 0 .26-.04.16-.04.2-.24.2-.819v-3.675c0-.26.02-.32.08-.32s.16.14.22.2c.1.1 1.058 1.138 2.037 2.197.639.68 1.338 1.458 1.538 1.678l-.08-3.256c0-.42-.06-.56-.26-.62-.12-.02-.26-.04-.32-.04-.04 0-.06-.019-.06-.039 0-.04.06-.04.12-.04.28 0 .6.02.66.02.08 0 .28-.02.539-.02.08 0 .12 0 .12.04 0 .02-.02.04-.08.04-.04 0-.08 0-.16.02-.22.04-.24.18-.24.58l-.02 3.754c0 .42-.02.46-.06.46-.06 0-.12-.08-.459-.42-.08-.06-.999-.998-1.678-1.737-.739-.8-1.478-1.618-1.678-1.838l.14 3.096zM32.419 44.685c0 .62 0 1.119.04 1.398.02.18.06.32.26.36.08.02.24.02.279.02.04 0 .06.02.06.04 0 .04-.04.06-.1.06-.36 0-.759-.02-.799-.02-.04 0-.44.02-.62.02-.079 0-.099-.02-.099-.06 0-.02.02-.04.06-.04.06 0 .14-.02.2-.02.12-.02.16-.16.18-.36.04-.26.04-.779.04-1.398v-1.138c0-1 0-1.179-.02-1.379-.02-.22-.08-.32-.22-.36-.08-.02-.16-.02-.2-.02-.02 0-.06-.02-.06-.04 0-.04.04-.059.1-.059.22 0 .62.02.64.02.039 0 .439-.02.618-.02.08 0 .1.02.1.06 0 .02-.02.04-.06.04-.04 0-.08 0-.16.02-.18.04-.22.14-.24.36-.02.2-.02.379-.02 1.378v1.138h.02zM41.807 45.764c.38-.86 1.238-3.096 1.378-3.556.04-.1.06-.18.06-.24s-.02-.12-.08-.14c-.08-.02-.18-.02-.24-.02-.04 0-.08 0-.08-.04s.04-.06.14-.06c.26 0 .56.02.62.02.04 0 .32-.02.499-.02.08 0 .1.02.1.04 0 .04-.02.04-.08.04-.04 0-.18 0-.3.08-.08.06-.18.16-.36.6-.08.18-.399.959-.718 1.738-.4.939-.68 1.638-.82 1.937-.18.38-.2.48-.259.48-.08 0-.1-.08-.24-.4l-1.578-3.935c-.14-.36-.24-.44-.46-.5-.099-.02-.199-.02-.239-.02-.04 0-.06-.02-.06-.04 0-.039.06-.039.16-.039.3 0 .68.02.76.02.059 0 .359-.02.598-.02.12 0 .18.02.18.04 0 .04-.02.04-.06.04-.08 0-.18 0-.24.04-.08.04-.08.08-.08.12 0 .08.08.28.18.539l1.219 3.296zM50.855 43.567c0-1 0-1.179-.02-1.379-.02-.22-.06-.32-.28-.36-.06-.02-.16-.02-.219-.02-.02 0-.06-.02-.06-.04 0-.04.04-.059.1-.059h.46l.259.02h1.478c.12 0 .22-.02.28-.04.04 0 .06-.04.08-.04.02 0 .02.02.02.06 0 .04-.04.12-.06.3 0 .06-.02.34-.04.42 0 .039-.02.079-.04.079-.04 0-.06-.04-.06-.08s0-.16-.04-.24c-.04-.1-.1-.18-.46-.22-.1-.02-.798-.02-.878-.02-.02 0-.04.02-.04.06v1.778c0 .04 0 .06.04.06.08 0 .879 0 1.018-.02.16-.02.24-.02.3-.1.04-.06.08-.08.1-.08.02 0 .04.02.04.06 0 .04-.04.14-.06.36-.02.12-.02.36-.02.42s0 .12-.04.12-.04-.02-.04-.06c0-.06 0-.12-.02-.22-.02-.08-.08-.2-.34-.22-.18-.02-.799-.04-.918-.04-.04 0-.04.02-.04.04V45.764c.02.44.12.52.739.52.16 0 .44 0 .619-.08.16-.08.24-.2.28-.46.02-.08.02-.1.06-.1.04 0 .04.06.04.1 0 .06-.06.48-.08.62-.04.159-.1.159-.34.159-.48 0-.839-.02-1.079-.02-.26-.02-.4-.02-.499-.02h-.26c-.12 0-.28.02-.38.02-.08 0-.1-.02-.1-.06 0-.02.02-.04.06-.04.06 0 .14-.02.2-.02.12-.02.16-.16.18-.36.04-.26.04-.779.04-1.398v-1.058h.02zM60.463 43.567c0-.999 0-1.179-.02-1.379-.02-.22-.06-.32-.28-.359-.06-.02-.16-.02-.22-.02-.02 0-.06-.02-.06-.04 0-.04.04-.06.1-.06.28 0 .7.02.72.02.08 0 .559-.02.759-.02.4 0 .839.04 1.178.28.16.12.44.44.44.879 0 .479-.2.958-.78 1.478.52.679.96 1.238 1.339 1.638.34.36.62.44.779.46.12.02.22.02.26.02.04 0 .06.019.06.039 0 .04-.04.06-.16.06h-.46c-.36 0-.519-.04-.679-.12-.28-.14-.5-.46-.859-.939-.26-.36-.579-.779-.699-.959-.02-.02-.04-.04-.08-.04l-.799-.02c-.04 0-.04.02-.04.06v.16c0 .62 0 1.119.04 1.398.02.18.06.32.26.36.08.02.24.02.28.02.04 0 .06.02.06.04 0 .04-.04.06-.1.06-.36 0-.76-.02-.8-.02 0 0-.419.02-.599.02-.08 0-.1-.02-.1-.06 0-.02.02-.04.06-.04.06 0 .14-.02.2-.02.12-.02.16-.16.18-.36.04-.26.04-.779.04-1.398v-1.138h-.02zm.52.559c0 .04.02.06.04.08.1.06.399.1.678.1.16 0 .34-.02.48-.12.22-.16.4-.5.4-.979 0-.799-.42-1.278-1.12-1.278-.199 0-.359.02-.439.04-.04.02-.06.04-.06.08v2.077h.02zM70.57 46.463c-.1-.04-.1-.08-.1-.24 0-.32.02-.579.04-.679 0-.08.02-.1.06-.1.04 0 .04.02.04.08s0 .14.02.24c.1.48.52.659.959.659.62 0 .919-.44.919-.859 0-.44-.18-.699-.74-1.158l-.279-.24c-.68-.56-.839-.959-.839-1.398 0-.68.52-1.159 1.338-1.159.26 0 .44.02.6.06.12.02.18.04.22.04.06 0 .06.02.06.04 0 .04-.02.24-.02.68 0 .099-.02.139-.04.139-.04 0-.04-.04-.06-.08 0-.08-.04-.26-.08-.32-.04-.08-.22-.34-.8-.34-.439 0-.798.28-.798.74 0 .36.16.6.779 1.079l.18.14c.758.599.938.998.938 1.517 0 .26-.1.76-.54 1.06-.279.199-.618.259-.978.259-.32.02-.62-.02-.879-.16zM80.877 44.685c0 .62 0 1.119.04 1.398.02.18.06.32.26.36.08.02.24.02.28.02.04 0 .06.02.06.04 0 .04-.04.06-.1.06-.36 0-.76-.02-.8-.02-.04 0-.439.02-.619.02-.08 0-.1-.02-.1-.06 0-.02.02-.04.06-.04.06 0 .14-.02.2-.02.12-.02.16-.16.18-.36.04-.26.04-.779.04-1.398v-1.138c0-1 0-1.179-.02-1.379-.02-.22-.08-.32-.22-.36-.08-.02-.16-.02-.2-.02-.02 0-.06-.02-.06-.04 0-.04.04-.059.1-.059.22 0 .62.02.64.02.04 0 .439-.02.619-.02.08 0 .1.02.1.06 0 .02-.02.04-.06.04-.04 0-.08 0-.16.02-.18.04-.22.14-.24.36-.02.2-.02.379-.02 1.378v1.138h.02zM90.205 44.685c0 .62 0 1.119.04 1.398.02.18.06.32.26.36.08.02.24.02.28.02.04 0 .06.02.06.04 0 .04-.04.06-.1.06-.36 0-.76-.02-.8-.02-.04 0-.439.02-.619.02-.08 0-.1-.02-.1-.06 0-.02.02-.04.06-.04.06 0 .14-.02.2-.02.12-.02.16-.16.18-.36.04-.26.04-.779.04-1.398V41.97l-.959.02c-.4 0-.56.06-.66.2-.079.1-.079.16-.099.2-.02.06-.04.06-.06.06-.02 0-.04-.02-.04-.06 0-.06.12-.62.14-.66.02-.04.04-.12.06-.12.04 0 .1.06.28.08.18.02.439.04.499.04h2.397c.2 0 .36-.02.46-.04.1-.02.16-.04.18-.04.039 0 .039.04.039.08 0 .2-.02.64-.02.7 0 .059-.02.079-.04.079-.04 0-.04-.02-.06-.1v-.08c-.02-.2-.18-.34-.799-.36l-.799-.02v2.737h-.02zM99.673 44.885c0-.34-.06-.48-.14-.68-.04-.1-.898-1.517-1.138-1.857-.16-.24-.32-.4-.44-.48-.1-.06-.22-.1-.28-.1-.04 0-.06-.02-.06-.04s.02-.039.08-.039c.12 0 .6.02.64.02.04 0 .28-.02.54-.02.08 0 .08.02.08.04s-.04.04-.1.06c-.06.02-.08.06-.08.12 0 .08.04.16.08.26.1.18 1.058 1.837 1.178 2.037.12-.26.939-1.678 1.058-1.878.08-.14.1-.24.1-.32 0-.08-.02-.16-.1-.18-.06-.02-.1-.04-.1-.06 0-.02.04-.04.1-.04.16 0 .38.02.42.02.04 0 .499-.02.619-.02.04 0 .08.02.08.04 0 .04-.04.06-.08.06-.08 0-.2.02-.3.08-.119.08-.199.16-.339.32-.22.26-1.119 1.758-1.219 2.038-.099.24-.099.44-.099.639v.56c0 .099 0 .379.019.638.02.18.08.32.26.36.08.02.24.02.28.02.04 0 .06.02.06.04 0 .04-.04.06-.1.06-.36 0-.76-.02-.8-.02-.04 0-.439.02-.618.02-.08 0-.1-.02-.1-.06 0-.02.02-.04.06-.04.06 0 .14-.02.2-.02.12-.02.18-.16.2-.36.02-.26.02-.539.02-.639v-.58h.02zM58.286 20.936s.2-.2.699-.24c.54-.06 1.039-.36 1.258-.86.06-.119.1-.239.16-.359.18-.3.46-.579.82-.599.299-.04.498.04.758-.06.22-.1.24-.12.24-.12s-.14.04-.38.06c-.22.02-.519-.06-.719-.06-.2 0-.599.08-.839.3-.24.22-.46.58-.699.68-.2.079-.44.159-.659.139-.14 0-.26-.04-.4-.08-.24-.04-.479-.02-.699.02l2.737-3.516-3.655 2.617s0-.16.12-.4c.1-.22.419-.459.539-.858.08-.32.06-.52-.1-.9-.14-.339-.16-.598-.12-.818.04-.24.2-.48.32-.6.22-.219.28-.339.32-.499l.04-.16s0 .06-.18.28c-.18.22-.28.16-.5.38-.22.2-.38.46-.44.739-.06.38.06.48.02.819-.04.34-.1.44-.26.639-.139.16-.299.28-.498.38-.18.1-.34.26-.44.499l-.739-4.275-.66 4.335s-.199-.18-.239-.48c-.02-.18-.04-.679-.34-.978-.24-.26-.419-.34-.798-.48-.22-.1-.52-.36-.64-.619-.12-.26-.1-.72-.14-.819a.976.976 0 0 0-.2-.36s.08.22.08.42c0 .22-.1.56-.08.739.02.18.04.46.36.759.32.3.46.26.66.66.2.399.16.598.1.818-.08.22-.08.46-.06.6.04.16.04.24.04.24L49.416 16.3l2.697 3.516s-.36 0-.54-.16c-.26-.22-.44-.34-.739-.42 0 0-.28-.1-.699.02-.42.12-.32.12-.599.16-.28.04-.74-.02-.959-.22-.22-.179-.4-.339-.56-.399-.159-.06-.279-.06-.279-.06s.26.08.44.3c.2.22.24.44.519.6.3.159.54.219.819.219.22-.02.36-.08.62-.04.199.02.538.12.678.32.24.3.36.539.48.659.16.14.34.2.34.2l-4.495.739s6.332-.28 7.79-.28c1.458 0 7.87.3 7.89.3l-4.534-.82z" fill="#fff"/></svg>