<svg width="110" height="61" viewBox="0 0 110 61" fill="none" xmlns="http://www.w3.org/2000/svg"><g clip-path="url(#clip0)" fill="#fff"><path d="M9.442 13.817C3.706 13.817 0 17.31 0 21.724c0 4.39 3.706 7.884 9.442 7.884 1.747 0 3.99-.519 5.288-1.982l.283 1.652H18.2v-8.309h-7.955v2.927h3.446c-.26 1.37-1.912 2.29-4.343 2.29-3.187 0-4.415-2.243-4.415-4.509 0-2.242 1.228-4.508 4.415-4.508 1.982 0 3.588.779 3.73 2.077h4.933c-.449-3.73-4.627-5.43-8.569-5.43zm66.048.33v2.762h4.508v-2.762H75.49zm-48.887 3.824c-4.06 0-7.436 2.408-7.436 5.783 0 3.683 3.045 5.854 7.53 5.854 3.07 0 6.02-1.109 6.846-3.658h-4.225c-.425.802-1.488 1.204-2.573 1.204-1.912 0-2.998-.992-3.069-2.503h10.103c.236-3.706-2.242-6.68-7.176-6.68zm15.131 0c-4.273 0-7.247 2.526-7.247 5.83 0 3.305 2.974 5.808 7.247 5.808s7.27-2.503 7.27-5.807c0-3.305-2.997-5.83-7.27-5.83zm23.96 0c-3.896 0-6.044 2.455-6.044 5.382 0 3.092 1.889 5.476 6.043 5.476 1.464 0 2.833-.59 3.66-1.605h.046v1.039c0 1.37-.212 2.573-2.36 2.573-.685 0-1.251-.07-1.653-.236-.424-.165-.66-.472-.778-.944h-4.51c.52 2.95 3.565 3.517 6.776 3.517 6.444 0 6.869-3.4 6.869-5.193v-9.678h-4.32v1.369h-.047c-.78-1.133-2.03-1.7-3.683-1.7zm22.141 0c-1.558 0-3.163.213-4.367.756-1.227.566-2.077 1.51-2.148 2.95h4.225c.213-.944 1.015-1.369 2.266-1.369.921 0 2.172.307 2.172 1.157 0 .684-.425.897-1.204 1.015-3.14.519-8.002.236-8.002 3.824 0 2.266 2.054 3.328 4.698 3.328 1.652 0 3.375-.378 4.532-1.369.047.354.094.708.26 1.039h4.532c-.543-.874-.543-1.889-.543-2.833v-4.816c0-3.115-3.14-3.682-6.421-3.682zm-29.506.095c-1.936 0-3.47.755-4.131 2.148h-.048v-1.936h-4.367v11.024h4.509v-5.453c0-1.37 1.157-2.62 3.4-2.62.613 0 1.132.094 1.722.212V18.16a5.964 5.964 0 0 0-1.086-.095zm17.16.212v11.024H80V18.278h-4.51zm-48.886 2.124c1.51 0 2.597 1.015 2.691 2.243H23.7c.26-1.322 1.322-2.243 2.903-2.243zm15.131.33c2.1 0 2.762 1.677 2.762 3.07 0 1.392-.661 3.045-2.762 3.045-2.1 0-2.738-1.653-2.738-3.045.023-1.393.66-3.07 2.738-3.07zm25.045 0c2.007 0 2.715 1.37 2.715 2.786 0 1.37-.826 2.573-2.739 2.573-1.864 0-2.596-1.298-2.596-2.596 0-1.37.637-2.762 2.62-2.762zm23.133 3.4c.118 2.266-.614 3.258-2.762 3.258-1.015 0-1.888-.355-1.888-1.252 0-.873.85-1.203 1.865-1.392.991-.213 2.148-.284 2.785-.614zM37.603 32.04v3.399h5.642v11.755h4.933V35.44h5.642v-3.4H37.603zm42.938 0v15.154h4.509V41.2c0-1.204.731-2.36 2.43-2.36 2.48 0 2.267 1.533 2.267 3.044v5.335h4.509V40.16c0-1.581-.378-4.272-4.957-4.272-1.653 0-3.518.708-4.202 1.817h-.047v-5.642H80.54v-.023zM57.29 35.864c-4.06 0-7.436 2.431-7.436 5.783 0 3.683 3.045 5.854 7.53 5.854 3.069 0 6.02-1.11 6.846-3.659h-4.226c-.424.803-1.487 1.204-2.572 1.204-1.913 0-2.998-.991-3.07-2.502h10.104c.212-3.706-2.243-6.68-7.176-6.68zm15.39 0c-4.437 0-7.223 2.502-7.223 5.996 0 3.375 3.069 5.641 7.223 5.641 3.66 0 6.515-1.7 6.917-4.65H75.23c-.213 1.157-1.015 1.888-2.573 1.888-1.912 0-2.691-1.463-2.691-2.88 0-1.534.401-3.257 2.903-3.257 1.157 0 2.172.661 2.196 1.582h4.367c-.26-2.88-3.329-4.32-6.752-4.32zm-15.39 2.455c1.51 0 2.596 1.015 2.667 2.242h-5.594c.26-1.345 1.322-2.242 2.927-2.242z"/><path fill-rule="evenodd" clip-rule="evenodd" d="M99.945 54.323H110V51.82H99.945v2.502zm.707-.708V52.53h8.64v1.086h-8.64zm-.707-2.857H110V32.89l-.696-.09-1.774 6.65-2.205-33.044h-.706l-2.204 33.043-1.775-6.65-.695.091v17.87zm2.368-8.946h-.056l.011-.168-1.616-6.056V50.05h3.86l-2.199-8.239zm.701-.708 1.958-29.36 1.959 29.36h-3.917zm3.885.708h-3.853l1.926 7.22 1.927-7.22zm.777-.168.011.168h-.056l-2.198 8.239h3.859V35.588l-1.616 6.056z"/></g><defs><clipPath id="clip0"><path fill="#fff" transform="translate(0 .364)" d="M0 0h110v60H0z"/></clipPath></defs></svg>