<svg width="160" height="123" viewBox="0 0 160 123" fill="none" xmlns="http://www.w3.org/2000/svg"><g filter="url(#filter0_d)" stroke="#fff"><path d="M80 10c18.225 0 33 14.775 33 33S98.225 76 80 76 47 61.225 47 43s14.775-33 33-33z" stroke-width="6"/><path d="M71 57.752V28.248L94.604 43 71 57.752z" fill="#fff" stroke-width="3.6"/></g><g filter="url(#filter1_d)"><path d="M25.729 96.14h2.633l2.772 9.841 3.089-9.841h1.762l3.208 9.583 2.653-9.583h2.633L40.42 110h-2.237l-3.089-9.247L32.025 110H29.63l-3.9-13.86zm21.438 14.058c-.818 0-1.505-.264-2.059-.792-.541-.541-.812-1.267-.812-2.178 0-.858.31-1.544.93-2.059a5.33 5.33 0 0 1 2.199-1.109c.845-.224 1.656-.35 2.435-.376-.026-.581-.178-.997-.455-1.248-.264-.25-.706-.376-1.327-.376-.436 0-.864.06-1.287.178-.41.119-.884.311-1.425.575l-.218-2c1.2-.581 2.402-.871 3.603-.871 1.162 0 2.046.316 2.654.95.62.634.93 1.643.93 3.029v2.673c0 .502.02.865.06 1.089.052.212.131.35.237.416.119.053.31.079.574.079h.317l-.218 2.02h-.89c-.542 0-.997-.099-1.367-.297a2.2 2.2 0 0 1-.851-.851c-.317.356-.753.64-1.307.851a4.974 4.974 0 0 1-1.723.297zm1.03-1.881c.25 0 .534-.059.851-.178.317-.132.594-.31.832-.535v-2.257c-.792.04-1.492.211-2.099.515-.607.303-.91.726-.91 1.267 0 .409.105.713.316.911.211.185.548.277 1.01.277zm9.766 1.881c-.871 0-1.531-.251-1.98-.752-.449-.515-.673-1.129-.673-1.842v-5.484h-1.406l.218-2.02h1.188v-2.178l2.455-.257v2.435h2.178v2.02h-2.178v4.474c0 .528.026.898.08 1.109.065.198.19.33.375.396.198.053.548.079 1.05.079h.673l-.218 2.02h-1.762zm8.172 0c-1.095 0-2.039-.224-2.831-.673a4.514 4.514 0 0 1-1.762-1.861c-.396-.779-.594-1.644-.594-2.594 0-.964.198-1.835.594-2.614a4.327 4.327 0 0 1 1.782-1.861c.792-.462 1.755-.693 2.89-.693 1.017 0 1.901.211 2.654.634l-.198 1.98a4.755 4.755 0 0 0-2.218-.555c-.937 0-1.67.284-2.198.852-.528.567-.792 1.32-.792 2.257 0 .897.271 1.643.812 2.237.541.581 1.26.871 2.158.871.753 0 1.505-.217 2.258-.653l.217 2.079c-.356.185-.778.33-1.267.436a6.959 6.959 0 0 1-1.505.158zm9.407-10.256c1.254 0 2.184.409 2.792 1.227.62.805.93 1.914.93 3.327V110H76.81v-5.326c0-.937-.152-1.624-.455-2.059-.304-.436-.786-.654-1.446-.654-.779 0-1.419.284-1.92.852V110h-2.456V95.15h2.456v5.584a5.292 5.292 0 0 1 1.207-.575c.41-.145.859-.217 1.347-.217zm21.47-3.802L92.083 110h-2.395l-4.93-13.86h2.554l3.564 10.197 3.584-10.197h2.554zm1.055 0h2.456v2.455h-2.456V96.14zm0 3.96h2.456v9.9h-2.456v-9.9zm13.786-4.95V110h-2.317l-.039-.634a4.59 4.59 0 0 1-1.208.634c-.409.132-.898.198-1.465.198-.964 0-1.796-.231-2.495-.693a4.392 4.392 0 0 1-1.564-1.861c-.357-.779-.535-1.637-.535-2.574 0-.937.178-1.795.535-2.574a4.392 4.392 0 0 1 1.564-1.861c.699-.462 1.531-.693 2.495-.693.963 0 1.821.264 2.574.792V95.15h2.455zm-4.673 13.028c.779 0 1.36-.277 1.742-.831.396-.555.594-1.314.594-2.277 0-.964-.198-1.723-.594-2.277-.382-.555-.963-.832-1.742-.832-.766 0-1.366.284-1.802.852-.422.567-.633 1.32-.633 2.257s.211 1.689.633 2.257c.436.568 1.036.851 1.802.851zm11.727 2.02c-1.148 0-2.131-.231-2.95-.693-.805-.475-1.412-1.102-1.821-1.881-.396-.792-.594-1.67-.594-2.633 0-.924.191-1.769.574-2.535a4.428 4.428 0 0 1 1.663-1.821c.726-.462 1.591-.693 2.594-.693.924 0 1.703.191 2.336.574a3.619 3.619 0 0 1 1.446 1.544c.33.647.495 1.373.495 2.178 0 .396-.053.845-.159 1.347h-6.395c.132.871.475 1.524 1.029 1.96.555.422 1.221.633 2 .633 1.069 0 2.059-.27 2.97-.811l.119 2.079a6.702 6.702 0 0 1-1.485.554 7.863 7.863 0 0 1-1.822.198zm1.248-6.277c0-.514-.145-.97-.436-1.366-.29-.396-.739-.594-1.346-.594-.607 0-1.096.178-1.465.535-.37.356-.621.831-.753 1.425h4zm8.665 6.277c-1.043 0-1.947-.231-2.712-.693a4.687 4.687 0 0 1-1.763-1.861c-.409-.779-.613-1.637-.613-2.574 0-.937.204-1.802.613-2.594a4.655 4.655 0 0 1 1.763-1.881c.765-.462 1.669-.693 2.712-.693 1.043 0 1.947.231 2.713.693a4.653 4.653 0 0 1 1.762 1.881 5.57 5.57 0 0 1 .614 2.594c0 .937-.205 1.795-.614 2.574a4.684 4.684 0 0 1-1.762 1.861c-.766.462-1.67.693-2.713.693zm0-2.02c.805 0 1.432-.283 1.881-.851.462-.568.693-1.32.693-2.257 0-.951-.231-1.71-.693-2.277-.449-.581-1.076-.871-1.881-.871-.805 0-1.439.29-1.901.871-.448.567-.673 1.326-.673 2.277 0 .937.225 1.689.673 2.257.462.568 1.096.851 1.901.851z" fill="#fff"/></g><defs><filter id="filter0_d" x="35" y="1" width="90" height="90" filterUnits="userSpaceOnUse" color-interpolation-filters="sRGB"><feFlood flood-opacity="0" result="BackgroundImageFix"/><feColorMatrix in="SourceAlpha" type="matrix" values="0 0 0 0 0 0 0 0 0 0 0 0 0 0 0 0 0 0 127 0"/><feOffset dy="3"/><feGaussianBlur stdDeviation="4.5"/><feColorMatrix type="matrix" values="0 0 0 0 0.0392157 0 0 0 0 0.0784314 0 0 0 0 0.117647 0 0 0 0.15 0"/><feBlend mode="normal" in2="BackgroundImageFix" result="effect1_dropShadow"/><feBlend mode="normal" in="SourceGraphic" in2="effect1_dropShadow" result="shape"/></filter><filter id="filter1_d" x="16.729" y="89.15" width="126.18" height="33.048" filterUnits="userSpaceOnUse" color-interpolation-filters="sRGB"><feFlood flood-opacity="0" result="BackgroundImageFix"/><feColorMatrix in="SourceAlpha" type="matrix" values="0 0 0 0 0 0 0 0 0 0 0 0 0 0 0 0 0 0 127 0"/><feOffset dy="3"/><feGaussianBlur stdDeviation="4.5"/><feColorMatrix type="matrix" values="0 0 0 0 0.0392157 0 0 0 0 0.0784314 0 0 0 0 0.117647 0 0 0 0.15 0"/><feBlend mode="normal" in2="BackgroundImageFix" result="effect1_dropShadow"/><feBlend mode="normal" in="SourceGraphic" in2="effect1_dropShadow" result="shape"/></filter></defs></svg>